{
.appVersion = "3430";
copyright = "Ariel Martín Pérez";
customParameters = (
{
name = license;

glyphs = (
{
color = 4;
glyphname = A;
lastChange = "2025-10-02 14:36:05 +0000";
layers = (
{
anchors = (
{
name = bottom;
position = "{282, 0}";
},
{
name = ogonek;
position = "{475, 0}";
},
{
name = top;
position = "{282, 700}";
}
);
components = (
{
name = V;
transform = "{-1, 0, 0, -1, 558, 700}";
}
);
guideLines = (
{
position = "{261, 700}";
},
{
position = "{538, 0}";
},
{
angle = 90;
position = "{282, 649}";
}
);
layerId = "99397DCC-BAAE-47D6-813A-D8EE2FB228A7";
paths = (
{
closed = 1;
nodes = (
"415 273 LINE",
"147 273 LINE",
"147 192 LINE",
"416 185 LINE"
);
}
);
width = 563;
},
{
associatedMasterId = "99397DCC-BAAE-47D6-813A-D8EE2FB228A7";
backgroundImage = {
crop = "{{0, 0}, {36.72, 56.28}}";
imagePath = "../../Desktop/_ONGOING FONTS/LETTERSCANS/a.jpg";
locked = "1";
transform = "{16.52479, 0, 0, 16.52479, -69, -104}";
};
layerId = "66628994-A6EE-46EF-ABB6-A4E1718D8679";
name = "Feb 5 19, 12:30";
paths = (
{
closed = 1;
nodes = (
"191 706 OFFCURVE",
"201 709 OFFCURVE",
"224 709 CURVE SMOOTH",
"249 709 OFFCURVE",
"254 707 OFFCURVE",
"269 700 CURVE",
"296 660 OFFCURVE",
"389 420 OFFCURVE",
"419 302 CURVE SMOOTH",
"449 184 OFFCURVE",
"474 102 OFFCURVE",
"520 2 CURVE",
"442 -25 LINE",
"394 24 OFFCURVE",
"364 178 OFFCURVE",
"327 297 CURVE SMOOTH",
"290 416 OFFCURVE",
"243 562 OFFCURVE",
"176 700 CURVE"
);
},
{
closed = 1;
nodes = (
"-38 6 LINE",
"-1 129 OFFCURVE",
"49 245 OFFCURVE",
"83 384 CURVE SMOOTH",
"117 523 OFFCURVE",
"135 589 OFFCURVE",
"176 700 CURVE",
"254 700 LINE",
"224 609 OFFCURVE",
"170 409 OFFCURVE",
"141 307 CURVE SMOOTH",
"112 206 OFFCURVE",
"90 55 OFFCURVE",
"75 6 CURVE"
);
},
{
closed = 1;
nodes = (
"469 242 OFFCURVE",
"460 220 OFFCURVE",
"442 198 CURVE",
"410 198 LINE SMOOTH",
"383 198 OFFCURVE",
"209 198 OFFCURVE",
"108 198 CURVE",
"108 263 LINE",
"470 263 LINE"
);
}
);
width = 600;
},
{
associatedMasterId = "99397DCC-BAAE-47D6-813A-D8EE2FB228A7";
backgroundImage = {
crop = "{{0, 0}, {36.72, 56.28}}";
imagePath = "../../Desktop/_ONGOING FONTS/LETTERSCANS/a.jpg";
locked = "1";
transform = "{16.52479, 0, 0, 16.52479, 9, -104}";
};
layerId = "F4F0E9D9-DAFF-48AB-AE5D-222F392054E2";
name = "Feb 11 19, 20:53";
paths = (
{
closed = 1;
nodes = (
"269 706 OFFCURVE",
"279 709 OFFCURVE",
"302 709 CURVE SMOOTH",
"327 709 OFFCURVE",
"332 707 OFFCURVE",
"347 700 CURVE",
"374 660 OFFCURVE",
"467 420 OFFCURVE",
"497 302 CURVE SMOOTH",
"527 184 OFFCURVE",
"552 102 OFFCURVE",
"598 2 CURVE",
"520 -25 LINE",
"472 24 OFFCURVE",
"442 178 OFFCURVE",
"405 297 CURVE SMOOTH",
"368 416 OFFCURVE",
"321 562 OFFCURVE",
"254 700 CURVE"
);
},
{
closed = 1;
nodes = (
"40 6 LINE",
"77 129 OFFCURVE",
"127 245 OFFCURVE",
"161 384 CURVE SMOOTH",
"195 523 OFFCURVE",
"213 589 OFFCURVE",
"254 700 CURVE",
"332 700 LINE",
"302 609 OFFCURVE",
"248 409 OFFCURVE",
"219 307 CURVE SMOOTH",
"190 206 OFFCURVE",
"168 55 OFFCURVE",
"153 6 CURVE"
);
},
{
closed = 1;
nodes = (
"547 252 OFFCURVE",
"538 220 OFFCURVE",
"520 198 CURVE",
"488 198 LINE SMOOTH",
"461 198 OFFCURVE",
"287 198 OFFCURVE",
"186 198 CURVE",
"186 273 LINE",
"548 273 LINE"
);
}
);
width = 638;
},
{
anchors = (
{
name = bottom;
position = "{308, 0}";
},
{
name = ogonek;
position = "{554, 10}";
},
{
name = top;
position = "{308, 700}";
}
);
associatedMasterId = "99397DCC-BAAE-47D6-813A-D8EE2FB228A7";
backgroundImage = {
crop = "{{0, 0}, {36.72, 56.28}}";
imagePath = "../../Desktop/_ONGOING FONTS/LETTERSCANS/a.jpg";
locked = "1";
transform = "{16.52479, 0, 0, 16.52479, 9, -104}";
};
layerId = "C3F74623-EE15-4162-9268-B053D6593B78";
name = "Apr 18 19, 18:48";
paths = (
{
closed = 1;
nodes = (
"35 0 LINE",
"72 123 OFFCURVE",
"122 245 OFFCURVE",
"156 384 CURVE SMOOTH",
"190 523 OFFCURVE",
"203 589 OFFCURVE",
"244 700 CURVE",
"332 700 LINE",
"302 609 OFFCURVE",
"248 409 OFFCURVE",
"219 307 CURVE SMOOTH",
"190 206 OFFCURVE",
"168 49 OFFCURVE",
"153 0 CURVE"
);
},
{
closed = 1;
nodes = (
"537 252 OFFCURVE",
"528 220 OFFCURVE",
"510 198 CURVE",
"478 198 LINE SMOOTH",
"451 198 OFFCURVE",
"277 198 OFFCURVE",
"176 198 CURVE",
"176 273 LINE",
"538 273 LINE"
);
},
{
closed = 1;
nodes = (
"447 49 OFFCURVE",
"425 206 OFFCURVE",
"396 307 CURVE SMOOTH",
"367 409 OFFCURVE",
"313 609 OFFCURVE",
"283 700 CURVE",
"376 700 LINE",
"417 589 OFFCURVE",
"430 523 OFFCURVE",
"464 384 CURVE",
"498 245 OFFCURVE",
"548 123 OFFCURVE",
"585 0 CURVE",
"462 0 LINE"
);
}
);
width = 615;
},
{
anchors = (
{
name = bottom;
position = "{308, 0}";
},
{
name = ogonek;
position = "{554, 10}";
},
{
name = top;
position = "{308, 700}";
}
);
associatedMasterId = "99397DCC-BAAE-47D6-813A-D8EE2FB228A7";
backgroundImage = {
crop = "{{0, 0}, {36.72, 56.28}}";
imagePath = "../../Desktop/_ONGOING FONTS/LETTERSCANS/a.jpg";
locked = "1";
transform = "{16.52479, 0, 0, 16.52479, 9, -104}";
};
layerId = "C083707C-2A50-4922-9B16-0918E7C90A50";
name = "Apr 18 19, 18:51";
paths = (
{
closed = 1;
nodes = (
"176 273 LINE",
"176 198 LINE",
"277 198 OFFCURVE",
"451 198 OFFCURVE",
"478 198 CURVE SMOOTH",
"510 198 LINE",
"528 220 OFFCURVE",
"537 252 OFFCURVE",
"538 273 CURVE"
);
},
{
closed = 1;
nodes = (
"183 109 OFFCURVE",
"196 186 OFFCURVE",
"225 307 CURVE SMOOTH",
"250 411 OFFCURVE",
"297 589 OFFCURVE",
"327 700 CURVE",
"229 700 LINE",
"215 609 OFFCURVE",
"186 503 OFFCURVE",
"156 384 CURVE SMOOTH",
"111 207 OFFCURVE",
"87 133 OFFCURVE",
"45 0 CURVE",
"168 0 LINE"
);
},
{
closed = 1;
nodes = (
"557 0 LINE",
"516 123 OFFCURVE",
"490 207 OFFCURVE",
"441 384 CURVE SMOOTH",
"408 503 OFFCURVE",
"382 609 OFFCURVE",
"368 700 CURVE",
"265 700 LINE",
"295 589 OFFCURVE",
"342 411 OFFCURVE",
"367 307 CURVE SMOOTH",
"396 186 OFFCURVE",
"414 109 OFFCURVE",
"434 0 CURVE"
);
},
{
closed = 1;
nodes = (
"250 273 LINE",
"250 191 LINE",
"483 181 LINE",
"493 198 OFFCURVE",
"501 219 OFFCURVE",
"505 246 CURVE",
"502 256 OFFCURVE",
"497 265 OFFCURVE",
"491 273 CURVE"
);
}
);
width = 615;
},
{
anchors = (
{
name = bottom;
position = "{303, 0}";
},
{
name = ogonek;
position = "{549, 10}";
},
{
name = top;
position = "{303, 700}";
}
);
associatedMasterId = "99397DCC-BAAE-47D6-813A-D8EE2FB228A7";
backgroundImage = {
crop = "{{0, 0}, {36.72, 56.28}}";
imagePath = "../../Desktop/_ONGOING FONTS/LETTERSCANS/a.jpg";
locked = "1";
transform = "{16.52479, 0, 0, 16.52479, 4, -104}";
};
layerId = "DB9E0010-59AD-4C7E-8107-EF248BB795D7";
name = "Apr 18 19, 22:33";
paths = (
{
closed = 1;
nodes = (
"178 109 OFFCURVE",
"191 186 OFFCURVE",
"220 307 CURVE SMOOTH",
"245 411 OFFCURVE",
"292 589 OFFCURVE",
"322 700 CURVE",
"224 700 LINE",
"210 609 OFFCURVE",
"181 503 OFFCURVE",
"151 384 CURVE SMOOTH",
"106 207 OFFCURVE",
"82 133 OFFCURVE",
"40 0 CURVE",
"163 0 LINE"
);
},
{
closed = 1;
nodes = (
"552 0 LINE",
"511 123 OFFCURVE",
"485 207 OFFCURVE",
"436 384 CURVE SMOOTH",
"403 503 OFFCURVE",
"377 609 OFFCURVE",
"363 700 CURVE",
"260 700 LINE",
"290 589 OFFCURVE",
"337 411 OFFCURVE",
"362 307 CURVE SMOOTH",
"391 186 OFFCURVE",
"409 109 OFFCURVE",
"429 0 CURVE"
);
},
{
closed = 1;
nodes = (
"171 273 LINE",
"171 197 LINE",
"508 188 LINE",
"518 205 OFFCURVE",
"526 219 OFFCURVE",
"530 246 CURVE",
"527 256 OFFCURVE",
"522 265 OFFCURVE",
"516 273 CURVE"
);
}
);
width = 592;
},
{
anchors = (
{
name = bottom;
position = "{278, 0}";
},
{
name = ogonek;
position = "{470, 0}";
},
{
name = top;
position = "{272, 700}";
}
);
associatedMasterId = "99397DCC-BAAE-47D6-813A-D8EE2FB228A7";
components = (
{
name = V;
transform = "{-1, 0, 0, -1, 563, 700}";
}
);
layerId = "26684308-7BA6-43B0-9469-D68FB0F7C285";
name = "Jan 8 20, 20:51";
paths = (
{
closed = 1;
nodes = (
"152 273 LINE",
"152 192 LINE",
"489 183 LINE",
"499 200 OFFCURVE",
"507 219 OFFCURVE",
"511 246 CURVE",
"508 256 OFFCURVE",
"503 265 OFFCURVE",
"497 273 CURVE"
);
}
);
width = 563;
},
{
anchors = (
{
name = bottom;
position = "{282, 0}";
},
{
name = ogonek;
position = "{485, 0}";
},
{
name = top;
position = "{282, 700}";
}
);
components = (
{
name = V;
transform = "{-1, 0, 0, -1, 573, 700}";
}
);
layerId = "02616952-E7A2-434B-B5AA-0FE61E2963BC";
paths = (
{
closed = 1;
nodes = (
"410 283 LINE",
"142 283 LINE",
"142 172 LINE",
"411 165 LINE"
);
}
);
width = 573;
},
{
anchors = (
{
name = bottom;
position = "{278, 0}";
},
{
name = ogonek;
position = "{475, 0}";
},
{
name = top;
position = "{272, 700}";
}
);
associatedMasterId = "99397DCC-BAAE-47D6-813A-D8EE2FB228A7";
components = (
{
name = V;
transform = "{-1, 0, 0, -1, 563, 700}";
}
);
guideLines = (
{
position = "{261, 700}";
},
{
position = "{538, 0}";
}
);
layerId = "33D8516C-DA77-492C-A8B6-4DE6C04E9E18";
name = "May 16 20, 13:53";
paths = (
{
closed = 1;
nodes = (
"420 273 LINE",
"152 273 LINE",
"152 192 LINE",
"421 185 LINE"
);
}
);
width = 563;
},
{
anchors = (
{
name = bottom;
position = "{312, 0}";
},
{
name = ogonek;
position = "{535, 0}";
},
{
name = top;
position = "{312, 700}";
}
);
associatedMasterId = "02616952-E7A2-434B-B5AA-0FE61E2963BC";
components = (
{
name = V;
transform = "{-1, 0, 0, -1, 633, 700}";
}
);
layerId = "8E076688-C6BD-4861-843D-BA1C68F51200";
name = "May 16 20, 13:53";
paths = (
{
closed = 1;
nodes = (
"440 283 LINE",
"172 283 LINE",
"172 172 LINE",
"441 165 LINE"
);
}
);
width = 623;
}
);
leftKerningGroup = A;
rightKerningGroup = A;
unicode = 0041;
},
{
color = 4;
glyphname = AE;
lastChange = "2025-09-23 11:08:22 +0000";
layers = (
{
anchors = (
{
name = bottom;
position = "{368, 0}";
},
{
name = top;
position = "{368, 700}";
}
);
components = (
{
name = _part.barra;
transform = "{1, 0, 0, 1, 280, 0}";
}
);
guideLines = (
{
angle = 90;
position = "{447, 0}";
}
);
layerId = "99397DCC-BAAE-47D6-813A-D8EE2FB228A7";
paths = (
{
closed = 1;
nodes = (
"146 0 LINE",
"161 109 OFFCURVE",
"174 186 OFFCURVE",
"203 307 CURVE SMOOTH",
"228 411 OFFCURVE",
"275 589 OFFCURVE",
"305 700 CURVE",
"209 700 LINE",
"195 609 OFFCURVE",
"166 503 OFFCURVE",
"136 384 CURVE SMOOTH",
"91 207 OFFCURVE",
"67 133 OFFCURVE",
"25 0 CURVE"
);
},
{
closed = 1;
nodes = (
"398 273 LINE",
"154 273 LINE",
"154 197 LINE",
"398 190 LINE"
);
},
{
closed = 1;
nodes = (
"683 0 LINE",
"693 17 OFFCURVE",
"701 38 OFFCURVE",
"705 65 CURVE",
"702 75 OFFCURVE",
"697 84 OFFCURVE",
"691 92 CURVE",
"388 82 LINE",
"388 0 LINE"
);
},
{
closed = 1;
nodes = (
"594 319 OFFCURVE",
"606 340 OFFCURVE",
"613 363 CURVE",
"603 393 LINE",
"388 383 LINE",
"388 304 LINE",
"575 294 LINE"
);
},
{
closed = 1;
nodes = (
"416 617 LINE",
"416 700 LINE",
"232 700 LINE",
"237 609 LINE"
);
},
{
closed = 1;
nodes = (
"688 625 OFFCURVE",
"696 646 OFFCURVE",
"700 673 CURVE",
"686 700 LINE",
"388 700 LINE",
"388 618 LINE",
"678 608 LINE"
);
}
);
width = 735;
},
{
anchors = (
{
name = bottom;
position = "{393, 0}";
},
{
name = top;
position = "{393, 700}";
}
);
components = (
{
name = _part.barra;
transform = "{1, 0, 0, 1, 300, 0}";
}
);
guideLines = (
{
angle = 90;
position = "{370, 0}";
}
);
layerId = "02616952-E7A2-434B-B5AA-0FE61E2963BC";
paths = (
{
closed = 1;
nodes = (
"186 0 LINE",
"201 109 OFFCURVE",
"214 186 OFFCURVE",
"243 307 CURVE SMOOTH",
"268 411 OFFCURVE",
"315 589 OFFCURVE",
"345 700 CURVE",
"199 700 LINE",
"185 609 OFFCURVE",
"156 503 OFFCURVE",
"126 384 CURVE SMOOTH",
"81 207 OFFCURVE",
"57 133 OFFCURVE",
"15 0 CURVE"
);
},
{
closed = 1;
nodes = (
"428 283 LINE",
"184 283 LINE",
"184 167 LINE",
"428 160 LINE"
);
},
{
closed = 1;
nodes = (
"737 0 LINE",
"747 17 OFFCURVE",
"755 48 OFFCURVE",
"759 85 CURVE",
"756 105 OFFCURVE",
"751 124 OFFCURVE",
"745 142 CURVE",
"432 122 LINE",
"432 0 LINE"
);
},
{
closed = 1;
nodes = (
"698 299 OFFCURVE",
"710 330 OFFCURVE",
"717 363 CURVE",
"707 413 LINE",
"432 403 LINE",
"432 284 LINE",
"679 274 LINE"
);
},
{
closed = 1;
nodes = (
"446 577 LINE",
"446 700 LINE",
"262 700 LINE",
"270 558 LINE"
);
},
{
closed = 1;
nodes = (
"759 585 OFFCURVE",
"767 616 OFFCURVE",
"771 653 CURVE",
"757 700 LINE",
"429 700 LINE",
"427 578 LINE",
"749 558 LINE"
);
}
);
width = 786;
}
);
leftKerningGroup = A;
leftMetricsKey = A;
rightKerningGroup = E;
rightMetricsKey = E;
unicode = 00C6;
},
{
color = 4;
glyphname = B;
lastChange = "2025-09-23 11:08:53 +0000";
layers = (
{
anchors = (
{
name = bottom;
position = "{265, 0}";
},
{
name = top;
position = "{265, 700}";
}
);
components = (
{
name = _part.barra;
transform = "{1, 0, 0, 1, -15, 0}";
}
);
layerId = "99397DCC-BAAE-47D6-813A-D8EE2FB228A7";
paths = (
{
closed = 1;
nodes = (
"267 349 LINE",
"338 382 OFFCURVE",
"386 470 OFFCURVE",
"396 519 CURVE",
"396 566 OFFCURVE",
"364 638 OFFCURVE",
"315 698 CURVE",
"228 717 OFFCURVE",
"137 713 OFFCURVE",
"45 700 CURVE",
"60 606 LINE",
"158 628 OFFCURVE",
"222 634 OFFCURVE",
"262 625 CURVE",
"283 595 OFFCURVE",
"297 568 OFFCURVE",
"304 529 CURVE",
"294 481 OFFCURVE",
"278 441 OFFCURVE",
"267 427 CURVE",
"67 435 LINE",
"75 343 LINE"
);
},
{
closed = 1;
nodes = (
"246 0 LINE SMOOTH",
"289 0 OFFCURVE",
"335 8 OFFCURVE",
"361 19 CURVE",
"391 44 OFFCURVE",
"406 65 OFFCURVE",
"420 91 CURVE SMOOTH",
"435 117 OFFCURVE",
"453 180 OFFCURVE",
"453 264 CURVE",
"442 287 OFFCURVE",
"424 317 OFFCURVE",
"387 344 CURVE SMOOTH",
"348 372 OFFCURVE",
"313 398 OFFCURVE",
"241 396 CURVE",
"218 348 LINE",
"255 348 OFFCURVE",
"323 303 OFFCURVE",
"355 251 CURVE",
"355 203 OFFCURVE",
"340 140 OFFCURVE",
"332 122 CURVE SMOOTH",
"322 99 OFFCURVE",
"310 86 OFFCURVE",
"299 79 CURVE",
"223 76 OFFCURVE",
"153 83 OFFCURVE",
"124 98 CURVE",
"123 0 LINE"
);
}
);
width = 488;
},
{
anchors = (
{
name = bottom;
position = "{285, 0}";
},
{
name = top;
position = "{285, 700}";
}
);
annotations = (
{
position = "{219.034, 739.358}";
type = Plus;
},
{
position = "{238.234, 231.729}";
type = Plus;
}
);
associatedMasterId = "99397DCC-BAAE-47D6-813A-D8EE2FB228A7";
backgroundImage = {
crop = "{{0, 0}, {36.72, 51.84}}";
imagePath = "../../Desktop/_ONGOING FONTS/LETTERSCANS/b-2.jpg";
locked = "1";
transform = "{16.45892, 0, 0, 16.45892, 14, -74}";
};
layerId = "5D6C23F3-DE68-4972-A16B-17D701764460";
name = "Apr 19 19, 18:14";
paths = (
{
closed = 1;
nodes = (
"171 0 LINE",
"165 70 OFFCURVE",
"161 111 OFFCURVE",
"161 210 CURVE SMOOTH",
"161 378 OFFCURVE",
"170 586 OFFCURVE",
"175 714 CURVE",
"65 685 LINE",
"69 556 OFFCURVE",
"77 435 OFFCURVE",
"77 297 CURVE SMOOTH",
"77 188 OFFCURVE",
"71 99 OFFCURVE",
"68 0 CURVE"
);
},
{
closed = 1;
nodes = (
"46 0 LINE",
"382 0 LINE",
"382 70 LINE",
"45 96 LINE"
);
},
{
closed = 1;
nodes = (
"447 235 LINE",
"449 155 LINE",
"529 127 LINE",
"532 163 OFFCURVE",
"529 229 OFFCURVE",
"529 265 CURVE SMOOTH",
"529 301 OFFCURVE",
"404 357 OFFCURVE",
"356 392 CURVE",
"299 345 LINE"
);
},
{
closed = 1;
nodes = (
"382 0 LINE",
"421 0 OFFCURVE",
"496 77 OFFCURVE",
"529 127 CURVE",
"449 155 LINE",
"361 63 LINE"
);
},
{
closed = 1;
nodes = (
"259 622 LINE",
"344 622 OFFCURVE",
"415 577 OFFCURVE",
"415 558 CURVE SMOOTH",
"415 473 OFFCURVE",
"415 450 OFFCURVE",
"415 413 CURVE",
"457 412 LINE",
"499 411 LINE",
"499 499 OFFCURVE",
"499 436 OFFCURVE",
"499 568 CURVE SMOOTH",
"499 639 OFFCURVE",
"359 719 OFFCURVE",
"261 719 CURVE"
);
},
{
closed = 1;
nodes = (
"282 271 LINE",
"371 311 OFFCURVE",
"439 338 OFFCURVE",
"499 411 CURVE",
"415 443 LINE",
"274 355 LINE",
"132 355 LINE",
"130 271 LINE"
);
},
{
closed = 1;
nodes = (
"344 686 LINE",
"333 696 OFFCURVE",
"278 719 OFFCURVE",
"261 719 CURVE SMOOTH",
"234 719 OFFCURVE",
"179 669 OFFCURVE",
"124 622 CURVE",
"114 586 OFFCURVE",
"108 545 OFFCURVE",
"90 501 CURVE",
"136 448 LINE",
"142 475 OFFCURVE",
"147 503 OFFCURVE",
"149 529 CURVE",
"170 550 OFFCURVE",
"182 566 OFFCURVE",
"211 593 CURVE SMOOTH",
"227 607 OFFCURVE",
"242 622 OFFCURVE",
"259 622 CURVE",
"276 622 LINE"
);
}
);
width = 570;
},
{
anchors = (
{
name = bottom;
position = "{285, 0}";
},
{
name = top;
position = "{285, 700}";
}
);
associatedMasterId = "99397DCC-BAAE-47D6-813A-D8EE2FB228A7";
components = (
{
name = _part.barra;
transform = "{1, 0, 0, 1, 5, 0}";
},
{
name = _part.bucle;
}
);
layerId = "AED59149-9C11-402B-A009-21F1C2850E1E";
name = "Oct 4 19, 22:22";
paths = (
{
closed = 1;
nodes = (
"45 0 LINE",
"369 0 LINE",
"379 70 LINE",
"45 96 LINE"
);
},
{
closed = 1;
nodes = (
"341 305 LINE",
"372 287 OFFCURVE",
"390 269 OFFCURVE",
"419 235 CURVE",
"425 223 OFFCURVE",
"427 211 OFFCURVE",
"427 199 CURVE SMOOTH",
"427 188 OFFCURVE",
"425 176 OFFCURVE",
"421 165 CURVE",
"385 124 OFFCURVE",
"349 94 OFFCURVE",
"313 73 CURVE",
"369 0 LINE",
"428 30 OFFCURVE",
"479 77 OFFCURVE",
"512 127 CURVE",
"518 150 OFFCURVE",
"521 173 OFFCURVE",
"521 196 CURVE SMOOTH",
"521 219 OFFCURVE",
"518 242 OFFCURVE",
"512 265 CURVE",
"481 301 OFFCURVE",
"437 337 OFFCURVE",
"394 363 CURVE"
);
}
);
width = 550;
},
{
anchors = (
{
name = bottom;
position = "{255, 0}";
},
{
name = top;
position = "{255, 700}";
}
);
components = (
{
name = _part.barra;
transform = "{1, 0, 0, 1, -25, 0}";
}
);
layerId = "02616952-E7A2-434B-B5AA-0FE61E2963BC";
paths = (
{
closed = 1;
nodes = (
"292 339 LINE",
"360 339 OFFCURVE",
"441 438 OFFCURVE",
"471 510 CURVE",
"461 578 OFFCURVE",
"430 653 OFFCURVE",
"394 698 CURVE",
"307 717 OFFCURVE",
"127 713 OFFCURVE",
"35 700 CURVE",
"50 557 LINE",
"131 585 OFFCURVE",
"234 594 OFFCURVE",
"306 582 CURVE",
"316 562 OFFCURVE",
"324 540 OFFCURVE",
"329 519 CURVE",
"323 484 OFFCURVE",
"306 453 OFFCURVE",
"292 437 CURVE",
"77 445 LINE",
"85 328 LINE"
);
},
{
closed = 1;
nodes = (
"297 0 LINE SMOOTH",
"341 0 OFFCURVE",
"389 8 OFFCURVE",
"416 19 CURVE",
"446 44 OFFCURVE",
"461 65 OFFCURVE",
"475 91 CURVE SMOOTH",
"490 117 OFFCURVE",
"518 180 OFFCURVE",
"518 264 CURVE",
"508 303 OFFCURVE",
"492 329 OFFCURVE",
"458 349 CURVE SMOOTH",
"391 389 OFFCURVE",
"319 402 OFFCURVE",
"261 396 CURVE",
"223 338 LINE",
"289 338 OFFCURVE",
"338 304 OFFCURVE",
"367 253 CURVE",
"367 225 OFFCURVE",
"358 190 OFFCURVE",
"351 172 CURVE SMOOTH",
"342 149 OFFCURVE",
"329 136 OFFCURVE",
"318 129 CURVE",
"227 125 OFFCURVE",
"150 155 OFFCURVE",
"114 188 CURVE",
"113 0 LINE"
);
}
);
width = 538;
},
{
anchors = (
{
name = bottom;
position = "{280, 0}";
},
{
name = top;
position = "{280, 700}";
}
);
associatedMasterId = "99397DCC-BAAE-47D6-813A-D8EE2FB228A7";
backgroundImage = {
crop = "{{0, 0}, {41.28, 56.4}}";
imagePath = "../../Desktop/Documents/PERSONAL TYPEFACES/CANARINA/_LETTERSCANS-NEWNEW/B-newnew.jpg";
locked = "1";
transform = "{16.12271, 0, 0, 16.12271, -92, -87}";
};
components = (
{
name = _part.barra;
}
);
layerId = "6DA04CD9-3C21-450D-BE21-B2A972074154";
name = "May 16 20, 15:31";
paths = (
{
closed = 1;
nodes = (
"21 607 LINE",
"128 631 OFFCURVE",
"276 645 OFFCURVE",
"313 632 CURVE",
"286 655 LINE",
"315 599 OFFCURVE",
"334 557 OFFCURVE",
"344 519 CURVE",
"334 493 OFFCURVE",
"327 479 OFFCURVE",
"321 469 CURVE SMOOTH",
"312 456 OFFCURVE",
"303 449 OFFCURVE",
"280 439 CURVE",
"244 430 OFFCURVE",
"176 431 OFFCURVE",
"132 431 CURVE",
"130 328 LINE",
"207 335 OFFCURVE",
"319 356 OFFCURVE",
"346 372 CURVE SMOOTH",
"365 383 OFFCURVE",
"385 407 OFFCURVE",
"396 419 CURVE SMOOTH",
"407 431 OFFCURVE",
"436 482 OFFCURVE",
"436 507 CURVE SMOOTH",
"436 532 OFFCURVE",
"372 687 OFFCURVE",
"359 698 CURVE SMOOTH",
"346 709 OFFCURVE",
"304 713 OFFCURVE",
"253 713 CURVE",
"21 702 LINE"
);
},
{
closed = 1;
nodes = (
"335 0 OFFCURVE",
"385 6 OFFCURVE",
"401 19 CURVE SMOOTH",
"431 44 OFFCURVE",
"446 65 OFFCURVE",
"460 91 CURVE SMOOTH",
"475 117 OFFCURVE",
"493 180 OFFCURVE",
"493 264 CURVE SMOOTH",
"493 283 OFFCURVE",
"443 319 OFFCURVE",
"433 329 CURVE SMOOTH",
"423 339 OFFCURVE",
"367 380 OFFCURVE",
"309 394 CURVE",
"236 356 LINE",
"287 342 OFFCURVE",
"361 284 OFFCURVE",
"386 262 CURVE",
"392 243 LINE",
"386 185 OFFCURVE",
"378 141 OFFCURVE",
"372 122 CURVE",
"339 79 LINE",
"248 75 OFFCURVE",
"165 85 OFFCURVE",
"139 88 CURVE",
"138 0 LINE",
"286 0 LINE SMOOTH"
);
}
);
width = 527;
},
{
anchors = (
{
name = bottom;
position = "{284, 0}";
},
{
name = top;
position = "{284, 700}";
}
);
associatedMasterId = "99397DCC-BAAE-47D6-813A-D8EE2FB228A7";
backgroundImage = {
crop = "{{0, 0}, {41.28, 56.4}}";
imagePath = "../../Desktop/Documents/PERSONAL TYPEFACES/CANARINA/_LETTERSCANS-NEWNEW/B-newnew.jpg";
locked = "1";
transform = "{16.12271, 0, 0, 16.12271, -88, -87}";
};
components = (
{
name = _part.barra;
transform = "{1, 0, 0, 1, 4, 0}";
}
);
layerId = "01A7B978-2F6C-437F-8D3C-BF02B96F6B60";
name = "May 17 20, 15:11";
paths = (
{
closed = 1;
nodes = (
"216 340 OFFCURVE",
"298 356 OFFCURVE",
"325 372 CURVE SMOOTH",
"365 395 OFFCURVE",
"415 469 OFFCURVE",
"415 507 CURVE SMOOTH",
"415 532 OFFCURVE",
"353 695 OFFCURVE",
"338 698 CURVE SMOOTH",
"251 717 OFFCURVE",
"112 715 OFFCURVE",
"20 702 CURVE",
"20 597 LINE",
"127 621 OFFCURVE",
"255 635 OFFCURVE",
"292 622 CURVE",
"265 655 LINE",
"294 599 OFFCURVE",
"313 557 OFFCURVE",
"323 519 CURVE",
"313 493 OFFCURVE",
"306 479 OFFCURVE",
"300 469 CURVE SMOOTH",
"291 456 OFFCURVE",
"282 449 OFFCURVE",
"259 439 CURVE",
"223 430 OFFCURVE",
"180 431 OFFCURVE",
"135 431 CURVE",
"135 333 LINE"
);
},
{
closed = 1;
nodes = (
"265 0 LINE SMOOTH",
"314 0 OFFCURVE",
"364 6 OFFCURVE",
"380 19 CURVE SMOOTH",
"410 44 OFFCURVE",
"425 65 OFFCURVE",
"439 91 CURVE SMOOTH",
"454 117 OFFCURVE",
"472 180 OFFCURVE",
"472 264 CURVE SMOOTH",
"472 279 OFFCURVE",
"443 317 OFFCURVE",
"406 344 CURVE",
"367 371 OFFCURVE",
"320 386 OFFCURVE",
"288 394 CURVE",
"215 356 LINE",
"266 342 OFFCURVE",
"340 284 OFFCURVE",
"365 262 CURVE",
"371 243 LINE",
"365 185 OFFCURVE",
"356 140 OFFCURVE",
"351 122 CURVE SMOOTH",
"344 98 OFFCURVE",
"329 86 OFFCURVE",
"318 79 CURVE",
"227 75 OFFCURVE",
"169 95 OFFCURVE",
"143 98 CURVE",
"142 0 LINE"
);
}
);
width = 497;
},
{
anchors = (
{
name = bottom;
position = "{284, 0}";
},
{
name = top;
position = "{284, 700}";
}
);
associatedMasterId = "99397DCC-BAAE-47D6-813A-D8EE2FB228A7";
backgroundImage = {
crop = "{{0, 0}, {41.28, 56.4}}";
imagePath = "../../Desktop/Documents/PERSONAL TYPEFACES/CANARINA/_LETTERSCANS-NEWNEW/B-newnew.jpg";
locked = "1";
transform = "{16.12271, 0, 0, 16.12271, -88, -87}";
};
components = (
{
name = _part.barra;
transform = "{1, 0, 0, 1, 4, 0}";
}
);
layerId = "1148EAEE-3E08-4D60-9DC7-B257D6B136FC";
name = "May 18 20, 22:02";
paths = (
{
closed = 1;
nodes = (
"216 340 OFFCURVE",
"265 348 OFFCURVE",
"295 362 CURVE SMOOTH",
"366 395 OFFCURVE",
"405 470 OFFCURVE",
"415 519 CURVE",
"415 544 OFFCURVE",
"349 695 OFFCURVE",
"334 698 CURVE SMOOTH",
"247 717 OFFCURVE",
"112 715 OFFCURVE",
"20 702 CURVE",
"20 597 LINE",
"127 621 OFFCURVE",
"255 635 OFFCURVE",
"292 622 CURVE",
"265 655 LINE",
"294 599 OFFCURVE",
"313 567 OFFCURVE",
"323 529 CURVE",
"313 481 OFFCURVE",
"301 454 OFFCURVE",
"290 440 CURVE",
"244 431 OFFCURVE",
"200 431 OFFCURVE",
"135 431 CURVE",
"135 333 LINE"
);
},
{
closed = 1;
nodes = (
"265 0 LINE SMOOTH",
"314 0 OFFCURVE",
"364 6 OFFCURVE",
"380 19 CURVE SMOOTH",
"410 44 OFFCURVE",
"425 65 OFFCURVE",
"439 91 CURVE SMOOTH",
"454 117 OFFCURVE",
"472 180 OFFCURVE",
"472 264 CURVE SMOOTH",
"472 279 OFFCURVE",
"443 317 OFFCURVE",
"406 344 CURVE",
"367 371 OFFCURVE",
"240 385 OFFCURVE",
"168 383 CURVE",
"145 335 LINE",
"276 331 OFFCURVE",
"340 284 OFFCURVE",
"365 262 CURVE",
"371 243 LINE",
"365 185 OFFCURVE",
"356 140 OFFCURVE",
"351 122 CURVE SMOOTH",
"344 98 OFFCURVE",
"329 86 OFFCURVE",
"318 79 CURVE",
"227 75 OFFCURVE",
"169 95 OFFCURVE",
"143 98 CURVE",
"142 0 LINE"
);
},
{
closed = 1;
nodes = (
"286 349 LINE",
"286 427 LINE",
"86 435 LINE",
"94 343 LINE"
);
}
);
width = 497;
},
{
anchors = (
{
name = bottom;
position = "{284, 0}";
},
{
name = top;
position = "{284, 700}";
}
);
associatedMasterId = "99397DCC-BAAE-47D6-813A-D8EE2FB228A7";
backgroundImage = {
crop = "{{0, 0}, {41.28, 56.4}}";
imagePath = "../../Desktop/Documents/PERSONAL TYPEFACES/CANARINA/_LETTERSCANS-NEWNEW/B-newnew.jpg";
locked = "1";
transform = "{16.12271, 0, 0, 16.12271, -88, -87}";
};
components = (
{
name = _part.barra;
transform = "{1, 0, 0, 1, 4, 0}";
}
);
layerId = "F52D44D1-4A76-4AC4-BCB6-48501982EAF2";
name = "Jan 22 21, 09:15";
paths = (
{
closed = 1;
nodes = (
"286 349 LINE",
"357 382 OFFCURVE",
"405 470 OFFCURVE",
"415 519 CURVE",
"415 544 OFFCURVE",
"349 695 OFFCURVE",
"334 698 CURVE SMOOTH",
"247 717 OFFCURVE",
"112 715 OFFCURVE",
"20 702 CURVE",
"20 597 LINE",
"127 621 OFFCURVE",
"255 635 OFFCURVE",
"292 622 CURVE",
"265 655 LINE",
"294 599 OFFCURVE",
"313 567 OFFCURVE",
"323 529 CURVE",
"313 481 OFFCURVE",
"297 441 OFFCURVE",
"286 427 CURVE"
);
},
{
closed = 1;
nodes = (
"265 0 LINE SMOOTH",
"314 0 OFFCURVE",
"364 6 OFFCURVE",
"380 19 CURVE SMOOTH",
"410 44 OFFCURVE",
"425 65 OFFCURVE",
"439 91 CURVE SMOOTH",
"454 117 OFFCURVE",
"472 180 OFFCURVE",
"472 264 CURVE SMOOTH",
"472 279 OFFCURVE",
"443 317 OFFCURVE",
"406 344 CURVE SMOOTH",
"367 372 OFFCURVE",
"332 398 OFFCURVE",
"260 396 CURVE",
"237 348 LINE",
"274 348 OFFCURVE",
"342 303 OFFCURVE",
"374 251 CURVE",
"374 203 OFFCURVE",
"359 140 OFFCURVE",
"351 122 CURVE SMOOTH",
"341 99 OFFCURVE",
"329 86 OFFCURVE",
"318 79 CURVE",
"227 75 OFFCURVE",
"169 95 OFFCURVE",
"143 98 CURVE",
"142 0 LINE"
);
},
{
closed = 1;
nodes = (
"286 349 LINE",
"286 427 LINE",
"86 435 LINE",
"94 343 LINE"
);
}
);
width = 497;
}
);
leftKerningGroup = H;
leftMetricsKey = H;
rightKerningGroup = B;
unicode = 0042;
},
{
color = 4;
glyphname = C;
lastChange = "2025-10-02 14:35:42 +0000";
layers = (
{
associatedMasterId = "99397DCC-BAAE-47D6-813A-D8EE2FB228A7";
layerId = "1A9411DF-1AEA-48F2-B55A-726D95ADAEB7";
name = "Mar 6 19, 11:23";
paths = (
{
closed = 1;
nodes = (
"451 697 OFFCURVE",
"427 710 OFFCURVE",
"410 710 CURVE SMOOTH",
"336 710 OFFCURVE",
"242 693 OFFCURVE",
"187 646 CURVE SMOOTH",
"120 588 OFFCURVE",
"30 275 OFFCURVE",
"30 107 CURVE SMOOTH",
"30 55 OFFCURVE",
"94 0 OFFCURVE",
"136 0 CURVE SMOOTH",
"178 0 OFFCURVE",
"390 -1 OFFCURVE",
"413 -1 CURVE SMOOTH",
"436 -1 OFFCURVE",
"531 58 OFFCURVE",
"540 82 CURVE SMOOTH",
"549 106 OFFCURVE",
"504 276 OFFCURVE",
"479 308 CURVE",
"404 274 LINE",
"420 213 OFFCURVE",
"450 180 OFFCURVE",
"451 90 CURVE",
"399 75 OFFCURVE",
"383 68 OFFCURVE",
"302 68 CURVE SMOOTH",
"217 68 OFFCURVE",
"166 77 OFFCURVE",
"155 84 CURVE SMOOTH",
"144 91 OFFCURVE",
"125 111 OFFCURVE",
"125 165 CURVE SMOOTH",
"125 219 OFFCURVE",
"167 519 OFFCURVE",
"250 610 CURVE",
"370 643 LINE",
"378 623 LINE",
"464 657 LINE",
"463 690 LINE"
);
},
{
closed = 1;
nodes = (
"378 565 OFFCURVE",
"378 534 OFFCURVE",
"378 518 CURVE SMOOTH",
"378 502 OFFCURVE",
"378 490 OFFCURVE",
"397 496 CURVE SMOOTH",
"416 502 OFFCURVE",
"463 518 OFFCURVE",
"463 544 CURVE SMOOTH",
"463 570 OFFCURVE",
"463 635 OFFCURVE",
"463 662 CURVE",
"378 647 LINE",
"378 633 LINE",
"378 622 OFFCURVE",
"378 613 OFFCURVE",
"378 608 CURVE"
);
}
);
width = 571;
},
{
anchors = (
{
name = bottom;
position = "{288, 0}";
},
{
name = top;
position = "{288, 700}";
}
);
associatedMasterId = "99397DCC-BAAE-47D6-813A-D8EE2FB228A7";
layerId = "A809AE24-0396-4B7D-B101-D0E7F77B16B3";
name = "Apr 18 19, 19:17";
paths = (
{
closed = 1;
nodes = (
"461 697 OFFCURVE",
"437 710 OFFCURVE",
"420 710 CURVE SMOOTH",
"346 710 OFFCURVE",
"242 693 OFFCURVE",
"187 646 CURVE SMOOTH",
"120 588 OFFCURVE",
"30 295 OFFCURVE",
"30 127 CURVE SMOOTH",
"30 100 OFFCURVE",
"63 72 OFFCURVE",
"86 46 CURVE SMOOTH",
"106 23 OFFCURVE",
"116 0 OFFCURVE",
"136 0 CURVE SMOOTH",
"178 0 OFFCURVE",
"400 -1 OFFCURVE",
"423 -1 CURVE SMOOTH",
"446 -1 OFFCURVE",
"541 58 OFFCURVE",
"550 82 CURVE SMOOTH",
"559 106 OFFCURVE",
"544 206 OFFCURVE",
"519 248 CURVE",
"504 248 OFFCURVE",
"487 245 OFFCURVE",
"473 238 CURVE SMOOTH",
"460 232 OFFCURVE",
"452 226 OFFCURVE",
"444 214 CURVE",
"460 153 OFFCURVE",
"463 130 OFFCURVE",
"461 90 CURVE",
"409 75 OFFCURVE",
"393 68 OFFCURVE",
"312 68 CURVE SMOOTH",
"227 68 OFFCURVE",
"196 77 OFFCURVE",
"185 84 CURVE SMOOTH",
"180 87 OFFCURVE",
"171 99 OFFCURVE",
"160 110 CURVE SMOOTH",
"148 123 OFFCURVE",
"135 136 OFFCURVE",
"135 159 CURVE SMOOTH",
"135 213 OFFCURVE",
"177 519 OFFCURVE",
"260 610 CURVE",
"380 643 LINE",
"388 623 LINE",
"474 657 LINE",
"473 690 LINE"
);
},
{
closed = 1;
nodes = (
"388 565 OFFCURVE",
"388 534 OFFCURVE",
"388 518 CURVE SMOOTH",
"388 502 OFFCURVE",
"388 490 OFFCURVE",
"407 496 CURVE SMOOTH",
"426 502 OFFCURVE",
"473 518 OFFCURVE",
"473 544 CURVE SMOOTH",
"473 570 OFFCURVE",
"473 630 OFFCURVE",
"474 657 CURVE",
"388 647 LINE",
"388 633 LINE",
"388 622 OFFCURVE",
"388 613 OFFCURVE",
"388 608 CURVE"
);
}
);
width = 576;
},
{
anchors = (
{
name = bottom;
position = "{288, 0}";
},
{
name = top;
position = "{288, 700}";
}
);
associatedMasterId = "99397DCC-BAAE-47D6-813A-D8EE2FB228A7";
layerId = "ACFDC223-21BB-43E8-B62E-374C83F0DCDA";
name = "Apr 19 19, 21:34";
paths = (
{
closed = 1;
nodes = (
"286 626 LINE",
"320 626 OFFCURVE",
"338 621 OFFCURVE",
"363 607 CURVE",
"362 533 LINE",
"449 563 LINE",
"449 679 LINE",
"394 699 OFFCURVE",
"337 710 OFFCURVE",
"286 710 CURVE",
"266 701 LINE"
);
},
{
closed = 1;
nodes = (
"42 69 OFFCURVE",
"85 31 OFFCURVE",
"141 0 CURVE",
"182 -4 OFFCURVE",
"235 -5 OFFCURVE",
"283 -5 CURVE SMOOTH",
"374 -5 OFFCURVE",
"414 0 OFFCURVE",
"478 17 CURVE",
"497 48 OFFCURVE",
"510 80 OFFCURVE",
"519 121 CURVE",
"519 206 LINE",
"421 181 LINE",
"421 108 LINE",
"373 85 OFFCURVE",
"345 78 OFFCURVE",
"283 78 CURVE SMOOTH",
"235 78 OFFCURVE",
"204 87 OFFCURVE",
"193 94 CURVE SMOOTH",
"171 108 OFFCURVE",
"154 125 OFFCURVE",
"133 154 CURVE",
"133 223 OFFCURVE",
"150 395 OFFCURVE",
"230 607 CURVE",
"249 618 OFFCURVE",
"268 626 OFFCURVE",
"286 626 CURVE",
"286 710 LINE",
"243 710 OFFCURVE",
"192 699 OFFCURVE",
"157 679 CURVE",
"100 586 OFFCURVE",
"30 285 OFFCURVE",
"20 117 CURVE"
);
}
);
width = 534;
},
{
anchors = (
{
name = bottom;
position = "{288, 0}";
},
{
name = top;
position = "{288, 700}";
}
);
associatedMasterId = "99397DCC-BAAE-47D6-813A-D8EE2FB228A7";
layerId = "12A10540-F1AA-41C6-97AB-DD9C366D3AC6";
name = "Apr 21 19, 21:45";
paths = (
{
closed = 1;
nodes = (
"42 69 OFFCURVE",
"61 48 OFFCURVE",
"101 17 CURVE",
"152 0 OFFCURVE",
"215 -11 OFFCURVE",
"283 -11 CURVE SMOOTH",
"374 -11 OFFCURVE",
"414 0 OFFCURVE",
"478 17 CURVE",
"497 48 OFFCURVE",
"510 80 OFFCURVE",
"519 121 CURVE",
"519 206 LINE",
"421 181 LINE",
"421 108 LINE",
"373 85 OFFCURVE",
"345 78 OFFCURVE",
"283 78 CURVE SMOOTH",
"235 78 OFFCURVE",
"204 87 OFFCURVE",
"193 94 CURVE SMOOTH",
"171 108 OFFCURVE",
"154 125 OFFCURVE",
"133 154 CURVE",
"133 223 OFFCURVE",
"150 395 OFFCURVE",
"230 607 CURVE",
"249 618 OFFCURVE",
"268 626 OFFCURVE",
"286 626 CURVE SMOOTH",
"320 626 OFFCURVE",
"338 621 OFFCURVE",
"363 607 CURVE",
"362 533 LINE",
"449 563 LINE",
"449 679 LINE",
"394 699 OFFCURVE",
"337 710 OFFCURVE",
"286 710 CURVE SMOOTH",
"243 710 OFFCURVE",
"192 699 OFFCURVE",
"157 679 CURVE",
"100 586 OFFCURVE",
"30 285 OFFCURVE",
"20 117 CURVE"
);
}
);
width = 534;
},
{
anchors = (
{
name = bottom;
position = "{288, 0}";
},
{
name = top;
position = "{288, 700}";
}
);
associatedMasterId = "99397DCC-BAAE-47D6-813A-D8EE2FB228A7";
layerId = "6ACD7831-47B5-4B17-8D59-5CC1CE9E2122";
name = "Apr 21 19, 21:49";
paths = (
{
closed = 1;
nodes = (
"55 99 OFFCURVE",
"98 45 OFFCURVE",
"144 5 CURVE",
"214 -4 OFFCURVE",
"264 -5 OFFCURVE",
"313 -5 CURVE SMOOTH",
"377 -5 OFFCURVE",
"396 -4 OFFCURVE",
"463 5 CURVE",
"492 35 OFFCURVE",
"510 80 OFFCURVE",
"519 121 CURVE",
"519 206 LINE",
"421 181 LINE",
"421 108 LINE",
"385 91 OFFCURVE",
"344 83 OFFCURVE",
"313 83 CURVE SMOOTH",
"264 83 OFFCURVE",
"207 95 OFFCURVE",
"196 100 CURVE",
"163 142 OFFCURVE",
"155 155 OFFCURVE",
"136 208 CURVE",
"142 294 OFFCURVE",
"176 438 OFFCURVE",
"240 607 CURVE",
"259 618 OFFCURVE",
"278 626 OFFCURVE",
"296 626 CURVE SMOOTH",
"330 626 OFFCURVE",
"348 621 OFFCURVE",
"373 607 CURVE",
"372 533 LINE",
"459 563 LINE",
"459 679 LINE",
"404 699 OFFCURVE",
"347 710 OFFCURVE",
"296 710 CURVE SMOOTH",
"253 710 OFFCURVE",
"202 699 OFFCURVE",
"167 679 CURVE",
"117 597 OFFCURVE",
"45 341 OFFCURVE",
"23 169 CURVE"
);
}
);
width = 534;
},
{
anchors = (
{
name = bottom;
position = "{266, 0}";
},
{
name = top;
position = "{296, 700}";
}
);
associatedMasterId = "99397DCC-BAAE-47D6-813A-D8EE2FB228A7";
components = (
{
name = _part.cg;
}
);
layerId = "7498C34A-9848-49EA-9A99-EFAE557C6266";
name = "Jan 13 20, 11:38";
paths = (
{
closed = 1;
nodes = (
"461 36 OFFCURVE",
"498 95 OFFCURVE",
"504 135 CURVE",
"503 162 OFFCURVE",
"500 205 OFFCURVE",
"497 226 CURVE",
"396 200 LINE",
"408 162 OFFCURVE",
"409 92 OFFCURVE",
"401 72 CURVE",
"429 5 LINE"
);
},
{
closed = 1;
nodes = (
"345 679 LINE",
"343 533 LINE",
"440 563 LINE",
"430 679 LINE"
);
}
);
width = 522;
},
{
anchors = (
{
name = bottom;
position = "{266, 0}";
},
{
name = top;
position = "{296, 700}";
}
);
associatedMasterId = "99397DCC-BAAE-47D6-813A-D8EE2FB228A7";
layerId = "3006DF81-CC46-41C6-96C5-9612E3E7BF2B";
name = "Jan 13 20, 12:04";
paths = (
{
closed = 1;
nodes = (
"451 36 OFFCURVE",
"488 95 OFFCURVE",
"494 135 CURVE",
"493 162 OFFCURVE",
"485 233 OFFCURVE",
"478 269 CURVE",
"379 244 LINE",
"387 209 OFFCURVE",
"396 141 OFFCURVE",
"396 92 CURVE",
"419 5 LINE"
);
},
{
closed = 1;
nodes = (
"355 679 LINE",
"353 533 LINE",
"440 563 LINE",
"430 679 LINE"
);
},
{
closed = 1;
nodes = (
"375 699 OFFCURVE",
"338 710 OFFCURVE",
"277 710 CURVE SMOOTH",
"234 710 OFFCURVE",
"203 699 OFFCURVE",
"168 679 CURVE",
"122 603 OFFCURVE",
"45 446 OFFCURVE",
"30 279 CURVE SMOOTH",
"29 268 OFFCURVE",
"26 237 OFFCURVE",
"25 223 CURVE",
"27 208 OFFCURVE",
"29 199 OFFCURVE",
"33 185 CURVE SMOOTH",
"57 100 OFFCURVE",
"94 40 OFFCURVE",
"135 5 CURVE",
"177 -4 OFFCURVE",
"230 -5 OFFCURVE",
"279 -5 CURVE SMOOTH",
"341 -5 OFFCURVE",
"388 -4 OFFCURVE",
"419 5 CURVE",
"419 100 LINE",
"396 100 LINE",
"357 88 OFFCURVE",
"320 83 OFFCURVE",
"279 83 CURVE SMOOTH",
"240 83 OFFCURVE",
"204 88 OFFCURVE",
"179 100 CURVE",
"146 138 OFFCURVE",
"128 181 OFFCURVE",
"119 244 CURVE",
"125 330 OFFCURVE",
"168 482 OFFCURVE",
"229 611 CURVE",
"248 622 OFFCURVE",
"265 626 OFFCURVE",
"283 626 CURVE SMOOTH",
"305 626 OFFCURVE",
"331 622 OFFCURVE",
"356 611 CURVE",
"430 679 LINE"
);
}
);
width = 519;
},
{
anchors = (
{
name = bottom;
position = "{266, 0}";
},
{
name = top;
position = "{296, 700}";
}
);
associatedMasterId = "99397DCC-BAAE-47D6-813A-D8EE2FB228A7";
layerId = "D7BDA72F-DDA0-4E1C-B14D-CF8EBB205640";
name = "Jan 13 20, 12:04";
paths = (
{
closed = 1;
nodes = (
"451 36 OFFCURVE",
"488 95 OFFCURVE",
"494 135 CURVE",
"493 162 OFFCURVE",
"485 233 OFFCURVE",
"478 269 CURVE",
"379 244 LINE",
"387 209 OFFCURVE",
"396 141 OFFCURVE",
"396 92 CURVE",
"419 5 LINE"
);
},
{
closed = 1;
nodes = (
"355 679 LINE",
"353 533 LINE",
"440 563 LINE",
"430 679 LINE"
);
},
{
closed = 1;
nodes = (
"375 699 OFFCURVE",
"338 710 OFFCURVE",
"277 710 CURVE SMOOTH",
"234 710 OFFCURVE",
"203 699 OFFCURVE",
"168 679 CURVE",
"122 603 OFFCURVE",
"45 446 OFFCURVE",
"30 279 CURVE SMOOTH",
"29 268 OFFCURVE",
"26 237 OFFCURVE",
"25 223 CURVE",
"27 208 OFFCURVE",
"29 199 OFFCURVE",
"33 185 CURVE SMOOTH",
"57 100 OFFCURVE",
"94 40 OFFCURVE",
"135 5 CURVE",
"177 -4 OFFCURVE",
"230 -5 OFFCURVE",
"279 -5 CURVE SMOOTH",
"341 -5 OFFCURVE",
"388 -4 OFFCURVE",
"419 5 CURVE",
"419 100 LINE",
"396 100 LINE",
"357 88 OFFCURVE",
"320 83 OFFCURVE",
"279 83 CURVE SMOOTH",
"240 83 OFFCURVE",
"204 88 OFFCURVE",
"179 100 CURVE",
"146 138 OFFCURVE",
"128 181 OFFCURVE",
"119 244 CURVE",
"125 330 OFFCURVE",
"168 482 OFFCURVE",
"229 611 CURVE",
"248 622 OFFCURVE",
"265 626 OFFCURVE",
"283 626 CURVE SMOOTH",
"305 626 OFFCURVE",
"331 622 OFFCURVE",
"356 611 CURVE",
"430 679 LINE"
);
}
);
width = 519;
},
{
anchors = (
{
name = bottom;
position = "{243, 0}";
},
{
name = top;
position = "{255, 700}";
}
);
guideLines = (
{
position = "{71, 288}";
}
);
layerId = "99397DCC-BAAE-47D6-813A-D8EE2FB228A7";
paths = (
{
closed = 1;
nodes = (
"321 -10 OFFCURVE",
"340 -6 OFFCURVE",
"361 0 CURVE",
"398 97 LINE",
"340 82 OFFCURVE",
"298 80 OFFCURVE",
"266 80 CURVE SMOOTH",
"224 80 OFFCURVE",
"181 88 OFFCURVE",
"144 114 CURVE",
"223 43 LINE",
"177 111 OFFCURVE",
"132 200 OFFCURVE",
"118 288 CURVE",
"134 408 OFFCURVE",
"183 551 OFFCURVE",
"218 613 CURVE",
"238 620 OFFCURVE",
"255 623 OFFCURVE",
"276 623 CURVE SMOOTH",
"297 623 OFFCURVE",
"314 620 OFFCURVE",
"335 613 CURVE",
"399 683 LINE",
"356 700 OFFCURVE",
"321 710 OFFCURVE",
"276 710 CURVE SMOOTH",
"238 710 OFFCURVE",
"195 703 OFFCURVE",
"157 683 CURVE",
"93 594 OFFCURVE",
"31 424 OFFCURVE",
"24 288 CURVE",
"36 174 OFFCURVE",
"87 68 OFFCURVE",
"144 0 CURVE",
"172 -6 OFFCURVE",
"226 -10 OFFCURVE",
"266 -10 CURVE SMOOTH"
);
},
{
closed = 1;
nodes = (
"407 45 OFFCURVE",
"441 102 OFFCURVE",
"446 135 CURVE",
"445 169 OFFCURVE",
"442 205 OFFCURVE",
"439 226 CURVE",
"338 200 LINE",
"350 161 OFFCURVE",
"348 110 OFFCURVE",
"333 72 CURVE",
"361 0 LINE"
);
},
{
closed = 1;
nodes = (
"419 553 LINE",
"399 683 LINE",
"324 679 LINE",
"322 523 LINE"
);
}
);
width = 466;
},
{
anchors = (
{
name = bottom;
position = "{266, 0}";
},
{
name = top;
position = "{296, 700}";
}
);
associatedMasterId = "99397DCC-BAAE-47D6-813A-D8EE2FB228A7";
components = (
{
name = _part.cg;
}
);
layerId = "8BD2AB61-870D-4484-BCE5-936F01FC13A9";
name = "Jan 13 20, 12:06";
paths = (
{
closed = 1;
nodes = (
"458 36 OFFCURVE",
"488 95 OFFCURVE",
"494 135 CURVE",
"493 162 OFFCURVE",
"485 233 OFFCURVE",
"478 269 CURVE",
"379 244 LINE",
"387 209 OFFCURVE",
"396 141 OFFCURVE",
"396 92 CURVE",
"429 5 LINE"
);
},
{
closed = 1;
nodes = (
"345 679 LINE",
"343 533 LINE",
"440 563 LINE",
"430 679 LINE"
);
}
);
width = 514;
},
{
anchors = (
{
name = bottom;
position = "{266, 0}";
},
{
name = top;
position = "{296, 700}";
}
);
associatedMasterId = "99397DCC-BAAE-47D6-813A-D8EE2FB228A7";
components = (
{
name = _part.cg;
}
);
layerId = "3A234FBC-1FE3-48B7-8322-48CE2A99E7AA";
name = "Jan 13 20, 12:11";
paths = (
{
closed = 1;
nodes = (
"395 194 LINE",
"396 184 OFFCURVE",
"397 173 OFFCURVE",
"397 160 CURVE SMOOTH",
"397 137 OFFCURVE",
"395 113 OFFCURVE",
"391 92 CURVE",
"429 5 LINE",
"458 36 OFFCURVE",
"488 95 OFFCURVE",
"494 135 CURVE",
"494 168 OFFCURVE",
"493 191 OFFCURVE",
"492 214 CURVE"
);
},
{
closed = 1;
nodes = (
"345 679 LINE",
"343 523 LINE",
"440 553 LINE",
"430 679 LINE"
);
}
);
width = 514;
},
{
anchors = (
{
name = bottom;
position = "{258, 0}";
},
{
name = top;
position = "{281, 710}";
}
);
layerId = "02616952-E7A2-434B-B5AA-0FE61E2963BC";
paths = (
{
closed = 1;
nodes = (
"354 -5 OFFCURVE",
"402 5 OFFCURVE",
"434 20 CURVE",
"434 140 LINE",
"386 130 OFFCURVE",
"340 120 OFFCURVE",
"314 120 CURVE SMOOTH",
"264 120 OFFCURVE",
"204 130 OFFCURVE",
"163 146 CURVE",
"297 63 LINE",
"233 113 OFFCURVE",
"185 206 OFFCURVE",
"176 294 CURVE",
"189 401 OFFCURVE",
"220 512 OFFCURVE",
"256 571 CURVE",
"267 576 OFFCURVE",
"283 579 OFFCURVE",
"301 579 CURVE SMOOTH",
"319 579 OFFCURVE",
"337 576 OFFCURVE",
"351 571 CURVE",
"445 683 LINE",
"392 700 OFFCURVE",
"350 710 OFFCURVE",
"310 710 CURVE SMOOTH",
"250 710 OFFCURVE",
"189 699 OFFCURVE",
"158 683 CURVE",
"94 610 OFFCURVE",
"20 375 OFFCURVE",
"20 279 CURVE",
"20 209 OFFCURVE",
"75 60 OFFCURVE",
"135 10 CURVE",
"177 1 OFFCURVE",
"220 -5 OFFCURVE",
"314 -5 CURVE SMOOTH"
);
},
{
closed = 1;
nodes = (
"465 53 OFFCURVE",
"483 93 OFFCURVE",
"489 135 CURVE",
"487 177 OFFCURVE",
"485 218 OFFCURVE",
"482 236 CURVE",
"331 200 LINE",
"346 153 OFFCURVE",
"348 102 OFFCURVE",
"336 72 CURVE",
"434 20 LINE"
);
},
{
closed = 1;
nodes = (
"465 523 LINE",
"445 683 LINE",
"340 679 LINE",
"338 493 LINE"
);
}
);
width = 504;
},
{
anchors = (
{
name = bottom;
position = "{262, 0}";
},
{
name = top;
position = "{282, 710}";
}
);
associatedMasterId = "02616952-E7A2-434B-B5AA-0FE61E2963BC";
layerId = "7DFA2902-A7F9-4CD3-BACB-AE71C6E15C88";
name = "May 16 20, 13:29";
paths = (
{
closed = 1;
nodes = (
"355 220 LINE",
"356 180 OFFCURVE",
"356 169 OFFCURVE",
"356 154 CURVE SMOOTH",
"356 131 OFFCURVE",
"354 112 OFFCURVE",
"351 92 CURVE",
"424 5 LINE",
"453 36 OFFCURVE",
"483 95 OFFCURVE",
"489 135 CURVE",
"489 198 OFFCURVE",
"488 221 OFFCURVE",
"487 244 CURVE"
);
},
{
closed = 1;
nodes = (
"325 679 LINE",
"323 493 LINE",
"450 523 LINE",
"440 683 LINE"
);
},
{
closed = 1;
nodes = (
"387 700 OFFCURVE",
"345 710 OFFCURVE",
"305 710 CURVE SMOOTH",
"214 710 OFFCURVE",
"181 703 OFFCURVE",
"143 683 CURVE",
"97 607 OFFCURVE",
"45 446 OFFCURVE",
"30 279 CURVE SMOOTH",
"29 268 OFFCURVE",
"26 237 OFFCURVE",
"25 223 CURVE",
"27 208 OFFCURVE",
"29 199 OFFCURVE",
"33 185 CURVE SMOOTH",
"57 100 OFFCURVE",
"94 40 OFFCURVE",
"135 5 CURVE",
"177 -4 OFFCURVE",
"200 -10 OFFCURVE",
"294 -10 CURVE SMOOTH",
"366 -10 OFFCURVE",
"393 -4 OFFCURVE",
"424 5 CURVE",
"424 140 LINE",
"381 140 LINE",
"367 129 OFFCURVE",
"332 122 OFFCURVE",
"293 122 CURVE SMOOTH",
"276 122 OFFCURVE",
"250 124 OFFCURVE",
"238 130 CURVE",
"205 168 OFFCURVE",
"191 191 OFFCURVE",
"182 254 CURVE",
"188 340 OFFCURVE",
"198 442 OFFCURVE",
"249 571 CURVE",
"262 579 OFFCURVE",
"280 583 OFFCURVE",
"299 583 CURVE SMOOTH",
"321 583 OFFCURVE",
"343 577 OFFCURVE",
"366 561 CURVE",
"440 683 LINE"
);
}
);
width = 504;
},
{
anchors = (
{
name = bottom;
position = "{269, 0}";
},
{
name = top;
position = "{299, 700}";
}
);
associatedMasterId = "99397DCC-BAAE-47D6-813A-D8EE2FB228A7";
layerId = "79E33B1B-0573-46F1-BCDB-C45079052AA7";
name = "May 16 20, 13:58";
paths = (
{
closed = 1;
nodes = (
"313 679 LINE",
"311 523 LINE",
"408 553 LINE",
"398 683 LINE"
);
},
{
closed = 1;
nodes = (
"345 700 OFFCURVE",
"303 710 OFFCURVE",
"263 710 CURVE SMOOTH",
"227 710 OFFCURVE",
"189 703 OFFCURVE",
"151 683 CURVE",
"105 607 OFFCURVE",
"45 446 OFFCURVE",
"30 279 CURVE SMOOTH",
"29 268 OFFCURVE",
"26 237 OFFCURVE",
"25 223 CURVE",
"27 208 OFFCURVE",
"29 199 OFFCURVE",
"33 185 CURVE SMOOTH",
"57 100 OFFCURVE",
"97 40 OFFCURVE",
"138 5 CURVE",
"180 -4 OFFCURVE",
"223 -5 OFFCURVE",
"262 -5 CURVE SMOOTH",
"304 -5 OFFCURVE",
"351 -4 OFFCURVE",
"382 5 CURVE",
"382 100 LINE",
"379 100 LINE",
"340 88 OFFCURVE",
"283 83 OFFCURVE",
"262 83 CURVE SMOOTH",
"233 83 OFFCURVE",
"207 88 OFFCURVE",
"182 100 CURVE",
"149 138 OFFCURVE",
"131 181 OFFCURVE",
"122 244 CURVE",
"128 330 OFFCURVE",
"156 482 OFFCURVE",
"217 611 CURVE",
"234 619 OFFCURVE",
"249 623 OFFCURVE",
"266 623 CURVE SMOOTH",
"283 623 OFFCURVE",
"301 619 OFFCURVE",
"324 611 CURVE",
"398 683 LINE"
);
},
{
closed = 1;
nodes = (
"371 135 OFFCURVE",
"371 95 OFFCURVE",
"371 35 CURVE",
"382 5 LINE",
"414 33 OFFCURVE",
"436 60 OFFCURVE",
"455 101 CURVE",
"457 257 LINE",
"351 224 LINE"
);
}
);
width = 478;
},
{
anchors = (
{
name = bottom;
position = "{262, 0}";
},
{
name = top;
position = "{282, 710}";
}
);
associatedMasterId = "02616952-E7A2-434B-B5AA-0FE61E2963BC";
layerId = "B9C338FA-739E-40CE-899B-6573BEE7C73D";
name = "May 16 20, 13:58";
paths = (
{
closed = 1;
nodes = (
"325 679 LINE",
"323 493 LINE",
"450 523 LINE",
"440 683 LINE"
);
},
{
closed = 1;
nodes = (
"387 700 OFFCURVE",
"345 710 OFFCURVE",
"305 710 CURVE SMOOTH",
"214 710 OFFCURVE",
"181 703 OFFCURVE",
"143 683 CURVE",
"97 607 OFFCURVE",
"45 446 OFFCURVE",
"30 279 CURVE SMOOTH",
"29 268 OFFCURVE",
"26 237 OFFCURVE",
"25 223 CURVE",
"27 208 OFFCURVE",
"29 199 OFFCURVE",
"33 185 CURVE SMOOTH",
"57 100 OFFCURVE",
"94 40 OFFCURVE",
"135 5 CURVE",
"177 -4 OFFCURVE",
"205 -10 OFFCURVE",
"299 -10 CURVE SMOOTH",
"376 -10 OFFCURVE",
"408 -4 OFFCURVE",
"439 5 CURVE",
"439 140 LINE",
"396 140 LINE",
"382 129 OFFCURVE",
"342 122 OFFCURVE",
"298 122 CURVE SMOOTH",
"281 122 OFFCURVE",
"250 124 OFFCURVE",
"238 130 CURVE",
"205 168 OFFCURVE",
"191 191 OFFCURVE",
"182 254 CURVE",
"188 340 OFFCURVE",
"198 442 OFFCURVE",
"249 571 CURVE",
"262 579 OFFCURVE",
"280 583 OFFCURVE",
"299 583 CURVE SMOOTH",
"321 583 OFFCURVE",
"343 577 OFFCURVE",
"366 561 CURVE",
"440 683 LINE"
);
},
{
closed = 1;
nodes = (
"388 165 OFFCURVE",
"393 95 OFFCURVE",
"393 35 CURVE",
"439 5 LINE",
"471 33 OFFCURVE",
"493 60 OFFCURVE",
"512 101 CURVE",
"514 287 LINE",
"368 254 LINE"
);
}
);
width = 529;
},
{
anchors = (
{
name = bottom;
position = "{262, 0}";
},
{
name = top;
position = "{282, 710}";
}
);
associatedMasterId = "02616952-E7A2-434B-B5AA-0FE61E2963BC";
layerId = "612DC8C9-D6E1-46A5-A948-94162B3FBDF0";
name = "May 16 20, 17:01";
paths = (
{
closed = 1;
nodes = (
"366 -10 OFFCURVE",
"398 -4 OFFCURVE",
"429 5 CURVE",
"429 140 LINE",
"386 140 LINE",
"372 129 OFFCURVE",
"332 122 OFFCURVE",
"298 122 CURVE SMOOTH",
"281 122 OFFCURVE",
"250 124 OFFCURVE",
"238 130 CURVE",
"205 168 OFFCURVE",
"191 191 OFFCURVE",
"182 254 CURVE",
"188 340 OFFCURVE",
"198 437 OFFCURVE",
"249 566 CURVE",
"262 574 OFFCURVE",
"280 578 OFFCURVE",
"299 578 CURVE SMOOTH",
"341 578 OFFCURVE",
"363 572 OFFCURVE",
"386 556 CURVE",
"460 683 LINE",
"407 700 OFFCURVE",
"355 710 OFFCURVE",
"295 710 CURVE SMOOTH",
"244 710 OFFCURVE",
"181 703 OFFCURVE",
"143 683 CURVE",
"97 607 OFFCURVE",
"45 446 OFFCURVE",
"30 279 CURVE SMOOTH",
"29 268 OFFCURVE",
"26 237 OFFCURVE",
"25 223 CURVE",
"27 208 OFFCURVE",
"29 199 OFFCURVE",
"33 185 CURVE SMOOTH",
"57 100 OFFCURVE",
"94 40 OFFCURVE",
"135 5 CURVE",
"177 -4 OFFCURVE",
"205 -10 OFFCURVE",
"299 -10 CURVE SMOOTH"
);
},
{
closed = 1;
nodes = (
"470 523 LINE",
"460 683 LINE",
"345 679 LINE",
"343 493 LINE"
);
},
{
closed = 1;
nodes = (
"461 36 OFFCURVE",
"498 95 OFFCURVE",
"504 135 CURVE",
"503 162 OFFCURVE",
"500 205 OFFCURVE",
"497 226 CURVE",
"346 200 LINE",
"358 162 OFFCURVE",
"359 92 OFFCURVE",
"351 72 CURVE",
"429 5 LINE"
);
}
);
width = 529;
},
{
anchors = (
{
name = bottom;
position = "{262, 0}";
},
{
name = top;
position = "{282, 710}";
}
);
associatedMasterId = "02616952-E7A2-434B-B5AA-0FE61E2963BC";
layerId = "A173080F-2506-45E9-8EC4-7DF87EB47643";
name = "May 16 20, 17:09";
paths = (
{
closed = 1;
nodes = (
"366 -10 OFFCURVE",
"398 -4 OFFCURVE",
"429 5 CURVE",
"429 140 LINE",
"386 140 LINE",
"372 129 OFFCURVE",
"332 122 OFFCURVE",
"298 122 CURVE SMOOTH",
"281 122 OFFCURVE",
"250 124 OFFCURVE",
"238 130 CURVE",
"205 168 OFFCURVE",
"191 191 OFFCURVE",
"182 254 CURVE",
"188 340 OFFCURVE",
"198 437 OFFCURVE",
"249 566 CURVE",
"262 574 OFFCURVE",
"280 578 OFFCURVE",
"299 578 CURVE SMOOTH",
"341 578 OFFCURVE",
"363 572 OFFCURVE",
"386 556 CURVE",
"460 683 LINE",
"407 700 OFFCURVE",
"355 710 OFFCURVE",
"295 710 CURVE SMOOTH",
"244 710 OFFCURVE",
"181 703 OFFCURVE",
"143 683 CURVE",
"97 607 OFFCURVE",
"45 446 OFFCURVE",
"30 279 CURVE SMOOTH",
"29 268 OFFCURVE",
"26 237 OFFCURVE",
"25 223 CURVE",
"27 208 OFFCURVE",
"29 199 OFFCURVE",
"33 185 CURVE SMOOTH",
"57 100 OFFCURVE",
"94 40 OFFCURVE",
"135 5 CURVE",
"177 -4 OFFCURVE",
"205 -10 OFFCURVE",
"299 -10 CURVE SMOOTH"
);
},
{
closed = 1;
nodes = (
"470 523 LINE",
"460 683 LINE",
"345 679 LINE",
"343 493 LINE"
);
},
{
closed = 1;
nodes = (
"461 36 OFFCURVE",
"498 95 OFFCURVE",
"504 135 CURVE",
"503 162 OFFCURVE",
"500 205 OFFCURVE",
"497 226 CURVE",
"346 200 LINE",
"358 162 OFFCURVE",
"359 92 OFFCURVE",
"351 72 CURVE",
"429 5 LINE"
);
}
);
width = 529;
}
);
leftKerningGroup = O;
leftMetricsKey = O;
rightKerningGroup = G;
unicode = 0043;
},
{
color = 4;
glyphname = D;
lastChange = "2025-09-23 11:08:22 +0000";
layers = (
{
anchors = (
{
name = bottom;
position = "{238, 0}";
},
{
name = center;
position = "{161, 350}";
},
{
name = top;
position = "{185, 700}";
}
);
components = (
{
name = _part.barra;
transform = "{1, 0, 0, 1, -15, 0}";
}
);
layerId = "99397DCC-BAAE-47D6-813A-D8EE2FB228A7";
paths = (
{
closed = 1;
nodes = (
"266 0 LINE",
"304 10 OFFCURVE",
"330 26 OFFCURVE",
"358 56 CURVE",
"398 120 OFFCURVE",
"457 288 OFFCURVE",
"457 392 CURVE SMOOTH",
"457 442 OFFCURVE",
"412 598 OFFCURVE",
"296 689 CURVE",
"240 704 OFFCURVE",
"189 710 OFFCURVE",
"151 710 CURVE SMOOTH",
"110 710 OFFCURVE",
"92 708 OFFCURVE",
"45 700 CURVE",
"69 604 LINE",
"121 627 OFFCURVE",
"211 627 OFFCURVE",
"295 604 CURVE",
"211 629 LINE",
"287 601 OFFCURVE",
"323 534 OFFCURVE",
"361 412 CURVE",
"361 306 OFFCURVE",
"328 173 OFFCURVE",
"254 40 CURVE",
"321 88 LINE",
"241 88 OFFCURVE",
"152 92 OFFCURVE",
"98 98 CURVE",
"95 0 LINE"
);
}
);
width = 482;
},
{
anchors = (
{
name = bottom;
position = "{236, 0}";
},
{
name = center;
position = "{127, 350}";
},
{
name = top;
position = "{193, 700}";
}
);
components = (
{
name = _part.barra;
transform = "{1, 0, 0, 1, -25, 0}";
}
);
layerId = "02616952-E7A2-434B-B5AA-0FE61E2963BC";
paths = (
{
closed = 1;
nodes = (
"296 0 LINE",
"344 10 OFFCURVE",
"379 29 OFFCURVE",
"403 56 CURVE",
"443 120 OFFCURVE",
"507 288 OFFCURVE",
"507 392 CURVE SMOOTH",
"507 481 OFFCURVE",
"443 602 OFFCURVE",
"346 694 CURVE",
"321 706 OFFCURVE",
"280 712 OFFCURVE",
"220 712 CURVE SMOOTH",
"171 712 OFFCURVE",
"110 708 OFFCURVE",
"35 700 CURVE",
"59 577 LINE",
"127 592 OFFCURVE",
"243 595 OFFCURVE",
"347 586 CURVE",
"216 619 LINE",
"282 591 OFFCURVE",
"318 534 OFFCURVE",
"356 412 CURVE",
"356 306 OFFCURVE",
"323 173 OFFCURVE",
"249 40 CURVE",
"336 128 LINE",
"241 128 OFFCURVE",
"142 132 OFFCURVE",
"88 138 CURVE",
"85 0 LINE"
);
}
);
width = 522;
},
{
associatedMasterId = "99397DCC-BAAE-47D6-813A-D8EE2FB228A7";
backgroundImage = {
crop = "{{0, 0}, {40.32, 50.4}}";
imagePath = "../../Desktop/Documents/PERSONAL TYPEFACES/CANARINA/_LETTERSCANS-NEWNEW/D-newnew.jpg";
locked = "1";
transform = "{16.65042, 0, 0, 16.65042, -93, -49}";
};
components = (
{
name = _part.barra;
transform = "{1, 0, 0, 1, 5, 0}";
}
);
layerId = "A9C11A9B-92B2-4270-AAAC-E7F94338C3B8";
name = "May 16 20, 15:48";
paths = (
{
closed = 1;
nodes = (
"115 0 LINE",
"281 0 LINE",
"333 30 OFFCURVE",
"447 161 OFFCURVE",
"515 386 CURVE",
"492 516 OFFCURVE",
"368 657 OFFCURVE",
"321 690 CURVE SMOOTH",
"274 723 OFFCURVE",
"182 724 OFFCURVE",
"18 707 CURVE",
"16 604 LINE",
"35 607 OFFCURVE",
"158 616 OFFCURVE",
"287 608 CURVE",
"340 577 OFFCURVE",
"388 500 OFFCURVE",
"422 397 CURVE",
"416 341 OFFCURVE",
"339 201 OFFCURVE",
"269 89 CURVE",
"242 91 OFFCURVE",
"172 92 OFFCURVE",
"118 98 CURVE"
);
}
);
width = 600;
},
{
associatedMasterId = "99397DCC-BAAE-47D6-813A-D8EE2FB228A7";
backgroundImage = {
crop = "{{0, 0}, {40.32, 50.4}}";
imagePath = "../../Desktop/Documents/PERSONAL TYPEFACES/CANARINA/_LETTERSCANS-NEWNEW/D-newnew.jpg";
locked = "1";
transform = "{16.65042, 0, 0, 16.65042, -92, -49}";
};
components = (
{
name = _part.barra;
transform = "{1, 0, 0, 1, 6, 0}";
}
);
layerId = "7C8C8BB5-D829-4DC8-9824-03F7AEABA4B2";
name = "May 16 20, 16:15";
paths = (
{
closed = 1;
nodes = (
"116 0 LINE",
"312 0 LINE",
"350 10 OFFCURVE",
"380 29 OFFCURVE",
"404 56 CURVE",
"444 120 OFFCURVE",
"486 297 OFFCURVE",
"486 392 CURVE",
"463 516 OFFCURVE",
"369 657 OFFCURVE",
"322 690 CURVE SMOOTH",
"275 723 OFFCURVE",
"206 724 OFFCURVE",
"42 707 CURVE",
"40 604 LINE",
"59 607 OFFCURVE",
"139 616 OFFCURVE",
"268 608 CURVE",
"321 577 OFFCURVE",
"353 510 OFFCURVE",
"387 402 CURVE",
"387 296 OFFCURVE",
"384 173 OFFCURVE",
"300 60 CURVE",
"347 88 LINE",
"347 91 OFFCURVE",
"182 91 OFFCURVE",
"119 98 CURVE"
);
}
);
width = 511;
}
);
leftKerningGroup = H;
leftMetricsKey = H;
rightKerningGroup = O;
unicode = 0044;
},
{
color = 4;
glyphname = E;
lastChange = "2025-09-23 11:09:18 +0000";
layers = (
{
anchors = (
{
name = bottom;
position = "{240, 0}";
},
{
name = ogonek;
position = "{365, 0}";
},
{
name = top;
position = "{240, 700}";
},
{
name = topleft;
position = "{20, 700}";
}
);
components = (
{
name = _part.barra;
transform = "{1, 0, 0, 1, -15, 0}";
}
);
layerId = "99397DCC-BAAE-47D6-813A-D8EE2FB228A7";
paths = (
{
closed = 1;
nodes = (
"433 625 OFFCURVE",
"441 646 OFFCURVE",
"445 673 CURVE",
"431 700 LINE",
"93 700 LINE",
"93 618 LINE",
"423 608 LINE"
);
},
{
closed = 1;
nodes = (
"428 0 LINE",
"438 17 OFFCURVE",
"446 38 OFFCURVE",
"450 65 CURVE",
"447 75 OFFCURVE",
"442 84 OFFCURVE",
"436 92 CURVE",
"93 82 LINE",
"93 0 LINE"
);
},
{
closed = 1;
nodes = (
"309 319 OFFCURVE",
"321 340 OFFCURVE",
"328 363 CURVE",
"318 393 LINE",
"93 383 LINE",
"93 304 LINE",
"290 294 LINE"
);
}
);
width = 480;
},
{
anchors = (
{
name = bottom;
position = "{246, 0}";
},
{
name = ogonek;
position = "{369, 0}";
},
{
name = top;
position = "{246, 700}";
},
{
name = topleft;
position = "{20, 700}";
}
);
components = (
{
name = _part.barra;
transform = "{1, 0, 0, 1, -25, 0}";
}
);
guideLines = (
{
angle = 90;
position = "{382, 363}";
}
);
layerId = "02616952-E7A2-434B-B5AA-0FE61E2963BC";
paths = (
{
closed = 1;
nodes = (
"464 585 OFFCURVE",
"472 616 OFFCURVE",
"476 653 CURVE",
"462 700 LINE",
"104 700 LINE",
"102 578 LINE",
"454 558 LINE"
);
},
{
closed = 1;
nodes = (
"442 0 LINE",
"452 17 OFFCURVE",
"460 48 OFFCURVE",
"464 85 CURVE",
"461 105 OFFCURVE",
"456 124 OFFCURVE",
"450 142 CURVE",
"107 122 LINE",
"107 0 LINE"
);
},
{
closed = 1;
nodes = (
"373 299 OFFCURVE",
"385 330 OFFCURVE",
"392 363 CURVE",
"382 413 LINE",
"107 403 LINE",
"107 284 LINE",
"354 274 LINE"
);
}
);
width = 491;
}
);
leftKerningGroup = H;
leftMetricsKey = H;
rightKerningGroup = E;
unicode = 0045;
},
{
color = 4;
glyphname = Eopen;
lastChange = "2025-09-23 11:08:22 +0000";
layers = (
{
layerId = "99397DCC-BAAE-47D6-813A-D8EE2FB228A7";
paths = (
{
closed = 1;
nodes = (
"207 386 LINE",
"153 426 OFFCURVE",
"123 488 OFFCURVE",
"118 558 CURVE",
"138 612 OFFCURVE",
"194 625 OFFCURVE",
"241 625 CURVE SMOOTH",
"288 625 OFFCURVE",
"330 612 OFFCURVE",
"370 573 CURVE",
"446 649 LINE",
"385 695 OFFCURVE",
"328 710 OFFCURVE",
"244 710 CURVE",
"157 710 OFFCURVE",
"60 669 OFFCURVE",
"25 583 CURVE",
"25 445 OFFCURVE",
"98 366 OFFCURVE",
"144 343 CURVE"
);
},
{
closed = 1;
nodes = (
"289 -10 OFFCURVE",
"362 -2 OFFCURVE",
"398 5 CURVE",
"379 92 LINE",
"318 82 OFFCURVE",
"284 79 OFFCURVE",
"245 79 CURVE SMOOTH",
"202 79 OFFCURVE",
"157 83 OFFCURVE",
"125 93 CURVE",
"194 61 LINE",
"147 107 OFFCURVE",
"122 138 OFFCURVE",
"122 199 CURVE SMOOTH",
"122 240 OFFCURVE",
"152 289 OFFCURVE",
"198 321 CURVE",
"147 378 LINE",
"111 342 OFFCURVE",
"29 288 OFFCURVE",
"29 183 CURVE SMOOTH",
"29 126 OFFCURVE",
"52 53 OFFCURVE",
"94 18 CURVE",
"120 5 OFFCURVE",
"180 -10 OFFCURVE",
"227 -10 CURVE SMOOTH"
);
},
{
closed = 1;
nodes = (
"430 36 OFFCURVE",
"467 95 OFFCURVE",
"473 135 CURVE",
"472 162 OFFCURVE",
"469 205 OFFCURVE",
"466 226 CURVE",
"365 200 LINE",
"377 162 OFFCURVE",
"383 114 OFFCURVE",
"370 72 CURVE",
"398 5 LINE"
);
},
{
closed = 1;
nodes = (
"368 329 OFFCURVE",
"380 350 OFFCURVE",
"387 403 CURVE",
"142 393 LINE",
"142 324 LINE",
"349 304 LINE"
);
},
{
closed = 1;
nodes = (
"456 533 LINE",
"446 649 LINE",
"360 593 LINE",
"359 503 LINE"
);
}
);
width = 508;
},
{
associatedMasterId = "99397DCC-BAAE-47D6-813A-D8EE2FB228A7";
backgroundImage = {
crop = "{{0, 0}, {32.16, 52.32}}";
imagePath = "../../Desktop/_ONGOING FONTS/_scans-newnew/epsiloncap.jpg";
locked = "1";
transform = "{16.42598, 0, 0, 16.42598, 0, -121}";
};
layerId = "2F53BC73-C8C4-49D9-9BA5-1FABE5118D2D";
name = "Nov 26 19, 16:20";
paths = (
{
closed = 1;
nodes = (
"80 126 OFFCURVE",
"103 53 OFFCURVE",
"145 18 CURVE SMOOTH",
"161 5 OFFCURVE",
"211 -10 OFFCURVE",
"258 -10 CURVE SMOOTH",
"320 -10 OFFCURVE",
"403 -2 OFFCURVE",
"429 5 CURVE",
"410 92 LINE",
"379 85 OFFCURVE",
"335 82 OFFCURVE",
"296 82 CURVE SMOOTH",
"265 82 OFFCURVE",
"237 84 OFFCURVE",
"220 86 CURVE",
"189 120 OFFCURVE",
"173 160 OFFCURVE",
"173 219 CURVE SMOOTH",
"173 298 OFFCURVE",
"232 329 OFFCURVE",
"249 341 CURVE",
"198 408 LINE",
"162 372 OFFCURVE",
"80 318 OFFCURVE",
"80 183 CURVE"
);
},
{
closed = 1;
nodes = (
"208 710 OFFCURVE",
"76 664 OFFCURVE",
"76 563 CURVE SMOOTH",
"76 445 OFFCURVE",
"144 396 OFFCURVE",
"190 373 CURVE",
"258 430 LINE",
"199 470 OFFCURVE",
"170 501 OFFCURVE",
"170 551 CURVE SMOOTH",
"170 595 OFFCURVE",
"245 615 OFFCURVE",
"292 615 CURVE SMOOTH",
"339 615 OFFCURVE",
"415 583 OFFCURVE",
"421 563 CURVE",
"497 649 LINE",
"446 695 OFFCURVE",
"389 710 OFFCURVE",
"295 710 CURVE"
);
},
{
closed = 1;
nodes = (
"461 36 OFFCURVE",
"498 95 OFFCURVE",
"504 135 CURVE",
"503 162 OFFCURVE",
"500 205 OFFCURVE",
"497 226 CURVE",
"396 200 LINE",
"408 162 OFFCURVE",
"409 92 OFFCURVE",
"401 72 CURVE",
"429 5 LINE"
);
},
{
closed = 1;
nodes = (
"193 423 LINE",
"193 344 LINE",
"400 334 LINE",
"419 359 OFFCURVE",
"431 380 OFFCURVE",
"438 403 CURVE",
"428 433 LINE"
);
},
{
closed = 1;
nodes = (
"411 593 LINE",
"410 503 LINE",
"507 533 LINE",
"497 649 LINE"
);
}
);
width = 600;
},
{
layerId = "02616952-E7A2-434B-B5AA-0FE61E2963BC";
paths = (
{
closed = 1;
nodes = (
"257 396 LINE",
"203 436 OFFCURVE",
"173 468 OFFCURVE",
"168 538 CURVE",
"198 572 OFFCURVE",
"234 585 OFFCURVE",
"281 585 CURVE SMOOTH",
"321 585 OFFCURVE",
"350 576 OFFCURVE",
"380 553 CURVE",
"506 649 LINE",
"445 695 OFFCURVE",
"338 710 OFFCURVE",
"274 710 CURVE",
"187 710 OFFCURVE",
"60 669 OFFCURVE",
"25 583 CURVE",
"25 445 OFFCURVE",
"98 366 OFFCURVE",
"144 343 CURVE"
);
},
{
closed = 1;
nodes = (
"344 -10 OFFCURVE",
"420 -2 OFFCURVE",
"458 5 CURVE",
"389 135 LINE",
"338 125 OFFCURVE",
"304 122 OFFCURVE",
"275 122 CURVE SMOOTH",
"228 122 OFFCURVE",
"204 127 OFFCURVE",
"150 140 CURVE",
"244 61 LINE",
"197 107 OFFCURVE",
"172 138 OFFCURVE",
"172 199 CURVE SMOOTH",
"172 248 OFFCURVE",
"231 289 OFFCURVE",
"248 301 CURVE",
"147 388 LINE",
"111 352 OFFCURVE",
"29 288 OFFCURVE",
"29 183 CURVE SMOOTH",
"29 126 OFFCURVE",
"52 53 OFFCURVE",
"94 18 CURVE",
"130 -2 OFFCURVE",
"192 -10 OFFCURVE",
"270 -10 CURVE SMOOTH"
);
},
{
closed = 1;
nodes = (
"490 36 OFFCURVE",
"527 95 OFFCURVE",
"533 135 CURVE",
"532 162 OFFCURVE",
"529 205 OFFCURVE",
"526 226 CURVE",
"375 200 LINE",
"387 162 OFFCURVE",
"388 92 OFFCURVE",
"380 72 CURVE",
"458 5 LINE"
);
},
{
closed = 1;
nodes = (
"378 306 OFFCURVE",
"390 357 OFFCURVE",
"397 410 CURVE",
"172 403 LINE",
"172 304 LINE",
"359 281 LINE"
);
},
{
closed = 1;
nodes = (
"516 533 LINE",
"506 649 LINE",
"370 593 LINE",
"369 493 LINE"
);
}
);
width = 568;
}
);
leftKerningGroup = Eopen;
rightKerningGroup = Eopen;
unicode = 0190;
},
{
color = 4;
glyphname = Schwa;
lastChange = "2025-10-01 08:32:55 +0000";
layers = (
{
layerId = "99397DCC-BAAE-47D6-813A-D8EE2FB228A7";
paths = (
{
closed = 1;
nodes = (
"303 -10 OFFCURVE",
"344 -9 OFFCURVE",
"381 0 CURVE",
"434 71 OFFCURVE",
"492 177 OFFCURVE",
"504 288 CURVE",
"495 412 OFFCURVE",
"433 599 OFFCURVE",
"382 700 CURVE",
"318 629 LINE",
"349 562 OFFCURVE",
"393 402 OFFCURVE",
"408 288 CURVE",
"398 200 OFFCURVE",
"355 129 OFFCURVE",
"322 83 CURVE",
"301 81 OFFCURVE",
"283 80 OFFCURVE",
"267 80 CURVE SMOOTH",
"242 80 OFFCURVE",
"217 83 OFFCURVE",
"194 90 CURVE",
"163 141 OFFCURVE",
"134 200 OFFCURVE",
"120 260 CURVE",
"24 260 LINE",
"41 157 OFFCURVE",
"93 62 OFFCURVE",
"145 0 CURVE",
"173 -6 OFFCURVE",
"227 -10 OFFCURVE",
"267 -10 CURVE SMOOTH"
);
},
{
closed = 1;
nodes = (
"416 345 LINE",
"421 357 OFFCURVE",
"426 369 OFFCURVE",
"426 385 CURVE",
"408 431 LINE",
"59 426 LINE",
"118 375 LINE",
"125 458 OFFCURVE",
"159 556 OFFCURVE",
"197 621 CURVE",
"365 621 LINE",
"382 700 LINE",
"191 700 LINE",
"159 679 OFFCURVE",
"122 649 OFFCURVE",
"100 624 CURVE",
"72 560 OFFCURVE",
"12 431 OFFCURVE",
"24 345 CURVE"
);
}
);
width = 524;
},
{
layerId = "02616952-E7A2-434B-B5AA-0FE61E2963BC";
paths = (
{
closed = 1;
nodes = (
"336 -15 OFFCURVE",
"395 -9 OFFCURVE",
"440 0 CURVE",
"515 107 OFFCURVE",
"556 224 OFFCURVE",
"556 286 CURVE SMOOTH",
"556 396 OFFCURVE",
"514 572 OFFCURVE",
"440 700 CURVE",
"346 571 LINE",
"384 494 OFFCURVE",
"391 389 OFFCURVE",
"405 288 CURVE",
"400 240 OFFCURVE",
"372 171 OFFCURVE",
"339 115 CURVE",
"320 112 OFFCURVE",
"310 110 OFFCURVE",
"287 110 CURVE SMOOTH",
"267 110 OFFCURVE",
"247 112 OFFCURVE",
"228 115 CURVE",
"198 160 OFFCURVE",
"186 200 OFFCURVE",
"179 250 CURVE",
"22 250 LINE",
"30 179 OFFCURVE",
"73 63 OFFCURVE",
"127 0 CURVE",
"169 -9 OFFCURVE",
"229 -15 OFFCURVE",
"287 -15 CURVE SMOOTH"
);
},
{
closed = 1;
nodes = (
"402 325 LINE",
"407 337 OFFCURVE",
"412 349 OFFCURVE",
"412 365 CURVE",
"394 454 LINE",
"55 445 LINE",
"170 379 LINE",
"176 425 OFFCURVE",
"199 498 OFFCURVE",
"223 562 CURVE",
"361 561 LINE",
"440 700 LINE",
"186 700 LINE",
"133 659 OFFCURVE",
"125 653 OFFCURVE",
"95 624 CURVE",
"67 560 OFFCURVE",
"20 425 OFFCURVE",
"20 325 CURVE"
);
}
);
width = 576;
}
);
leftKerningGroup = O;
rightKerningGroup = O;
unicode = 018F;
},
{
color = 4;
glyphname = F;
lastChange = "2025-09-23 11:08:22 +0000";
layers = (
{
anchors = (
{
name = bottom;
position = "{269, 0}";
},
{
name = top;
position = "{269, 700}";
}
);
components = (
{
name = _part.barra;
transform = "{1, 0, 0, 1, -15, 0}";
}
);
layerId = "99397DCC-BAAE-47D6-813A-D8EE2FB228A7";
paths = (
{
closed = 1;
nodes = (
"413 625 OFFCURVE",
"421 646 OFFCURVE",
"425 673 CURVE",
"411 700 LINE",
"93 700 LINE",
"93 618 LINE",
"403 608 LINE"
);
},
{
closed = 1;
nodes = (
"299 289 OFFCURVE",
"311 310 OFFCURVE",
"318 333 CURVE",
"308 363 LINE",
"93 353 LINE",
"93 274 LINE",
"280 264 LINE"
);
}
);
width = 445;
},
{
anchors = (
{
name = bottom;
position = "{269, 0}";
},
{
name = top;
position = "{269, 700}";
}
);
associatedMasterId = "99397DCC-BAAE-47D6-813A-D8EE2FB228A7";
layerId = "0A77597D-7D55-4298-9F28-B1FCCD30FB6A";
name = "May 13 19, 11:57";
paths = (
{
closed = 1;
nodes = (
"151 0 LINE",
"145 70 OFFCURVE",
"141 111 OFFCURVE",
"141 210 CURVE SMOOTH",
"141 364 OFFCURVE",
"149 518 OFFCURVE",
"154 672 CURVE",
"45 700 LINE",
"49 571 OFFCURVE",
"57 435 OFFCURVE",
"57 297 CURVE SMOOTH",
"57 188 OFFCURVE",
"51 99 OFFCURVE",
"48 0 CURVE"
);
},
{
closed = 1;
nodes = (
"151 0 LINE",
"145 70 OFFCURVE",
"141 111 OFFCURVE",
"141 210 CURVE SMOOTH",
"141 364 OFFCURVE",
"149 518 OFFCURVE",
"154 672 CURVE",
"45 700 LINE",
"49 571 OFFCURVE",
"57 435 OFFCURVE",
"57 297 CURVE SMOOTH",
"57 188 OFFCURVE",
"51 99 OFFCURVE",
"48 0 CURVE"
);
},
{
closed = 1;
nodes = (
"93 383 LINE",
"93 304 LINE",
"400 294 LINE",
"438 353 LINE",
"438 369 OFFCURVE",
"433 381 OFFCURVE",
"428 393 CURVE"
);
},
{
closed = 1;
nodes = (
"45 700 LINE",
"93 618 LINE",
"433 608 LINE",
"443 625 OFFCURVE",
"451 646 OFFCURVE",
"455 673 CURVE",
"452 683 OFFCURVE",
"447 692 OFFCURVE",
"441 700 CURVE"
);
}
);
width = 475;
},
{
anchors = (
{
name = bottom;
position = "{251, 0}";
},
{
name = top;
position = "{251, 700}";
}
);
components = (
{
name = _part.barra;
transform = "{1, 0, 0, 1, -25, 0}";
}
);
layerId = "02616952-E7A2-434B-B5AA-0FE61E2963BC";
paths = (
{
closed = 1;
nodes = (
"454 585 OFFCURVE",
"462 616 OFFCURVE",
"466 653 CURVE",
"452 700 LINE",
"104 700 LINE",
"102 578 LINE",
"444 558 LINE"
);
},
{
closed = 1;
nodes = (
"373 274 OFFCURVE",
"385 305 OFFCURVE",
"392 333 CURVE",
"382 383 LINE",
"107 373 LINE",
"107 254 LINE",
"354 244 LINE"
);
}
);
width = 481;
}
);
leftKerningGroup = H;
leftMetricsKey = H;
rightKerningGroup = F;
unicode = 0046;
},
{
color = 4;
glyphname = G;
lastChange = "2025-10-02 14:34:19 +0000";
layers = (
{
anchors = (
{
name = bottom;
position = "{277, 0}";
},
{
name = top;
position = "{277, 700}";
}
);
layerId = "99397DCC-BAAE-47D6-813A-D8EE2FB228A7";
paths = (
{
closed = 1;
nodes = (
"326 -10 OFFCURVE",
"345 -6 OFFCURVE",
"366 0 CURVE",
"403 97 LINE",
"345 82 OFFCURVE",
"303 80 OFFCURVE",
"271 80 CURVE SMOOTH",
"246 80 OFFCURVE",
"222 83 OFFCURVE",
"198 90 CURVE",
"162 150 OFFCURVE",
"129 219 OFFCURVE",
"118 288 CURVE",
"134 408 OFFCURVE",
"178 551 OFFCURVE",
"213 613 CURVE",
"233 620 OFFCURVE",
"250 623 OFFCURVE",
"271 623 CURVE SMOOTH",
"292 623 OFFCURVE",
"309 620 OFFCURVE",
"330 613 CURVE",
"394 683 LINE",
"351 700 OFFCURVE",
"316 710 OFFCURVE",
"271 710 CURVE SMOOTH",
"233 710 OFFCURVE",
"190 703 OFFCURVE",
"152 683 CURVE",
"88 594 OFFCURVE",
"31 424 OFFCURVE",
"24 288 CURVE",
"36 174 OFFCURVE",
"92 68 OFFCURVE",
"149 0 CURVE",
"177 -6 OFFCURVE",
"231 -10 OFFCURVE",
"271 -10 CURVE SMOOTH"
);
},
{
closed = 1;
nodes = (
"419 41 OFFCURVE",
"458 92 OFFCURVE",
"464 121 CURVE",
"473 172 OFFCURVE",
"471 264 OFFCURVE",
"459 350 CURVE",
"254 350 LINE",
"249 338 OFFCURVE",
"244 326 OFFCURVE",
"244 310 CURVE",
"262 261 LINE",
"424 270 LINE",
"367 281 LINE",
"376 203 OFFCURVE",
"377 124 OFFCURVE",
"370 84 CURVE",
"354 35 LINE",
"366 0 LINE"
);
},
{
closed = 1;
nodes = (
"414 553 LINE",
"394 683 LINE",
"319 679 LINE",
"317 523 LINE"
);
}
);
width = 500;
},
{
associatedMasterId = "99397DCC-BAAE-47D6-813A-D8EE2FB228A7";
backgroundImage = {
crop = "{{0, 0}, {36.12, 49.44}}";
imagePath = "../../Desktop/_ONGOING FONTS/LETTERSCANS/G.jpg";
locked = "1";
transform = "{16.39809, 0, 0, 16.39809, 2, -58}";
};
layerId = "F65E2368-32AC-4539-8BA2-B466AC50D9CB";
name = "Mar 6 19, 13:16";
paths = (
{
closed = 1;
nodes = (
"498 697 OFFCURVE",
"474 710 OFFCURVE",
"457 710 CURVE SMOOTH",
"383 710 OFFCURVE",
"289 693 OFFCURVE",
"234 646 CURVE SMOOTH",
"167 588 OFFCURVE",
"27 275 OFFCURVE",
"27 107 CURVE SMOOTH",
"27 55 OFFCURVE",
"91 0 OFFCURVE",
"133 0 CURVE SMOOTH",
"175 0 OFFCURVE",
"387 -1 OFFCURVE",
"410 -1 CURVE SMOOTH",
"433 -1 OFFCURVE",
"528 58 OFFCURVE",
"537 82 CURVE SMOOTH",
"546 106 OFFCURVE",
"501 276 OFFCURVE",
"476 308 CURVE",
"401 274 LINE",
"417 213 OFFCURVE",
"447 180 OFFCURVE",
"448 90 CURVE",
"396 75 OFFCURVE",
"380 68 OFFCURVE",
"299 68 CURVE SMOOTH",
"214 68 OFFCURVE",
"163 77 OFFCURVE",
"152 84 CURVE SMOOTH",
"141 91 OFFCURVE",
"122 111 OFFCURVE",
"122 165 CURVE SMOOTH",
"122 219 OFFCURVE",
"214 519 OFFCURVE",
"297 610 CURVE",
"417 643 LINE",
"425 623 LINE",
"511 657 LINE",
"510 690 LINE"
);
},
{
closed = 1;
nodes = (
"425 565 OFFCURVE",
"425 534 OFFCURVE",
"425 518 CURVE SMOOTH",
"425 502 OFFCURVE",
"425 490 OFFCURVE",
"444 496 CURVE SMOOTH",
"463 502 OFFCURVE",
"510 518 OFFCURVE",
"510 544 CURVE SMOOTH",
"510 570 OFFCURVE",
"510 635 OFFCURVE",
"510 662 CURVE",
"425 647 LINE",
"425 633 LINE",
"425 622 OFFCURVE",
"425 613 OFFCURVE",
"425 608 CURVE"
);
},
{
closed = 1;
nodes = (
"238 271 LINE",
"401 274 LINE",
"476 308 LINE",
"463 339 LINE",
"291 339 LINE",
"241 314 LINE",
"210 281 LINE"
);
}
);
width = 600;
},
{
anchors = (
{
name = bottom;
position = "{288, 0}";
},
{
name = top;
position = "{288, 700}";
}
);
associatedMasterId = "99397DCC-BAAE-47D6-813A-D8EE2FB228A7";
backgroundImage = {
crop = "{{0, 0}, {36.12, 49.44}}";
imagePath = "../../Desktop/_ONGOING FONTS/LETTERSCANS/G.jpg";
locked = "1";
transform = "{16.39809, 0, 0, 16.39809, 7, -58}";
};
layerId = "0E6A7689-5DC8-4FDF-9735-08EEB23FB53E";
name = "Apr 18 19, 18:32";
paths = (
{
closed = 1;
nodes = (
"243 271 LINE",
"414 274 LINE",
"489 308 LINE",
"468 339 LINE",
"296 339 LINE",
"246 314 LINE",
"215 281 LINE"
);
},
{
closed = 1;
nodes = (
"461 697 OFFCURVE",
"437 710 OFFCURVE",
"420 710 CURVE SMOOTH",
"346 710 OFFCURVE",
"242 693 OFFCURVE",
"187 646 CURVE SMOOTH",
"120 588 OFFCURVE",
"30 295 OFFCURVE",
"30 127 CURVE SMOOTH",
"30 100 OFFCURVE",
"53 72 OFFCURVE",
"76 46 CURVE SMOOTH",
"96 23 OFFCURVE",
"116 0 OFFCURVE",
"136 0 CURVE SMOOTH",
"178 0 OFFCURVE",
"400 -1 OFFCURVE",
"423 -1 CURVE SMOOTH",
"446 -1 OFFCURVE",
"541 58 OFFCURVE",
"550 82 CURVE SMOOTH",
"559 106 OFFCURVE",
"514 276 OFFCURVE",
"489 308 CURVE",
"414 274 LINE",
"430 213 OFFCURVE",
"460 180 OFFCURVE",
"461 90 CURVE",
"409 75 OFFCURVE",
"393 68 OFFCURVE",
"312 68 CURVE SMOOTH",
"227 68 OFFCURVE",
"196 77 OFFCURVE",
"185 84 CURVE SMOOTH",
"180 87 OFFCURVE",
"171 99 OFFCURVE",
"160 110 CURVE SMOOTH",
"148 123 OFFCURVE",
"135 136 OFFCURVE",
"135 159 CURVE SMOOTH",
"135 213 OFFCURVE",
"177 519 OFFCURVE",
"260 610 CURVE",
"380 643 LINE",
"388 623 LINE",
"474 657 LINE",
"473 690 LINE"
);
},
{
closed = 1;
nodes = (
"388 565 OFFCURVE",
"388 534 OFFCURVE",
"388 518 CURVE SMOOTH",
"388 502 OFFCURVE",
"388 490 OFFCURVE",
"407 496 CURVE SMOOTH",
"426 502 OFFCURVE",
"473 518 OFFCURVE",
"473 544 CURVE SMOOTH",
"473 570 OFFCURVE",
"473 635 OFFCURVE",
"473 662 CURVE",
"388 647 LINE",
"388 633 LINE",
"388 622 OFFCURVE",
"388 613 OFFCURVE",
"388 608 CURVE"
);
}
);
width = 576;
},
{
anchors = (
{
name = bottom;
position = "{295, 0}";
},
{
name = top;
position = "{295, 700}";
}
);
associatedMasterId = "99397DCC-BAAE-47D6-813A-D8EE2FB228A7";
layerId = "930D548B-40D6-41BC-A4E3-896AC733F461";
name = "Aug 25 19, 23:09";
paths = (
{
closed = 1;
nodes = (
"26 258 OFFCURVE",
"24 227 OFFCURVE",
"23 213 CURVE",
"25 198 OFFCURVE",
"27 189 OFFCURVE",
"31 175 CURVE SMOOTH",
"55 90 OFFCURVE",
"92 40 OFFCURVE",
"133 5 CURVE",
"175 -4 OFFCURVE",
"233 -5 OFFCURVE",
"282 -5 CURVE SMOOTH",
"346 -5 OFFCURVE",
"365 -4 OFFCURVE",
"432 5 CURVE",
"461 35 OFFCURVE",
"494 80 OFFCURVE",
"503 121 CURVE",
"503 183 OFFCURVE",
"494 288 OFFCURVE",
"478 350 CURVE",
"400 273 LINE",
"411 242 OFFCURVE",
"416 212 OFFCURVE",
"416 182 CURVE SMOOTH",
"416 156 OFFCURVE",
"412 129 OFFCURVE",
"405 103 CURVE",
"366 89 OFFCURVE",
"313 83 OFFCURVE",
"282 83 CURVE SMOOTH",
"243 83 OFFCURVE",
"210 89 OFFCURVE",
"185 100 CURVE",
"152 142 OFFCURVE",
"134 185 OFFCURVE",
"125 248 CURVE",
"131 334 OFFCURVE",
"160 438 OFFCURVE",
"224 607 CURVE",
"243 618 OFFCURVE",
"262 626 OFFCURVE",
"280 626 CURVE SMOOTH",
"314 626 OFFCURVE",
"322 621 OFFCURVE",
"347 607 CURVE",
"346 533 LINE",
"433 563 LINE",
"433 679 LINE",
"378 699 OFFCURVE",
"331 710 OFFCURVE",
"280 710 CURVE SMOOTH",
"237 710 OFFCURVE",
"196 699 OFFCURVE",
"161 679 CURVE",
"115 603 OFFCURVE",
"58 435 OFFCURVE",
"28 269 CURVE SMOOTH"
);
},
{
closed = 1;
nodes = (
"278 338 OFFCURVE",
"273 326 OFFCURVE",
"273 310 CURVE",
"291 261 LINE",
"439 269 LINE",
"478 350 LINE",
"283 350 LINE"
);
}
);
width = 539;
},
{
anchors = (
{
name = bottom;
position = "{265, 0}";
},
{
name = top;
position = "{265, 700}";
}
);
layerId = "02616952-E7A2-434B-B5AA-0FE61E2963BC";
paths = (
{
closed = 1;
nodes = (
"376 -5 OFFCURVE",
"403 1 OFFCURVE",
"434 10 CURVE",
"434 140 LINE",
"386 130 OFFCURVE",
"340 120 OFFCURVE",
"314 120 CURVE SMOOTH",
"290 120 OFFCURVE",
"264 122 OFFCURVE",
"239 126 CURVE",
"205 175 OFFCURVE",
"182 236 OFFCURVE",
"176 294 CURVE",
"189 401 OFFCURVE",
"220 512 OFFCURVE",
"256 571 CURVE",
"267 576 OFFCURVE",
"283 579 OFFCURVE",
"301 579 CURVE SMOOTH",
"319 579 OFFCURVE",
"337 576 OFFCURVE",
"351 571 CURVE",
"445 683 LINE",
"392 700 OFFCURVE",
"350 710 OFFCURVE",
"310 710 CURVE SMOOTH",
"250 710 OFFCURVE",
"189 699 OFFCURVE",
"158 683 CURVE",
"94 610 OFFCURVE",
"20 375 OFFCURVE",
"20 279 CURVE",
"20 209 OFFCURVE",
"75 60 OFFCURVE",
"135 10 CURVE",
"177 1 OFFCURVE",
"230 -5 OFFCURVE",
"324 -5 CURVE SMOOTH"
);
},
{
closed = 1;
nodes = (
"469 42 OFFCURVE",
"497 86 OFFCURVE",
"505 121 CURVE",
"505 251 OFFCURVE",
"499 342 OFFCURVE",
"491 375 CURVE",
"256 375 LINE",
"250 361 OFFCURVE",
"246 337 OFFCURVE",
"246 315 CURVE",
"264 236 LINE",
"429 244 LINE",
"383 279 LINE",
"385 238 OFFCURVE",
"383 145 OFFCURVE",
"379 84 CURVE",
"335 35 LINE",
"434 10 LINE"
);
},
{
closed = 1;
nodes = (
"466 523 LINE",
"446 683 LINE",
"341 679 LINE",
"339 493 LINE"
);
}
);
width = 530;
}
);
leftKerningGroup = O;
leftMetricsKey = O;
rightKerningGroup = G;
unicode = 0047;
},
{
color = 4;
glyphname = H;
lastChange = "2025-09-27 08:38:02 +0000";
layers = (
{
anchors = (
{
name = bottom;
position = "{266, 0}";
},
{
name = center;
position = "{266, 350}";
},
{
name = top;
position = "{266, 700}";
},
{
name = topleft;
position = "{10, 700}";
}
);
components = (
{
name = _part.barra;
transform = "{1, 0, 0, 1, -15, 0}";
},
{
name = _part.barra;
transform = "{1, 0, 0, 1, 317, 0}";
}
);
layerId = "99397DCC-BAAE-47D6-813A-D8EE2FB228A7";
paths = (
{
closed = 1;
nodes = (
"266 309 LINE",
"458 297 LINE",
"464 395 LINE",
"266 387 LINE",
"66 395 LINE",
"74 297 LINE"
);
}
);
width = 529;
},
{
anchors = (
{
name = bottom;
position = "{295, 0}";
},
{
name = center;
position = "{295, 350}";
},
{
name = top;
position = "{295, 700}";
},
{
name = topleft;
position = "{-5, 700}";
}
);
components = (
{
name = _part.barra;
transform = "{1, 0, 0, 1, -25, 0}";
},
{
name = _part.barra;
transform = "{1, 0, 0, 1, 325, 0}";
}
);
layerId = "02616952-E7A2-434B-B5AA-0FE61E2963BC";
paths = (
{
closed = 1;
nodes = (
"295 276 LINE",
"487 263 LINE",
"493 415 LINE",
"295 404 LINE",
"95 415 LINE",
"103 263 LINE"
);
}
);
width = 587;
}
);
leftKerningGroup = H;
rightKerningGroup = H;
unicode = 0048;
},
{
color = 4;
glyphname = Hbar;
lastChange = "2025-09-23 11:08:22 +0000";
layers = (
{
components = (
{
name = H;
transform = "{1, 0, 0, 1, 36, 0}";
}
);
layerId = "99397DCC-BAAE-47D6-813A-D8EE2FB228A7";
paths = (
{
closed = 1;
nodes = (
"284 511 LINE",
"568 505 LINE",
"591 527 OFFCURVE",
"603 557 OFFCURVE",
"617 586 CURVE",
"602 600 LINE",
"320 596 LINE",
"58 600 LINE",
"36 579 OFFCURVE",
"25 545 OFFCURVE",
"15 519 CURVE",
"29 505 LINE"
);
}
);
width = 632;
},
{
components = (
{
name = H;
transform = "{1, 0, 0, 1, 38, 0}";
}
);
layerId = "02616952-E7A2-434B-B5AA-0FE61E2963BC";
paths = (
{
closed = 1;
nodes = (
"324 491 LINE",
"628 485 LINE",
"651 507 OFFCURVE",
"673 567 OFFCURVE",
"677 596 CURVE",
"662 610 LINE",
"360 606 LINE",
"58 610 LINE",
"36 589 OFFCURVE",
"15 535 OFFCURVE",
"15 499 CURVE",
"29 485 LINE"
);
}
);
width = 692;
}
);
leftKerningGroup = H;
rightKerningGroup = H;
unicode = 0126;
},
{
color = 4;
glyphname = I;
lastChange = "2023-06-20 09:22:29 +0000";
layers = (
{
anchors = (
{
name = bottom;
position = "{114, 0}";
},
{
name = ogonek;
position = "{104, 0}";
},
{
name = top;
position = "{114, 700}";
},
{
name = topleft;
position = "{20, 700}";
}
);
components = (
{
alignment = -1;
name = _part.barra;
}
);
layerId = "99397DCC-BAAE-47D6-813A-D8EE2FB228A7";
width = 227;
},
{
associatedMasterId = "99397DCC-BAAE-47D6-813A-D8EE2FB228A7";
backgroundImage = {
crop = "{{0, 0}, {36.12, 49.08}}";
imagePath = "../../Desktop/_ONGOING FONTS/LETTERSCANS/L.jpg";
locked = "1";
transform = "{16.49011, 0, 0, 16.49011, -37, -50.03}";
};
layerId = "D3D852F5-FCD1-42B0-9628-9654A81C1AFE";
name = "Feb 4 19, 00:17";
paths = (
{
closed = 1;
nodes = (
"164 0 LINE",
"158 70 OFFCURVE",
"154 111 OFFCURVE",
"154 210 CURVE SMOOTH",
"154 378 OFFCURVE",
"163 546 OFFCURVE",
"168 714 CURVE",
"58 685 LINE",
"62 556 OFFCURVE",
"70 435 OFFCURVE",
"70 297 CURVE SMOOTH",
"70 188 OFFCURVE",
"64 99 OFFCURVE",
"61 0 CURVE"
);
},
{
closed = 1;
nodes = (
"128 65 LINE",
"128 0 LINE",
"455 3 LINE",
"491 34 OFFCURVE",
"486 74 OFFCURVE",
"477 110 CURVE"
);
}
);
width = 600;
},
{
anchors = (
{
name = bottom;
position = "{119, 0}";
},
{
name = ogonek;
position = "{129, 0}";
},
{
name = top;
position = "{119, 700}";
},
{
name = topleft;
position = "{-5, 700}";
}
);
components = (
{
alignment = -1;
name = _part.barra;
transform = "{1, 0, 0, 1, -25, 0}";
}
);
layerId = "02616952-E7A2-434B-B5AA-0FE61E2963BC";
width = 237;
}
);
leftKerningGroup = I;
rightKerningGroup = I;
unicode = 0049;
},
{
color = 4;
glyphname = J;
lastChange = "2025-10-02 14:35:50 +0000";
layers = (
{
anchors = (
{
name = bottom;
position = "{259, 0}";
},
{
name = top;
position = "{359, 700}";
}
);
layerId = "99397DCC-BAAE-47D6-813A-D8EE2FB228A7";
paths = (
{
closed = 1;
nodes = (
"316 -10 OFFCURVE",
"334 -6 OFFCURVE",
"381 0 CURVE",
"422 23 OFFCURVE",
"441 61 OFFCURVE",
"462 97 CURVE",
"472 133 OFFCURVE",
"478 173 OFFCURVE",
"478 215 CURVE SMOOTH",
"478 368 OFFCURVE",
"453 548 OFFCURVE",
"432 660 CURVE",
"334 660 LINE",
"364 528 OFFCURVE",
"379 354 OFFCURVE",
"379 154 CURVE",
"365 125 OFFCURVE",
"354 108 OFFCURVE",
"339 94 CURVE",
"318 86 OFFCURVE",
"287 78 OFFCURVE",
"263 78 CURVE SMOOTH",
"240 78 OFFCURVE",
"217 80 OFFCURVE",
"190 90 CURVE",
"159 111 OFFCURVE",
"141 125 OFFCURVE",
"123 154 CURVE",
"134 208 OFFCURVE",
"153 263 OFFCURVE",
"184 329 CURVE",
"93 368 LINE",
"58 300 OFFCURVE",
"42 229 OFFCURVE",
"28 160 CURVE SMOOTH",
"27 155 OFFCURVE",
"25 136 OFFCURVE",
"25 132 CURVE",
"28 124 OFFCURVE",
"31 119 OFFCURVE",
"36 112 CURVE SMOOTH",
"60 79 OFFCURVE",
"111 27 OFFCURVE",
"149 -1 CURVE",
"189 -6 OFFCURVE",
"229 -10 OFFCURVE",
"263 -10 CURVE SMOOTH"
);
},
{
closed = 1;
nodes = (
"492 618 LINE",
"503 631 OFFCURVE",
"511 652 OFFCURVE",
"514 673 CURVE",
"511 683 OFFCURVE",
"506 692 OFFCURVE",
"500 700 CURVE",
"106 700 LINE",
"96 683 OFFCURVE",
"88 662 OFFCURVE",
"84 635 CURVE",
"87 625 OFFCURVE",
"92 616 OFFCURVE",
"98 608 CURVE"
);
}
);
width = 539;
},
{
anchors = (
{
name = bottom;
position = "{280, 0}";
},
{
name = top;
position = "{280, 700}";
}
);
associatedMasterId = "99397DCC-BAAE-47D6-813A-D8EE2FB228A7";
backgroundImage = {
crop = "{{0, 0}, {36.12, 51.6}}";
imagePath = "../../Desktop/_ONGOING FONTS/LETTERSCANS/j-cap.jpg";
locked = "1";
transform = "{16.4354, 0, 0, 16.4354, -40, -92}";
};
layerId = "5B4F2C27-0EDB-4B19-A710-91D4A1CE2248";
name = "Apr 18 19, 22:15";
paths = (
{
closed = 1;
nodes = (
"356 660 LINE",
"409 459 OFFCURVE",
"401 213 OFFCURVE",
"401 159 CURVE SMOOTH",
"401 136 OFFCURVE",
"389 123 OFFCURVE",
"376 110 CURVE SMOOTH",
"365 99 OFFCURVE",
"356 87 OFFCURVE",
"351 84 CURVE SMOOTH",
"340 77 OFFCURVE",
"309 68 OFFCURVE",
"234 68 CURVE SMOOTH",
"183 68 OFFCURVE",
"172 85 OFFCURVE",
"120 100 CURVE",
"121 190 OFFCURVE",
"166 273 OFFCURVE",
"182 334 CURVE",
"107 368 LINE",
"82 336 OFFCURVE",
"17 106 OFFCURVE",
"26 82 CURVE SMOOTH",
"35 58 OFFCURVE",
"130 -1 OFFCURVE",
"153 -1 CURVE SMOOTH",
"176 -1 OFFCURVE",
"348 0 OFFCURVE",
"390 0 CURVE SMOOTH",
"410 0 OFFCURVE",
"440 23 OFFCURVE",
"460 46 CURVE SMOOTH",
"483 72 OFFCURVE",
"496 180 OFFCURVE",
"496 237 CURVE SMOOTH",
"496 405 OFFCURVE",
"476 592 OFFCURVE",
"449 660 CURVE"
);
},
{
closed = 1;
nodes = (
"540 700 LINE",
"145 700 LINE",
"113 622 LINE",
"147 597 LINE",
"494 624 LINE",
"527 653 LINE"
);
},
{
closed = 1;
nodes = (
"316 710 LINE",
"273 710 OFFCURVE",
"222 704 OFFCURVE",
"197 694 CURVE",
"130 641 OFFCURVE",
"30 285 OFFCURVE",
"20 117 CURVE",
"42 69 OFFCURVE",
"85 31 OFFCURVE",
"141 0 CURVE",
"188 -4 OFFCURVE",
"235 -5 OFFCURVE",
"282 -5 CURVE SMOOTH",
"332 -5 OFFCURVE",
"381 -4 OFFCURVE",
"431 -1 CURVE",
"478 34 OFFCURVE",
"547 107 OFFCURVE",
"556 131 CURVE",
"548 202 OFFCURVE",
"538 251 OFFCURVE",
"517 308 CURVE",
"472 339 LINE",
"406 339 LINE",
"433 283 OFFCURVE",
"461 218 OFFCURVE",
"462 154 CURVE",
"434 125 OFFCURVE",
"416 111 OFFCURVE",
"380 90 CURVE",
"343 80 OFFCURVE",
"302 78 OFFCURVE",
"265 78 CURVE SMOOTH",
"220 78 OFFCURVE",
"204 87 OFFCURVE",
"193 94 CURVE SMOOTH",
"171 108 OFFCURVE",
"154 125 OFFCURVE",
"133 154 CURVE",
"133 223 OFFCURVE",
"160 435 OFFCURVE",
"250 607 CURVE",
"269 618 OFFCURVE",
"298 626 OFFCURVE",
"316 626 CURVE"
);
}
);
width = 560;
},
{
anchors = (
{
name = bottom;
position = "{280, 0}";
},
{
name = top;
position = "{280, 700}";
}
);
associatedMasterId = "99397DCC-BAAE-47D6-813A-D8EE2FB228A7";
backgroundImage = {
crop = "{{0, 0}, {36.12, 51.6}}";
imagePath = "../../Desktop/_ONGOING FONTS/LETTERSCANS/j-cap.jpg";
locked = "1";
transform = "{16.4354, 0, 0, 16.4354, -40, -92}";
};
layerId = "F3704ACE-7132-40D3-8022-D5EB995FEC03";
name = "May 10 19, 10:39";
paths = (
{
closed = 1;
nodes = (
"355 660 LINE",
"405 488 OFFCURVE",
"400 223 OFFCURVE",
"400 154 CURVE",
"386 125 OFFCURVE",
"375 108 OFFCURVE",
"360 94 CURVE",
"339 86 OFFCURVE",
"298 78 OFFCURVE",
"268 78 CURVE SMOOTH",
"241 78 OFFCURVE",
"218 80 OFFCURVE",
"191 90 CURVE",
"160 111 OFFCURVE",
"142 125 OFFCURVE",
"124 154 CURVE",
"135 208 OFFCURVE",
"154 263 OFFCURVE",
"185 329 CURVE",
"104 368 LINE",
"64 291 OFFCURVE",
"44 212 OFFCURVE",
"35 131 CURVE",
"44 107 OFFCURVE",
"113 34 OFFCURVE",
"160 -1 CURVE",
"210 -4 OFFCURVE",
"201 -5 OFFCURVE",
"251 -5 CURVE SMOOTH",
"298 -5 OFFCURVE",
"355 -4 OFFCURVE",
"402 0 CURVE",
"443 23 OFFCURVE",
"462 61 OFFCURVE",
"483 97 CURVE",
"493 133 OFFCURVE",
"499 173 OFFCURVE",
"499 215 CURVE SMOOTH",
"499 368 OFFCURVE",
"474 548 OFFCURVE",
"453 660 CURVE"
);
},
{
closed = 1;
nodes = (
"108 625 OFFCURVE",
"113 616 OFFCURVE",
"119 608 CURVE",
"513 618 LINE",
"524 631 OFFCURVE",
"532 652 OFFCURVE",
"535 673 CURVE",
"532 683 OFFCURVE",
"527 692 OFFCURVE",
"521 700 CURVE",
"127 700 LINE",
"117 683 OFFCURVE",
"109 662 OFFCURVE",
"105 635 CURVE"
);
}
);
width = 565;
},
{
anchors = (
{
name = bottom;
position = "{281, 0}";
},
{
name = top;
position = "{381, 700}";
}
);
layerId = "02616952-E7A2-434B-B5AA-0FE61E2963BC";
paths = (
{
closed = 1;
nodes = (
"327 -20 OFFCURVE",
"375 -16 OFFCURVE",
"422 0 CURVE",
"463 23 OFFCURVE",
"482 61 OFFCURVE",
"503 97 CURVE",
"513 133 OFFCURVE",
"519 173 OFFCURVE",
"519 215 CURVE SMOOTH",
"519 368 OFFCURVE",
"494 548 OFFCURVE",
"473 660 CURVE",
"325 660 LINE",
"355 528 OFFCURVE",
"370 384 OFFCURVE",
"370 184 CURVE",
"356 155 OFFCURVE",
"345 138 OFFCURVE",
"330 124 CURVE",
"314 114 OFFCURVE",
"298 108 OFFCURVE",
"274 108 CURVE SMOOTH",
"262 108 OFFCURVE",
"238 113 OFFCURVE",
"220 120 CURVE",
"199 134 OFFCURVE",
"181 155 OFFCURVE",
"163 184 CURVE",
"174 238 OFFCURVE",
"193 263 OFFCURVE",
"224 329 CURVE",
"83 368 LINE",
"48 300 OFFCURVE",
"32 249 OFFCURVE",
"18 180 CURVE SMOOTH",
"17 175 OFFCURVE",
"15 154 OFFCURVE",
"15 145 CURVE",
"18 136 OFFCURVE",
"21 130 OFFCURVE",
"26 122 CURVE SMOOTH",
"60 69 OFFCURVE",
"101 27 OFFCURVE",
"139 -1 CURVE",
"179 -16 OFFCURVE",
"240 -20 OFFCURVE",
"274 -20 CURVE SMOOTH"
);
},
{
closed = 1;
nodes = (
"523 568 LINE",
"534 591 OFFCURVE",
"542 622 OFFCURVE",
"545 653 CURVE",
"543 671 OFFCURVE",
"538 687 OFFCURVE",
"531 700 CURVE",
"86 700 LINE",
"78 683 OFFCURVE",
"65 642 OFFCURVE",
"64 605 CURVE",
"67 575 OFFCURVE",
"72 566 OFFCURVE",
"78 558 CURVE"
);
}
);
width = 560;
}
);
rightKerningGroup = J;
unicode = 004A;
},
{
color = 4;
glyphname = K;
lastChange = "2025-09-23 11:08:22 +0000";
layers = (
{
anchors = (
{
name = bottom;
position = "{244, 0}";
},
{
name = top;
position = "{274, 700}";
}
);
backgroundImage = {
crop = "{{0, 0}, {40.32, 55}}";
imagePath = "../../Desktop/Documents/PERSONAL TYPEFACES/CANARINA/_LETTERSCANS-NEWNEW/K-newnew.jpg";
locked = "1";
transform = "{16.32968, 0.04321, -0.04321, 16.32968, -57, -86}";
};
components = (
{
name = _part.barra;
transform = "{1, 0, 0, 1, -15, 0}";
}
);
layerId = "99397DCC-BAAE-47D6-813A-D8EE2FB228A7";
paths = (
{
closed = 1;
nodes = (
"205 244 OFFCURVE",
"258 275 OFFCURVE",
"321 321 CURVE",
"390 432 OFFCURVE",
"414 576 OFFCURVE",
"425 700 CURVE",
"310 700 LINE",
"310 591 OFFCURVE",
"298 470 OFFCURVE",
"256 376 CURVE",
"195 342 OFFCURVE",
"175 340 OFFCURVE",
"104 335 CURVE",
"101 234 LINE"
);
},
{
closed = 1;
nodes = (
"455 61 LINE",
"368 107 OFFCURVE",
"287 197 OFFCURVE",
"261 309 CURVE",
"206 301 LINE",
"207 190 OFFCURVE",
"290 27 OFFCURVE",
"385 -20 CURVE"
);
}
);
width = 480;
},
{
anchors = (
{
name = bottom;
position = "{273, 0}";
},
{
name = top;
position = "{274, 700}";
}
);
components = (
{
name = _part.barra;
transform = "{1, 0, 0, 1, -15, 0}";
}
);
layerId = "02616952-E7A2-434B-B5AA-0FE61E2963BC";
paths = (
{
closed = 1;
nodes = (
"205 214 OFFCURVE",
"328 245 OFFCURVE",
"391 291 CURVE",
"460 402 OFFCURVE",
"484 576 OFFCURVE",
"495 700 CURVE",
"330 700 LINE",
"330 591 OFFCURVE",
"318 470 OFFCURVE",
"276 376 CURVE",
"215 342 OFFCURVE",
"175 340 OFFCURVE",
"104 335 CURVE",
"101 204 LINE"
);
},
{
closed = 1;
nodes = (
"550 81 LINE",
"463 127 OFFCURVE",
"382 197 OFFCURVE",
"356 309 CURVE",
"231 301 LINE",
"252 190 OFFCURVE",
"335 27 OFFCURVE",
"410 -20 CURVE"
);
}
);
width = 565;
}
);
leftKerningGroup = H;
rightKerningGroup = K;
unicode = 004B;
},
{
color = 4;
glyphname = L;
lastChange = "2025-09-23 11:08:22 +0000";
layers = (
{
anchors = (
{
name = bottom;
position = "{217, 0}";
},
{
name = center;
position = "{232, 350}";
},
{
name = top;
position = "{102, 700}";
},
{
name = topright;
position = "{306, 540}";
}
);
components = (
{
name = _part.barra;
transform = "{1, 0, 0, 1, -15, 0}";
}
);
layerId = "99397DCC-BAAE-47D6-813A-D8EE2FB228A7";
paths = (
{
closed = 1;
nodes = (
"373 0 LINE",
"383 17 OFFCURVE",
"391 38 OFFCURVE",
"395 65 CURVE",
"392 75 OFFCURVE",
"387 84 OFFCURVE",
"381 92 CURVE",
"78 72 LINE",
"78 0 LINE"
);
}
);
width = 420;
},
{
anchors = (
{
name = bottom;
position = "{247, 0}";
},
{
name = center;
position = "{247, 350}";
},
{
name = top;
position = "{247, 700}";
},
{
name = topright;
position = "{473, 700}";
}
);
associatedMasterId = "99397DCC-BAAE-47D6-813A-D8EE2FB228A7";
backgroundImage = {
crop = "{{0, 0}, {36.12, 49.08}}";
imagePath = "../../Desktop/_ONGOING FONTS/LETTERSCANS/L.jpg";
locked = "1";
transform = "{16.49, 0, 0, 16.49, -35, -50}";
};
layerId = "DEF16BF0-CA75-4125-B902-C76F7EA111E2";
name = "Apr 18 19, 19:26";
paths = (
{
closed = 1;
nodes = (
"166 0 LINE",
"160 70 OFFCURVE",
"156 111 OFFCURVE",
"156 210 CURVE SMOOTH",
"156 378 OFFCURVE",
"165 546 OFFCURVE",
"170 714 CURVE",
"60 685 LINE",
"64 556 OFFCURVE",
"72 435 OFFCURVE",
"72 297 CURVE SMOOTH",
"72 188 OFFCURVE",
"66 99 OFFCURVE",
"63 0 CURVE"
);
},
{
closed = 1;
nodes = (
"171 69 LINE",
"130 90 LINE",
"130 0 LINE",
"414 0 LINE",
"433 27 OFFCURVE",
"453 66 OFFCURVE",
"453 75 CURVE SMOOTH",
"453 82 OFFCURVE",
"448 95 OFFCURVE",
"439 106 CURVE"
);
}
);
width = 493;
},
{
anchors = (
{
name = bottom;
position = "{215, 0}";
},
{
name = center;
position = "{119, 350}";
},
{
name = top;
position = "{119, 700}";
},
{
name = topright;
position = "{301, 500}";
}
);
components = (
{
name = _part.barra;
transform = "{1, 0, 0, 1, -25, 0}";
}
);
layerId = "02616952-E7A2-434B-B5AA-0FE61E2963BC";
paths = (
{
closed = 1;
nodes = (
"392 0 LINE",
"402 17 OFFCURVE",
"410 48 OFFCURVE",
"414 85 CURVE",
"411 105 OFFCURVE",
"406 124 OFFCURVE",
"400 142 CURVE",
"57 112 LINE",
"57 0 LINE"
);
}
);
width = 429;
}
);
leftKerningGroup = H;
leftMetricsKey = H;
rightKerningGroup = L;
unicode = 004C;
},
{
color = 4;
glyphname = Lslash;
lastChange = "2025-09-23 11:08:22 +0000";
layers = (
{
components = (
{
name = L;
transform = "{1, 0, 0, 1, 10, 0}";
}
);
layerId = "99397DCC-BAAE-47D6-813A-D8EE2FB228A7";
paths = (
{
closed = 1;
nodes = (
"64 208 LINE",
"112 233 OFFCURVE",
"207 308 OFFCURVE",
"260 351 CURVE",
"207 420 LINE",
"142 369 OFFCURVE",
"73 318 OFFCURVE",
"0 269 CURVE",
"38 208 LINE"
);
}
);
width = 439;
},
{
components = (
{
name = L;
transform = "{1, 0, 0, 1, 10, 0}";
}
);
layerId = "02616952-E7A2-434B-B5AA-0FE61E2963BC";
paths = (
{
closed = 1;
nodes = (
"54 188 LINE",
"102 213 OFFCURVE",
"307 368 OFFCURVE",
"360 411 CURVE",
"287 500 LINE",
"222 449 OFFCURVE",
"53 318 OFFCURVE",
"-20 269 CURVE",
"28 188 LINE"
);
}
);
width = 454;
}
);
leftKerningGroup = H;
rightKerningGroup = L;
unicode = 0141;
},
{
color = 4;
glyphname = M;
lastChange = "2025-09-23 11:09:07 +0000";
layers = (
{
anchors = (
{
name = bottom;
position = "{367, 0}";
},
{
name = top;
position = "{367, 700}";
}
);
layerId = "99397DCC-BAAE-47D6-813A-D8EE2FB228A7";
paths = (
{
closed = 1;
nodes = (
"419 206 LINE",
"327 448 LINE",
"229 700 LINE",
"137 676 LINE",
"212 509 OFFCURVE",
"271 322 OFFCURVE",
"326 175 CURVE"
);
},
{
closed = 1;
nodes = (
"150 0 LINE",
"155 83 OFFCURVE",
"165 210 OFFCURVE",
"176 328 CURVE SMOOTH",
"188 447 OFFCURVE",
"199 587 OFFCURVE",
"207 631 CURVE",
"229 700 LINE",
"124 700 LINE",
"113 589 OFFCURVE",
"98 461 OFFCURVE",
"82 339 CURVE SMOOTH",
"65 209 OFFCURVE",
"48 87 OFFCURVE",
"35 0 CURVE"
);
},
{
closed = 1;
nodes = (
"464 342 OFFCURVE",
"548 577 OFFCURVE",
"598 676 CURVE",
"506 700 LINE",
"408 448 LINE",
"331 236 LINE",
"419 206 LINE"
);
},
{
closed = 1;
nodes = (
"700 0 LINE",
"687 87 OFFCURVE",
"670 209 OFFCURVE",
"653 339 CURVE SMOOTH",
"637 461 OFFCURVE",
"622 589 OFFCURVE",
"611 700 CURVE",
"506 700 LINE",
"528 631 LINE",
"536 587 OFFCURVE",
"547 447 OFFCURVE",
"559 328 CURVE SMOOTH",
"571 210 OFFCURVE",
"580 83 OFFCURVE",
"585 0 CURVE"
);
}
);
width = 735;
},
{
associatedMasterId = "99397DCC-BAAE-47D6-813A-D8EE2FB228A7";
backgroundImage = {
crop = "{{0, 0}, {49, 49.32}}";
imagePath = "../../Desktop/_ONGOING FONTS/LETTERSCANS/M-cap.jpg";
locked = "1";
transform = "{16.35999, 0, 0, 16.35999, -39, -49}";
};
layerId = "9FB8C7FB-E90E-49ED-9D19-EF01786DF327";
name = "Feb 28 19, 11:21";
paths = (
{
closed = 1;
nodes = (
"148 49 OFFCURVE",
"150 234 OFFCURVE",
"169 337 CURVE SMOOTH",
"188 439 OFFCURVE",
"212 549 OFFCURVE",
"242 700 CURVE",
"139 700 LINE",
"128 569 OFFCURVE",
"105 443 OFFCURVE",
"91 354 CURVE SMOOTH",
"69 213 OFFCURVE",
"57 123 OFFCURVE",
"20 0 CURVE",
"133 0 LINE"
);
},
{
closed = 1;
nodes = (
"739 0 LINE",
"702 123 OFFCURVE",
"689 213 OFFCURVE",
"668 354 CURVE SMOOTH",
"655 443 OFFCURVE",
"631 569 OFFCURVE",
"620 700 CURVE",
"517 700 LINE",
"547 549 OFFCURVE",
"570 439 OFFCURVE",
"590 337 CURVE SMOOTH",
"610 234 OFFCURVE",
"611 49 OFFCURVE",
"626 0 CURVE"
);
},
{
closed = 1;
nodes = (
"447 236 LINE",
"340 448 LINE",
"242 700 LINE",
"150 676 LINE",
"260 440 LINE",
"354 195 LINE"
);
},
{
closed = 1;
nodes = (
"501 440 LINE",
"611 676 LINE",
"519 700 LINE",
"421 448 LINE",
"344 266 LINE",
"417 235 LINE"
);
}
);
width = 759;
},
{
associatedMasterId = "99397DCC-BAAE-47D6-813A-D8EE2FB228A7";
backgroundImage = {
crop = "{{0, 0}, {49, 49.32}}";
imagePath = "../../Desktop/_ONGOING FONTS/LETTERSCANS/M-cap.jpg";
locked = "1";
transform = "{16.35999, 0, 0, 16.35999, -39, -49}";
};
layerId = "45E2EE85-DFDC-4E1B-AF1D-04DFFB82454C";
name = "Mar 6 19, 12:16";
paths = (
{
closed = 1;
nodes = (
"138 104 OFFCURVE",
"150 234 OFFCURVE",
"169 337 CURVE SMOOTH",
"188 439 OFFCURVE",
"212 549 OFFCURVE",
"242 700 CURVE",
"139 700 LINE",
"128 569 OFFCURVE",
"105 443 OFFCURVE",
"91 354 CURVE SMOOTH",
"69 213 OFFCURVE",
"57 123 OFFCURVE",
"20 0 CURVE",
"133 0 LINE"
);
},
{
closed = 1;
nodes = (
"739 0 LINE",
"702 123 OFFCURVE",
"689 213 OFFCURVE",
"668 354 CURVE SMOOTH",
"655 443 OFFCURVE",
"631 569 OFFCURVE",
"620 700 CURVE",
"517 700 LINE",
"547 549 OFFCURVE",
"570 439 OFFCURVE",
"590 337 CURVE SMOOTH",
"610 234 OFFCURVE",
"621 104 OFFCURVE",
"626 0 CURVE"
);
},
{
closed = 1;
nodes = (
"417 236 LINE",
"340 448 LINE",
"242 700 LINE",
"150 676 LINE",
"260 440 LINE",
"354 195 LINE"
);
},
{
closed = 1;
nodes = (
"501 440 LINE",
"611 676 LINE",
"519 700 LINE",
"421 448 LINE",
"344 266 LINE",
"417 235 LINE"
);
}
);
width = 759;
},
{
anchors = (
{
name = bottom;
position = "{395, 0}";
},
{
name = top;
position = "{395, 700}";
}
);
associatedMasterId = "99397DCC-BAAE-47D6-813A-D8EE2FB228A7";
backgroundImage = {
crop = "{{0, 0}, {49, 49.32}}";
imagePath = "../../Desktop/_ONGOING FONTS/LETTERSCANS/M-cap.jpg";
locked = "1";
transform = "{16.35999, 0, 0, 16.35999, -24, -49}";
};
layerId = "AE912CA3-812C-4020-8F68-069449A59612";
name = "Apr 18 19, 20:34";
paths = (
{
closed = 1;
nodes = (
"153 104 OFFCURVE",
"165 234 OFFCURVE",
"184 337 CURVE SMOOTH",
"203 439 OFFCURVE",
"227 549 OFFCURVE",
"257 700 CURVE",
"154 700 LINE",
"143 569 OFFCURVE",
"120 443 OFFCURVE",
"106 354 CURVE SMOOTH",
"84 213 OFFCURVE",
"72 123 OFFCURVE",
"35 0 CURVE",
"148 0 LINE"
);
},
{
closed = 1;
nodes = (
"754 0 LINE",
"717 123 OFFCURVE",
"704 213 OFFCURVE",
"683 354 CURVE SMOOTH",
"670 443 OFFCURVE",
"646 569 OFFCURVE",
"635 700 CURVE",
"532 700 LINE",
"562 549 OFFCURVE",
"585 439 OFFCURVE",
"605 337 CURVE SMOOTH",
"625 234 OFFCURVE",
"636 104 OFFCURVE",
"641 0 CURVE"
);
},
{
closed = 1;
nodes = (
"432 236 LINE",
"355 448 LINE",
"257 700 LINE",
"165 676 LINE",
"275 440 LINE",
"359 205 LINE"
);
},
{
closed = 1;
nodes = (
"516 440 LINE",
"626 676 LINE",
"534 700 LINE",
"436 448 LINE",
"359 266 LINE",
"432 235 LINE"
);
},
{
closed = 1;
nodes = (
"183 109 OFFCURVE",
"196 186 OFFCURVE",
"225 307 CURVE SMOOTH",
"250 411 OFFCURVE",
"297 589 OFFCURVE",
"327 700 CURVE",
"229 700 LINE",
"215 609 OFFCURVE",
"186 503 OFFCURVE",
"156 384 CURVE SMOOTH",
"111 207 OFFCURVE",
"87 133 OFFCURVE",
"45 0 CURVE",
"168 0 LINE"
);
},
{
closed = 1;
nodes = (
"557 0 LINE",
"516 123 OFFCURVE",
"490 207 OFFCURVE",
"441 384 CURVE SMOOTH",
"408 503 OFFCURVE",
"382 609 OFFCURVE",
"368 700 CURVE",
"265 700 LINE",
"295 589 OFFCURVE",
"342 411 OFFCURVE",
"367 307 CURVE SMOOTH",
"396 186 OFFCURVE",
"414 109 OFFCURVE",
"434 0 CURVE"
);
}
);
width = 789;
},
{
anchors = (
{
name = bottom;
position = "{397, 0}";
},
{
name = top;
position = "{397, 700}";
}
);
associatedMasterId = "99397DCC-BAAE-47D6-813A-D8EE2FB228A7";
backgroundImage = {
crop = "{{0, 0}, {49, 49.32}}";
imagePath = "../../Desktop/_ONGOING FONTS/LETTERSCANS/M-cap.jpg";
locked = "1";
transform = "{16.35999, 0, 0, 16.35999, -22, -49}";
};
layerId = "36E619B6-B8C8-46A9-A604-4AEAD66FF4E0";
name = "Apr 18 19, 20:41";
paths = (
{
closed = 1;
nodes = (
"444 236 LINE",
"357 448 LINE",
"259 700 LINE",
"167 676 LINE",
"242 509 OFFCURVE",
"306 352 OFFCURVE",
"361 205 CURVE"
);
},
{
closed = 1;
nodes = (
"488 369 OFFCURVE",
"538 491 OFFCURVE",
"628 676 CURVE",
"536 700 LINE",
"438 448 LINE",
"361 266 LINE",
"444 236 LINE"
);
},
{
closed = 1;
nodes = (
"777 0 LINE",
"747 138 OFFCURVE",
"720 265 OFFCURVE",
"701 389 CURVE SMOOTH",
"685 492 OFFCURVE",
"673 594 OFFCURVE",
"668 700 CURVE",
"535 700 LINE",
"577 601 LINE",
"592 514 OFFCURVE",
"606 400 OFFCURVE",
"618 288 CURVE SMOOTH",
"628 183 OFFCURVE",
"637 79 OFFCURVE",
"644 0 CURVE"
);
},
{
closed = 1;
nodes = (
"160 79 OFFCURVE",
"168 183 OFFCURVE",
"179 288 CURVE",
"191 400 OFFCURVE",
"205 514 OFFCURVE",
"220 601 CURVE",
"259 700 LINE",
"134 700 LINE",
"130 620 OFFCURVE",
"117 514 OFFCURVE",
"99 401 CURVE SMOOTH",
"79 267 OFFCURVE",
"52 124 OFFCURVE",
"25 0 CURVE",
"153 0 LINE"
);
}
);
width = 802;
},
{
anchors = (
{
name = bottom;
position = "{377, 0}";
},
{
name = top;
position = "{377, 700}";
}
);
associatedMasterId = "99397DCC-BAAE-47D6-813A-D8EE2FB228A7";
backgroundImage = {
crop = "{{0, 0}, {49, 49.32}}";
imagePath = "../../Desktop/_ONGOING FONTS/LETTERSCANS/M-cap.jpg";
locked = "1";
transform = "{16.35999, 0, 0, 16.35999, -42, -49}";
};
layerId = "AE970FE9-1FAF-4A3E-B736-C63C839CA4C9";
name = "Apr 21 19, 22:06";
paths = (
{
closed = 1;
nodes = (
"429 206 LINE",
"337 448 LINE",
"239 700 LINE",
"147 676 LINE",
"222 509 OFFCURVE",
"281 322 OFFCURVE",
"336 175 CURVE"
);
},
{
closed = 1;
nodes = (
"468 324 OFFCURVE",
"507 454 OFFCURVE",
"580 607 CURVE SMOOTH",
"589 626 OFFCURVE",
"598 656 OFFCURVE",
"608 676 CURVE",
"516 700 LINE",
"418 448 LINE",
"341 236 LINE",
"429 206 LINE"
);
},
{
closed = 1;
nodes = (
"737 0 LINE",
"707 138 OFFCURVE",
"680 265 OFFCURVE",
"661 389 CURVE SMOOTH",
"645 492 OFFCURVE",
"633 594 OFFCURVE",
"628 700 CURVE",
"515 700 LINE",
"537 601 LINE",
"552 514 OFFCURVE",
"566 400 OFFCURVE",
"578 288 CURVE SMOOTH",
"589 183 OFFCURVE",
"597 79 OFFCURVE",
"604 0 CURVE"
);
},
{
closed = 1;
nodes = (
"160 79 OFFCURVE",
"168 183 OFFCURVE",
"179 288 CURVE",
"191 400 OFFCURVE",
"210 564 OFFCURVE",
"225 651 CURVE",
"239 700 LINE",
"134 700 LINE",
"130 620 OFFCURVE",
"116 514 OFFCURVE",
"99 401 CURVE SMOOTH",
"79 267 OFFCURVE",
"52 124 OFFCURVE",
"25 0 CURVE",
"153 0 LINE"
);
}
);
width = 762;
},
{
anchors = (
{
name = bottom;
position = "{378, 0}";
},
{
name = top;
position = "{378, 700}";
}
);
layerId = "02616952-E7A2-434B-B5AA-0FE61E2963BC";
paths = (
{
closed = 1;
nodes = (
"444 186 LINE",
"352 428 LINE",
"264 700 LINE",
"152 676 LINE",
"242 434 OFFCURVE",
"270 308 OFFCURVE",
"321 145 CURVE"
);
},
{
closed = 1;
nodes = (
"185 0 LINE",
"190 83 OFFCURVE",
"200 210 OFFCURVE",
"211 328 CURVE SMOOTH",
"222 447 OFFCURVE",
"234 587 OFFCURVE",
"242 631 CURVE",
"264 700 LINE",
"109 700 LINE",
"98 589 OFFCURVE",
"83 461 OFFCURVE",
"67 339 CURVE SMOOTH",
"50 209 OFFCURVE",
"33 87 OFFCURVE",
"20 0 CURVE"
);
},
{
closed = 1;
nodes = (
"484 322 OFFCURVE",
"534 509 OFFCURVE",
"603 676 CURVE",
"491 700 LINE",
"403 428 LINE",
"326 236 LINE",
"444 186 LINE"
);
},
{
closed = 1;
nodes = (
"735 0 LINE",
"722 87 OFFCURVE",
"705 209 OFFCURVE",
"688 339 CURVE SMOOTH",
"672 461 OFFCURVE",
"657 589 OFFCURVE",
"646 700 CURVE",
"491 700 LINE",
"513 631 LINE",
"521 587 OFFCURVE",
"532 447 OFFCURVE",
"544 328 CURVE SMOOTH",
"556 210 OFFCURVE",
"565 83 OFFCURVE",
"570 0 CURVE"
);
}
);
width = 755;
}
);
leftKerningGroup = M;
rightKerningGroup = M;
unicode = 004D;
},
{
color = 4;
glyphname = N;
lastChange = "2025-09-27 08:38:24 +0000";
layers = (
{
anchors = (
{
name = bottom;
position = "{300, 0}";
},
{
name = top;
position = "{300, 700}";
}
);
components = (
{
name = _part.barra;
transform = "{1, 0, 0, 1, -15, 0}";
},
{
name = _part.barra;
transform = "{1, 0, 0, 1, 358, 0}";
}
);
layerId = "99397DCC-BAAE-47D6-813A-D8EE2FB228A7";
paths = (
{
closed = 1;
nodes = (
"524 0 LINE",
"310 382 LINE",
"153 700 LINE",
"54 662 LINE",
"257 293 LINE",
"407 0 LINE"
);
}
);
width = 570;
},
{
associatedMasterId = "99397DCC-BAAE-47D6-813A-D8EE2FB228A7";
layerId = "507C4FD4-E649-46AB-890D-7BBF62D3B990";
name = "Mar 6 19, 12:15";
paths = (
{
closed = 1;
nodes = (
"601 99 OFFCURVE",
"595 188 OFFCURVE",
"595 297 CURVE SMOOTH",
"595 435 OFFCURVE",
"603 556 OFFCURVE",
"607 685 CURVE",
"497 714 LINE",
"502 546 OFFCURVE",
"511 378 OFFCURVE",
"511 210 CURVE SMOOTH",
"511 111 OFFCURVE",
"507 70 OFFCURVE",
"501 0 CURVE",
"604 0 LINE"
);
},
{
closed = 1;
nodes = (
"149 99 OFFCURVE",
"143 188 OFFCURVE",
"143 297 CURVE SMOOTH",
"143 435 OFFCURVE",
"141 571 OFFCURVE",
"145 700 CURVE",
"45 714 LINE",
"50 546 OFFCURVE",
"59 378 OFFCURVE",
"59 210 CURVE SMOOTH",
"59 111 OFFCURVE",
"55 70 OFFCURVE",
"49 0 CURVE",
"152 0 LINE"
);
},
{
closed = 1;
nodes = (
"335 392 LINE",
"145 700 LINE",
"136 545 LINE",
"308 283 LINE",
"504 -22 LINE",
"604 0 LINE"
);
}
);
width = 652;
},
{
anchors = (
{
name = bottom;
position = "{296, 0}";
},
{
name = top;
position = "{296, 700}";
}
);
associatedMasterId = "99397DCC-BAAE-47D6-813A-D8EE2FB228A7";
layerId = "24B4E433-AB82-46E5-BEAF-A6E830D24FF7";
name = "Apr 19 19, 10:23";
paths = (
{
closed = 1;
nodes = (
"541 99 OFFCURVE",
"535 188 OFFCURVE",
"535 297 CURVE SMOOTH",
"535 435 OFFCURVE",
"543 561 OFFCURVE",
"547 690 CURVE",
"437 719 LINE",
"442 551 OFFCURVE",
"451 378 OFFCURVE",
"451 210 CURVE SMOOTH",
"451 111 OFFCURVE",
"447 70 OFFCURVE",
"441 0 CURVE",
"544 0 LINE"
);
},
{
closed = 1;
nodes = (
"149 99 OFFCURVE",
"143 188 OFFCURVE",
"143 297 CURVE SMOOTH",
"143 388 OFFCURVE",
"142 486 OFFCURVE",
"143 579 CURVE",
"143 628 OFFCURVE",
"144 676 OFFCURVE",
"145 720 CURVE",
"45 700 LINE",
"50 532 OFFCURVE",
"59 378 OFFCURVE",
"59 210 CURVE SMOOTH",
"59 111 OFFCURVE",
"55 70 OFFCURVE",
"49 0 CURVE",
"152 0 LINE"
);
},
{
closed = 1;
nodes = (
"325 382 LINE",
"145 720 LINE",
"136 545 LINE",
"278 283 LINE",
"444 -22 LINE",
"544 0 LINE"
);
}
);
width = 592;
},
{
anchors = (
{
name = bottom;
position = "{300, 0}";
},
{
name = top;
position = "{300, 700}";
}
);
associatedMasterId = "99397DCC-BAAE-47D6-813A-D8EE2FB228A7";
components = (
{
name = _part.barra;
transform = "{1, 0, 0, 1, -15, 0}";
},
{
name = _part.barra;
transform = "{1, 0, 0, 1, 378, 0}";
}
);
layerId = "DB1C2A19-DB08-4057-9314-4AD9633706E5";
name = "Oct 1 19, 13:49";
paths = (
{
closed = 1;
nodes = (
"330 382 LINE",
"155 708 LINE",
"94 610 LINE",
"278 283 LINE",
"439 -22 LINE",
"544 0 LINE"
);
}
);
width = 593;
},
{
anchors = (
{
name = bottom;
position = "{302, 0}";
},
{
name = top;
position = "{302, 700}";
}
);
components = (
{
name = _part.barra;
transform = "{1, 0, 0, 1, -25, 0}";
},
{
name = _part.barra;
transform = "{1, 0, 0, 1, 326, 0}";
}
);
layerId = "02616952-E7A2-434B-B5AA-0FE61E2963BC";
paths = (
{
closed = 1;
nodes = (
"543 0 LINE",
"344 382 LINE",
"202 700 LINE",
"58 662 LINE",
"251 293 LINE",
"386 0 LINE"
);
}
);
width = 588;
}
);
leftKerningGroup = H;
leftMetricsKey = H;
rightKerningGroup = H;
rightMetricsKey = H;
unicode = 004E;
},
{
color = 4;
glyphname = Eng;
lastChange = "2025-09-23 11:08:22 +0000";
layers = (
{
anchors = (
{
name = bottom;
position = "{299, 0}";
},
{
name = top;
position = "{299, 700}";
}
);
components = (
{
name = _part.barra;
transform = "{1, 0, 0, 1, -16, 0}";
}
);
layerId = "99397DCC-BAAE-47D6-813A-D8EE2FB228A7";
paths = (
{
closed = 1;
nodes = (
"523 0 LINE",
"309 382 LINE",
"152 700 LINE",
"53 662 LINE",
"256 293 LINE",
"426 -39 LINE"
);
},
{
closed = 1;
nodes = (
"435 -195 OFFCURVE",
"504 -136 OFFCURVE",
"525 -109 CURVE",
"466 -70 LINE",
"440 -89 OFFCURVE",
"400 -116 OFFCURVE",
"328 -149 CURVE",
"394 -222 LINE"
);
},
{
closed = 1;
nodes = (
"525 -109 LINE",
"521 26 OFFCURVE",
"518 230 OFFCURVE",
"518 324 CURVE SMOOTH",
"518 454 OFFCURVE",
"521 574 OFFCURVE",
"528 700 CURVE",
"418 700 LINE",
"424 574 OFFCURVE",
"427 452 OFFCURVE",
"427 330 CURVE SMOOTH",
"427 232 OFFCURVE",
"424 17 OFFCURVE",
"419 -116 CURVE"
);
}
);
width = 572;
},
{
anchors = (
{
name = bottom;
position = "{299, 0}";
},
{
name = top;
position = "{299, 700}";
}
);
components = (
{
name = _part.barra;
transform = "{1, 0, 0, 1, -16, 0}";
}
);
layerId = "02616952-E7A2-434B-B5AA-0FE61E2963BC";
paths = (
{
closed = 1;
nodes = (
"552 0 LINE",
"353 382 LINE",
"211 700 LINE",
"67 662 LINE",
"260 293 LINE",
"421 -56 LINE"
);
},
{
closed = 1;
nodes = (
"473 -187 OFFCURVE",
"515 -148 OFFCURVE",
"555 -109 CURVE",
"446 -50 LINE",
"420 -79 OFFCURVE",
"380 -96 OFFCURVE",
"298 -109 CURVE",
"401 -222 LINE"
);
},
{
closed = 1;
nodes = (
"555 -109 LINE",
"551 26 OFFCURVE",
"548 230 OFFCURVE",
"548 324 CURVE SMOOTH",
"548 454 OFFCURVE",
"551 574 OFFCURVE",
"558 700 CURVE",
"398 700 LINE",
"404 574 OFFCURVE",
"407 452 OFFCURVE",
"407 330 CURVE SMOOTH",
"407 232 OFFCURVE",
"404 17 OFFCURVE",
"399 -116 CURVE"
);
}
);
width = 600;
}
);
leftKerningGroup = H;
rightKerningGroup = H;
unicode = 014A;
},
{
color = 4;
glyphname = O;
lastChange = "2025-10-02 14:41:21 +0000";
layers = (
{
anchors = (
{
name = bottom;
position = "{266, 0}";
},
{
name = center;
position = "{266, 350}";
},
{
name = ogonek;
position = "{326, 10}";
},
{
name = top;
position = "{266, 700}";
},
{
name = topleft;
position = "{29, 700}";
},
{
name = topright;
position = "{503, 700}";
}
);
guideLines = (
{
position = "{432, 288}";
}
);
layerId = "99397DCC-BAAE-47D6-813A-D8EE2FB228A7";
paths = (
{
closed = 1;
nodes = (
"307 -10 OFFCURVE",
"348 -9 OFFCURVE",
"385 0 CURVE",
"438 71 OFFCURVE",
"496 177 OFFCURVE",
"508 288 CURVE",
"499 412 OFFCURVE",
"445 582 OFFCURVE",
"394 683 CURVE",
"351 700 OFFCURVE",
"316 710 OFFCURVE",
"271 710 CURVE SMOOTH",
"233 710 OFFCURVE",
"190 703 OFFCURVE",
"152 683 CURVE",
"88 594 OFFCURVE",
"31 424 OFFCURVE",
"24 288 CURVE",
"36 174 OFFCURVE",
"92 68 OFFCURVE",
"149 0 CURVE",
"177 -6 OFFCURVE",
"231 -10 OFFCURVE",
"271 -10 CURVE SMOOTH"
);
},
{
closed = 1;
nodes = (
"246 80 OFFCURVE",
"221 83 OFFCURVE",
"198 90 CURVE",
"162 150 OFFCURVE",
"129 219 OFFCURVE",
"118 288 CURVE",
"134 408 OFFCURVE",
"178 551 OFFCURVE",
"213 613 CURVE",
"233 620 OFFCURVE",
"250 623 OFFCURVE",
"271 623 CURVE SMOOTH",
"288 623 OFFCURVE",
"303 621 OFFCURVE",
"318 617 CURVE",
"349 550 OFFCURVE",
"397 402 OFFCURVE",
"412 288 CURVE",
"402 200 OFFCURVE",
"359 129 OFFCURVE",
"326 83 CURVE",
"305 81 OFFCURVE",
"287 80 OFFCURVE",
"271 80 CURVE SMOOTH"
);
}
);
width = 532;
},
{
associatedMasterId = "99397DCC-BAAE-47D6-813A-D8EE2FB228A7";
backgroundImage = {
crop = "{{0, 0}, {48, 52.68}}";
imagePath = "../../Desktop/_ONGOING FONTS/LETTERSCANS/O.jpg";
locked = "1";
transform = "{16.39777, 0, 0, 16.39777, -18, -57}";
};
layerId = "26AACC48-9E8A-4047-AC9D-D1F1A01215A9";
name = "Mar 12 19, 21:20";
paths = (
{
closed = 1;
nodes = (
"445 696 OFFCURVE",
"410 718 OFFCURVE",
"393 718 CURVE SMOOTH",
"319 718 OFFCURVE",
"282 713 OFFCURVE",
"207 686 CURVE",
"140 628 OFFCURVE",
"30 295 OFFCURVE",
"30 127 CURVE SMOOTH",
"30 100 OFFCURVE",
"53 72 OFFCURVE",
"76 46 CURVE SMOOTH",
"96 23 OFFCURVE",
"116 0 OFFCURVE",
"136 0 CURVE SMOOTH",
"178 0 OFFCURVE",
"420 -1 OFFCURVE",
"443 -1 CURVE",
"490 34 OFFCURVE",
"579 117 OFFCURVE",
"588 141 CURVE SMOOTH",
"597 165 OFFCURVE",
"564 283 OFFCURVE",
"547 377 CURVE",
"442 413 LINE",
"458 352 OFFCURVE",
"498 239 OFFCURVE",
"499 149 CURVE",
"469 120 OFFCURVE",
"458 110 OFFCURVE",
"403 80 CURVE",
"354 71 OFFCURVE",
"306 68 OFFCURVE",
"302 68 CURVE SMOOTH",
"227 68 OFFCURVE",
"196 77 OFFCURVE",
"185 84 CURVE SMOOTH",
"180 87 OFFCURVE",
"171 93 OFFCURVE",
"160 104 CURVE SMOOTH",
"147 117 OFFCURVE",
"125 136 OFFCURVE",
"125 159 CURVE SMOOTH",
"125 213 OFFCURVE",
"172 480 OFFCURVE",
"292 641 CURVE",
"362 643 LINE",
"442 413 LINE",
"547 377 LINE",
"456 686 LINE"
);
}
);
width = 620;
},
{
associatedMasterId = "99397DCC-BAAE-47D6-813A-D8EE2FB228A7";
backgroundImage = {
crop = "{{0, 0}, {48, 52.68}}";
imagePath = "../../Desktop/_ONGOING FONTS/LETTERSCANS/O.jpg";
locked = "1";
transform = "{16.39777, 0, 0, 16.39777, -18, -57}";
};
layerId = "4FDF43F7-F8E0-49B7-9B45-1F065C066BDE";
name = "Mar 12 19, 22:38";
paths = (
{
closed = 1;
nodes = (
"445 696 OFFCURVE",
"410 718 OFFCURVE",
"393 718 CURVE SMOOTH",
"319 718 OFFCURVE",
"282 713 OFFCURVE",
"207 686 CURVE",
"140 628 OFFCURVE",
"30 295 OFFCURVE",
"30 127 CURVE SMOOTH",
"30 100 OFFCURVE",
"53 72 OFFCURVE",
"76 46 CURVE SMOOTH",
"96 23 OFFCURVE",
"116 0 OFFCURVE",
"136 0 CURVE SMOOTH",
"178 0 OFFCURVE",
"450 -1 OFFCURVE",
"473 -1 CURVE",
"520 34 OFFCURVE",
"579 117 OFFCURVE",
"588 141 CURVE SMOOTH",
"597 165 OFFCURVE",
"564 283 OFFCURVE",
"547 377 CURVE",
"442 413 LINE",
"458 352 OFFCURVE",
"498 239 OFFCURVE",
"499 149 CURVE",
"469 120 OFFCURVE",
"458 110 OFFCURVE",
"403 80 CURVE",
"354 71 OFFCURVE",
"306 68 OFFCURVE",
"302 68 CURVE SMOOTH",
"227 68 OFFCURVE",
"196 77 OFFCURVE",
"185 84 CURVE SMOOTH",
"180 87 OFFCURVE",
"171 93 OFFCURVE",
"160 104 CURVE SMOOTH",
"147 117 OFFCURVE",
"125 136 OFFCURVE",
"125 159 CURVE SMOOTH",
"125 213 OFFCURVE",
"172 480 OFFCURVE",
"292 641 CURVE",
"362 643 LINE",
"442 413 LINE",
"547 377 LINE",
"456 686 LINE"
);
}
);
width = 620;
},
{
associatedMasterId = "99397DCC-BAAE-47D6-813A-D8EE2FB228A7";
backgroundImage = {
crop = "{{0, 0}, {48, 52.68}}";
imagePath = "../../Desktop/_ONGOING FONTS/LETTERSCANS/O.jpg";
locked = "1";
transform = "{16.39777, 0, 0, 16.39777, -18, -57}";
};
layerId = "3085D51D-3E73-404E-9A51-AC91FDAF7C50";
name = "Mar 12 19, 22:38";
paths = (
{
closed = 1;
nodes = (
"435 696 OFFCURVE",
"400 718 OFFCURVE",
"383 718 CURVE SMOOTH",
"309 718 OFFCURVE",
"282 723 OFFCURVE",
"207 696 CURVE",
"140 638 OFFCURVE",
"30 295 OFFCURVE",
"30 127 CURVE SMOOTH",
"30 100 OFFCURVE",
"53 72 OFFCURVE",
"76 46 CURVE SMOOTH",
"96 23 OFFCURVE",
"116 0 OFFCURVE",
"136 0 CURVE SMOOTH",
"178 0 OFFCURVE",
"450 -1 OFFCURVE",
"473 -1 CURVE",
"520 34 OFFCURVE",
"579 117 OFFCURVE",
"588 141 CURVE SMOOTH",
"597 165 OFFCURVE",
"564 283 OFFCURVE",
"547 377 CURVE",
"442 413 LINE",
"458 352 OFFCURVE",
"498 239 OFFCURVE",
"499 149 CURVE",
"469 120 OFFCURVE",
"458 110 OFFCURVE",
"403 80 CURVE",
"354 71 OFFCURVE",
"306 68 OFFCURVE",
"302 68 CURVE SMOOTH",
"227 68 OFFCURVE",
"196 77 OFFCURVE",
"185 84 CURVE SMOOTH",
"180 87 OFFCURVE",
"171 93 OFFCURVE",
"160 104 CURVE SMOOTH",
"147 117 OFFCURVE",
"125 136 OFFCURVE",
"125 159 CURVE SMOOTH",
"125 213 OFFCURVE",
"162 480 OFFCURVE",
"282 641 CURVE",
"352 643 LINE",
"442 413 LINE",
"547 377 LINE",
"446 686 LINE"
);
}
);
width = 620;
},
{
anchors = (
{
name = bottom;
position = "{313, 0}";
},
{
name = center;
position = "{313, 350}";
},
{
name = ogonek;
position = "{563, 10}";
},
{
name = top;
position = "{313, 700}";
},
{
name = topleft;
position = "{20, 700}";
},
{
name = topright;
position = "{605, 700}";
}
);
associatedMasterId = "99397DCC-BAAE-47D6-813A-D8EE2FB228A7";
backgroundImage = {
crop = "{{0, 0}, {48, 52.68}}";
imagePath = "../../Desktop/_ONGOING FONTS/LETTERSCANS/O.jpg";
locked = "1";
transform = "{16.39777, 0, 0, 16.39777, -18, -57}";
};
layerId = "3556B3C8-46D5-4D8E-9AAE-AA4623A1EE21";
name = "Apr 18 19, 18:02";
paths = (
{
closed = 1;
nodes = (
"30 100 OFFCURVE",
"53 72 OFFCURVE",
"76 46 CURVE SMOOTH",
"96 23 OFFCURVE",
"116 0 OFFCURVE",
"136 0 CURVE SMOOTH",
"478 -1 LINE",
"525 34 OFFCURVE",
"594 117 OFFCURVE",
"603 141 CURVE",
"595 242 OFFCURVE",
"578 285 OFFCURVE",
"552 377 CURVE SMOOTH",
"523 479 OFFCURVE",
"485 583 OFFCURVE",
"451 686 CURVE",
"440 696 OFFCURVE",
"400 718 OFFCURVE",
"383 718 CURVE SMOOTH",
"309 718 OFFCURVE",
"282 723 OFFCURVE",
"207 696 CURVE",
"140 638 OFFCURVE",
"30 295 OFFCURVE",
"30 127 CURVE"
);
},
{
closed = 1;
nodes = (
"125 213 OFFCURVE",
"162 480 OFFCURVE",
"282 641 CURVE",
"362 643 LINE",
"402 546 OFFCURVE",
"422 490 OFFCURVE",
"442 413 CURVE SMOOTH",
"458 353 OFFCURVE",
"498 249 OFFCURVE",
"499 159 CURVE",
"469 130 OFFCURVE",
"458 110 OFFCURVE",
"403 80 CURVE",
"354 71 OFFCURVE",
"306 68 OFFCURVE",
"302 68 CURVE SMOOTH",
"227 68 OFFCURVE",
"196 77 OFFCURVE",
"185 84 CURVE SMOOTH",
"180 87 OFFCURVE",
"171 93 OFFCURVE",
"160 104 CURVE SMOOTH",
"147 117 OFFCURVE",
"125 136 OFFCURVE",
"125 159 CURVE"
);
}
);
width = 625;
},
{
anchors = (
{
name = bottom;
position = "{313, 0}";
},
{
name = center;
position = "{313, 350}";
},
{
name = ogonek;
position = "{563, 10}";
},
{
name = top;
position = "{313, 700}";
},
{
name = topleft;
position = "{20, 700}";
},
{
name = topright;
position = "{605, 700}";
}
);
associatedMasterId = "99397DCC-BAAE-47D6-813A-D8EE2FB228A7";
backgroundImage = {
crop = "{{0, 0}, {48, 52.68}}";
imagePath = "../../Desktop/_ONGOING FONTS/LETTERSCANS/O.jpg";
locked = "1";
transform = "{16.39777, 0, 0, 16.39777, -18, -57}";
};
layerId = "F6E6372E-AD5D-4D1A-BC59-436F4DE394AD";
name = "Apr 18 19, 18:07";
paths = (
{
closed = 1;
nodes = (
"37 69 OFFCURVE",
"75 31 OFFCURVE",
"121 0 CURVE",
"478 -1 LINE",
"525 34 OFFCURVE",
"594 107 OFFCURVE",
"603 131 CURVE",
"595 232 OFFCURVE",
"578 285 OFFCURVE",
"552 377 CURVE SMOOTH",
"523 479 OFFCURVE",
"483 596 OFFCURVE",
"449 684 CURVE",
"413 704 OFFCURVE",
"382 710 OFFCURVE",
"333 710 CURVE SMOOTH",
"290 710 OFFCURVE",
"242 704 OFFCURVE",
"197 684 CURVE",
"130 631 OFFCURVE",
"25 285 OFFCURVE",
"15 117 CURVE"
);
},
{
closed = 1;
nodes = (
"125 223 OFFCURVE",
"182 454 OFFCURVE",
"272 626 CURVE",
"290 633 OFFCURVE",
"304 636 OFFCURVE",
"322 636 CURVE SMOOTH",
"334 636 OFFCURVE",
"350 633 OFFCURVE",
"362 626 CURVE",
"403 543 OFFCURVE",
"422 490 OFFCURVE",
"442 413 CURVE SMOOTH",
"458 353 OFFCURVE",
"498 249 OFFCURVE",
"499 159 CURVE",
"470 120 OFFCURVE",
"459 110 OFFCURVE",
"413 80 CURVE",
"374 71 OFFCURVE",
"339 68 OFFCURVE",
"302 68 CURVE SMOOTH",
"227 68 OFFCURVE",
"196 77 OFFCURVE",
"185 84 CURVE",
"162 100 OFFCURVE",
"145 117 OFFCURVE",
"125 149 CURVE"
);
}
);
width = 625;
},
{
anchors = (
{
name = bottom;
position = "{312, 0}";
},
{
name = center;
position = "{312, 350}";
},
{
name = ogonek;
position = "{561, 10}";
},
{
name = top;
position = "{312, 700}";
},
{
name = topleft;
position = "{20, 700}";
},
{
name = topright;
position = "{603, 700}";
}
);
associatedMasterId = "99397DCC-BAAE-47D6-813A-D8EE2FB228A7";
backgroundImage = {
crop = "{{0, 0}, {48, 52.68}}";
imagePath = "../../Desktop/_ONGOING FONTS/LETTERSCANS/O.jpg";
locked = "1";
transform = "{16.39777, 0, 0, 16.39777, -18, -57}";
};
layerId = "FF63DA43-5DCC-4455-A6FA-7E0B451A863F";
name = "Apr 18 19, 18:31";
paths = (
{
closed = 1;
nodes = (
"42 69 OFFCURVE",
"80 31 OFFCURVE",
"136 0 CURVE",
"478 -1 LINE",
"525 34 OFFCURVE",
"594 107 OFFCURVE",
"603 131 CURVE",
"595 232 OFFCURVE",
"573 315 OFFCURVE",
"547 407 CURVE SMOOTH",
"518 509 OFFCURVE",
"483 596 OFFCURVE",
"439 684 CURVE",
"403 704 OFFCURVE",
"382 710 OFFCURVE",
"333 710 CURVE SMOOTH",
"290 710 OFFCURVE",
"242 704 OFFCURVE",
"217 694 CURVE",
"150 641 OFFCURVE",
"30 285 OFFCURVE",
"20 117 CURVE"
);
},
{
closed = 1;
nodes = (
"130 223 OFFCURVE",
"187 444 OFFCURVE",
"277 616 CURVE",
"295 623 OFFCURVE",
"304 626 OFFCURVE",
"322 626 CURVE SMOOTH",
"334 626 OFFCURVE",
"350 623 OFFCURVE",
"362 616 CURVE",
"403 533 OFFCURVE",
"422 490 OFFCURVE",
"442 413 CURVE SMOOTH",
"458 353 OFFCURVE",
"498 249 OFFCURVE",
"499 154 CURVE",
"471 125 OFFCURVE",
"453 111 OFFCURVE",
"417 90 CURVE",
"380 80 OFFCURVE",
"339 78 OFFCURVE",
"302 78 CURVE SMOOTH",
"227 78 OFFCURVE",
"201 87 OFFCURVE",
"190 94 CURVE SMOOTH",
"168 108 OFFCURVE",
"151 125 OFFCURVE",
"130 154 CURVE"
);
}
);
width = 623;
},
{
anchors = (
{
name = bottom;
position = "{320, 0}";
},
{
name = center;
position = "{320, 350}";
},
{
name = ogonek;
position = "{569, 10}";
},
{
name = top;
position = "{320, 700}";
},
{
name = topleft;
position = "{28, 700}";
},
{
name = topright;
position = "{611, 700}";
}
);
associatedMasterId = "99397DCC-BAAE-47D6-813A-D8EE2FB228A7";
backgroundImage = {
crop = "{{0, 0}, {48, 52.68}}";
imagePath = "../../Desktop/_ONGOING FONTS/LETTERSCANS/O.jpg";
locked = "1";
transform = "{16.39777, 0, 0, 16.39777, -10, -57}";
};
layerId = "4ADE5FF0-76D4-4CB7-B3E0-B7DA9EA8FCD9";
name = "Apr 21 19, 21:32";
paths = (
{
closed = 1;
nodes = (
"42 89 OFFCURVE",
"90 35 OFFCURVE",
"146 5 CURVE",
"216 -3 OFFCURVE",
"266 -5 OFFCURVE",
"315 -5 CURVE SMOOTH",
"379 -5 OFFCURVE",
"428 -3 OFFCURVE",
"496 4 CURVE",
"545 35 OFFCURVE",
"602 107 OFFCURVE",
"611 131 CURVE",
"603 232 OFFCURVE",
"581 315 OFFCURVE",
"555 407 CURVE SMOOTH",
"526 509 OFFCURVE",
"491 596 OFFCURVE",
"447 684 CURVE",
"411 704 OFFCURVE",
"390 710 OFFCURVE",
"341 710 CURVE SMOOTH",
"298 710 OFFCURVE",
"252 704 OFFCURVE",
"227 694 CURVE",
"160 641 OFFCURVE",
"30 305 OFFCURVE",
"20 137 CURVE"
);
},
{
closed = 1;
nodes = (
"138 227 OFFCURVE",
"195 444 OFFCURVE",
"285 616 CURVE",
"303 623 OFFCURVE",
"312 626 OFFCURVE",
"330 626 CURVE SMOOTH",
"342 626 OFFCURVE",
"358 623 OFFCURVE",
"370 616 CURVE",
"411 533 OFFCURVE",
"430 490 OFFCURVE",
"450 413 CURVE SMOOTH",
"466 353 OFFCURVE",
"506 253 OFFCURVE",
"507 158 CURVE",
"479 129 OFFCURVE",
"461 119 OFFCURVE",
"425 100 CURVE",
"388 88 OFFCURVE",
"347 83 OFFCURVE",
"315 83 CURVE SMOOTH",
"266 83 OFFCURVE",
"209 95 OFFCURVE",
"198 100 CURVE",
"175 114 OFFCURVE",
"159 129 OFFCURVE",
"138 158 CURVE"
);
}
);
width = 631;
},
{
anchors = (
{
name = bottom;
position = "{320, 0}";
},
{
name = center;
position = "{320, 350}";
},
{
name = ogonek;
position = "{569, 10}";
},
{
name = top;
position = "{320, 700}";
},
{
name = topleft;
position = "{28, 700}";
},
{
name = topright;
position = "{611, 700}";
}
);
associatedMasterId = "99397DCC-BAAE-47D6-813A-D8EE2FB228A7";
backgroundImage = {
crop = "{{0, 0}, {48, 52.68}}";
imagePath = "../../Desktop/_ONGOING FONTS/LETTERSCANS/O.jpg";
locked = "1";
transform = "{16.39777, 0, 0, 16.39777, -10, -57}";
};
layerId = "F962898D-2E14-42EB-96A5-EF8EAFE367E1";
name = "Apr 21 19, 21:49";
paths = (
{
closed = 1;
nodes = (
"57 99 OFFCURVE",
"100 45 OFFCURVE",
"146 5 CURVE",
"216 -3 OFFCURVE",
"266 -5 OFFCURVE",
"315 -5 CURVE SMOOTH",
"379 -5 OFFCURVE",
"408 -3 OFFCURVE",
"476 4 CURVE",
"525 45 OFFCURVE",
"587 117 OFFCURVE",
"616 159 CURVE",
"608 252 OFFCURVE",
"589 325 OFFCURVE",
"555 417 CURVE SMOOTH",
"519 516 OFFCURVE",
"491 596 OFFCURVE",
"447 684 CURVE",
"411 704 OFFCURVE",
"390 710 OFFCURVE",
"341 710 CURVE SMOOTH",
"298 710 OFFCURVE",
"252 704 OFFCURVE",
"227 694 CURVE",
"160 641 OFFCURVE",
"45 345 OFFCURVE",
"25 169 CURVE"
);
},
{
closed = 1;
nodes = (
"138 282 OFFCURVE",
"195 444 OFFCURVE",
"285 616 CURVE",
"303 623 OFFCURVE",
"312 626 OFFCURVE",
"330 626 CURVE SMOOTH",
"342 626 OFFCURVE",
"358 623 OFFCURVE",
"370 616 CURVE",
"411 533 OFFCURVE",
"426 490 OFFCURVE",
"450 413 CURVE SMOOTH",
"469 353 OFFCURVE",
"486 298 OFFCURVE",
"507 208 CURVE",
"478 154 OFFCURVE",
"465 138 OFFCURVE",
"425 100 CURVE",
"388 88 OFFCURVE",
"347 83 OFFCURVE",
"315 83 CURVE SMOOTH",
"266 83 OFFCURVE",
"209 95 OFFCURVE",
"198 100 CURVE",
"166 141 OFFCURVE",
"157 155 OFFCURVE",
"138 208 CURVE"
);
}
);
width = 636;
},
{
anchors = (
{
name = bottom;
position = "{320, 0}";
},
{
name = center;
position = "{320, 350}";
},
{
name = ogonek;
position = "{569, 10}";
},
{
name = top;
position = "{320, 700}";
},
{
name = topleft;
position = "{28, 700}";
},
{
name = topright;
position = "{611, 700}";
}
);
associatedMasterId = "99397DCC-BAAE-47D6-813A-D8EE2FB228A7";
backgroundImage = {
crop = "{{0, 0}, {48, 52.68}}";
imagePath = "../../Desktop/_ONGOING FONTS/LETTERSCANS/O.jpg";
locked = "1";
transform = "{16.39777, 0, 0, 16.39777, -10, -57}";
};
layerId = "9288086D-83E6-4621-9BB4-4F5D9C4F6019";
name = "Apr 21 19, 21:52";
paths = (
{
closed = 1;
nodes = (
"67 99 OFFCURVE",
"100 45 OFFCURVE",
"146 5 CURVE",
"216 -3 OFFCURVE",
"266 -5 OFFCURVE",
"315 -5 CURVE SMOOTH",
"379 -5 OFFCURVE",
"408 -3 OFFCURVE",
"476 4 CURVE",
"525 45 OFFCURVE",
"577 117 OFFCURVE",
"606 159 CURVE",
"593 252 OFFCURVE",
"577 325 OFFCURVE",
"550 417 CURVE SMOOTH",
"521 517 OFFCURVE",
"491 596 OFFCURVE",
"447 684 CURVE",
"411 704 OFFCURVE",
"390 710 OFFCURVE",
"341 710 CURVE SMOOTH",
"298 710 OFFCURVE",
"252 704 OFFCURVE",
"227 694 CURVE",
"160 641 OFFCURVE",
"55 345 OFFCURVE",
"35 169 CURVE"
);
},
{
closed = 1;
nodes = (
"138 282 OFFCURVE",
"195 444 OFFCURVE",
"285 616 CURVE",
"303 623 OFFCURVE",
"312 626 OFFCURVE",
"330 626 CURVE SMOOTH",
"342 626 OFFCURVE",
"358 623 OFFCURVE",
"370 616 CURVE",
"411 533 OFFCURVE",
"426 490 OFFCURVE",
"450 413 CURVE SMOOTH",
"469 353 OFFCURVE",
"486 298 OFFCURVE",
"507 208 CURVE",
"478 154 OFFCURVE",
"465 138 OFFCURVE",
"425 100 CURVE",
"388 88 OFFCURVE",
"347 83 OFFCURVE",
"315 83 CURVE SMOOTH",
"266 83 OFFCURVE",
"209 95 OFFCURVE",
"198 100 CURVE",
"166 141 OFFCURVE",
"157 155 OFFCURVE",
"138 208 CURVE"
);
}
);
width = 636;
},
{
anchors = (
{
name = bottom;
position = "{311, 0}";
},
{
name = center;
position = "{310, 350}";
},
{
name = ogonek;
position = "{559, 10}";
},
{
name = top;
position = "{311, 700}";
},
{
name = topleft;
position = "{20, 700}";
},
{
name = topright;
position = "{601, 700}";
}
);
associatedMasterId = "99397DCC-BAAE-47D6-813A-D8EE2FB228A7";
backgroundImage = {
crop = "{{0, 0}, {48, 52.68}}";
imagePath = "../../Desktop/_ONGOING FONTS/LETTERSCANS/O.jpg";
locked = "1";
transform = "{16.39777, 0, 0, 16.39777, -20, -57}";
};
layerId = "27283493-4724-4DDB-AB09-5EED8C90BEE7";
name = "May 12 19, 09:49";
paths = (
{
closed = 1;
nodes = (
"52 109 OFFCURVE",
"90 45 OFFCURVE",
"136 5 CURVE",
"206 -3 OFFCURVE",
"256 -5 OFFCURVE",
"305 -5 CURVE SMOOTH",
"369 -5 OFFCURVE",
"398 -3 OFFCURVE",
"466 4 CURVE",
"514 46 OFFCURVE",
"581 138 OFFCURVE",
"601 209 CURVE",
"571 373 OFFCURVE",
"517 535 OFFCURVE",
"437 684 CURVE",
"401 704 OFFCURVE",
"380 710 OFFCURVE",
"331 710 CURVE SMOOTH",
"288 710 OFFCURVE",
"242 704 OFFCURVE",
"217 694 CURVE",
"150 641 OFFCURVE",
"40 385 OFFCURVE",
"20 209 CURVE"
);
},
{
closed = 1;
nodes = (
"138 302 OFFCURVE",
"185 444 OFFCURVE",
"275 616 CURVE",
"293 623 OFFCURVE",
"302 626 OFFCURVE",
"320 626 CURVE SMOOTH",
"332 626 OFFCURVE",
"348 623 OFFCURVE",
"360 616 CURVE",
"412 520 OFFCURVE",
"479 328 OFFCURVE",
"497 228 CURVE",
"464 159 OFFCURVE",
"451 142 OFFCURVE",
"415 100 CURVE",
"378 88 OFFCURVE",
"337 83 OFFCURVE",
"305 83 CURVE SMOOTH",
"256 83 OFFCURVE",
"199 95 OFFCURVE",
"188 100 CURVE",
"160 145 OFFCURVE",
"151 159 OFFCURVE",
"128 228 CURVE"
);
}
);
width = 621;
},
{
anchors = (
{
name = bottom;
position = "{309, 0}";
},
{
name = center;
position = "{308, 350}";
},
{
name = ogonek;
position = "{557, 10}";
},
{
name = top;
position = "{328, 700}";
},
{
name = topleft;
position = "{18, 700}";
},
{
name = topright;
position = "{599, 700}";
}
);
associatedMasterId = "99397DCC-BAAE-47D6-813A-D8EE2FB228A7";
backgroundImage = {
crop = "{{0, 0}, {48, 52.68}}";
imagePath = "../../Desktop/_ONGOING FONTS/LETTERSCANS/O.jpg";
locked = "1";
transform = "{16.39777, 0, 0, 16.39777, -22, -57}";
};
guideLines = (
{
position = "{33, 243}";
},
{
position = "{34, 190}";
}
);
layerId = "4037B4A8-69DE-4690-83FB-22572C737586";
name = "Jun 28 19, 13:33";
paths = (
{
closed = 1;
nodes = (
"26 226 OFFCURVE",
"25 214 CURVE",
"26 203 OFFCURVE",
"28 196 OFFCURVE",
"30 190 CURVE SMOOTH",
"59 102 OFFCURVE",
"81 70 OFFCURVE",
"124 5 CURVE",
"194 -3 OFFCURVE",
"254 -5 OFFCURVE",
"303 -5 CURVE SMOOTH",
"367 -5 OFFCURVE",
"416 -3 OFFCURVE",
"484 4 CURVE",
"528 60 OFFCURVE",
"571 123 OFFCURVE",
"593 190 CURVE SMOOTH",
"594 193 OFFCURVE",
"596 201 OFFCURVE",
"597 213 CURVE",
"596 224 OFFCURVE",
"594 237 OFFCURVE",
"592 245 CURVE SMOOTH",
"555 394 OFFCURVE",
"511 546 OFFCURVE",
"437 684 CURVE",
"401 704 OFFCURVE",
"378 710 OFFCURVE",
"329 710 CURVE SMOOTH",
"286 710 OFFCURVE",
"250 704 OFFCURVE",
"225 694 CURVE",
"162 644 OFFCURVE",
"58 416 OFFCURVE",
"29 243 CURVE SMOOTH",
"27 231 OFFCURVE"
);
},
{
closed = 1;
nodes = (
"136 302 OFFCURVE",
"183 438 OFFCURVE",
"273 610 CURVE",
"291 617 OFFCURVE",
"300 620 OFFCURVE",
"318 620 CURVE SMOOTH",
"330 620 OFFCURVE",
"346 617 OFFCURVE",
"358 610 CURVE",
"410 514 OFFCURVE",
"477 328 OFFCURVE",
"495 228 CURVE",
"462 159 OFFCURVE",
"449 144 OFFCURVE",
"413 102 CURVE",
"376 90 OFFCURVE",
"335 85 OFFCURVE",
"303 85 CURVE SMOOTH",
"254 85 OFFCURVE",
"197 97 OFFCURVE",
"186 102 CURVE",
"156 145 OFFCURVE",
"149 159 OFFCURVE",
"126 228 CURVE"
);
}
);
width = 622;
},
{
anchors = (
{
name = bottom;
position = "{304, 0}";
},
{
name = center;
position = "{303, 350}";
},
{
name = ogonek;
position = "{552, 10}";
},
{
name = top;
position = "{323, 700}";
},
{
name = topleft;
position = "{13, 700}";
},
{
name = topright;
position = "{594, 700}";
}
);
associatedMasterId = "99397DCC-BAAE-47D6-813A-D8EE2FB228A7";
guideLines = (
{
position = "{28, 243}";
},
{
position = "{29, 190}";
}
);
layerId = "2D08597F-CDA7-4055-A321-F2C3FCE2891C";
name = "Sep 30 19, 19:19";
paths = (
{
closed = 1;
nodes = (
"27 231 OFFCURVE",
"26 226 OFFCURVE",
"25 214 CURVE",
"26 203 OFFCURVE",
"28 196 OFFCURVE",
"30 190 CURVE SMOOTH",
"59 102 OFFCURVE",
"81 66 OFFCURVE",
"124 1 CURVE",
"184 -3 OFFCURVE",
"228 -5 OFFCURVE",
"298 -5 CURVE SMOOTH",
"368 -5 OFFCURVE",
"414 -3 OFFCURVE",
"474 0 CURVE",
"518 56 OFFCURVE",
"561 123 OFFCURVE",
"583 190 CURVE SMOOTH",
"584 193 OFFCURVE",
"586 201 OFFCURVE",
"587 213 CURVE",
"586 224 OFFCURVE",
"584 237 OFFCURVE",
"582 245 CURVE SMOOTH",
"545 394 OFFCURVE",
"501 546 OFFCURVE",
"427 684 CURVE",
"391 704 OFFCURVE",
"368 710 OFFCURVE",
"324 710 CURVE SMOOTH",
"286 710 OFFCURVE",
"250 704 OFFCURVE",
"225 694 CURVE",
"191 667 OFFCURVE",
"147 588 OFFCURVE",
"107 493 CURVE SMOOTH",
"73 413 OFFCURVE",
"42 322 OFFCURVE",
"29 243 CURVE SMOOTH"
);
},
{
closed = 1;
nodes = (
"129 300 OFFCURVE",
"178 438 OFFCURVE",
"268 610 CURVE",
"286 617 OFFCURVE",
"295 620 OFFCURVE",
"313 620 CURVE SMOOTH",
"325 620 OFFCURVE",
"341 617 OFFCURVE",
"353 610 CURVE",
"405 514 OFFCURVE",
"472 328 OFFCURVE",
"490 228 CURVE",
"457 159 OFFCURVE",
"446 139 OFFCURVE",
"410 96 CURVE",
"383 89 OFFCURVE",
"350 83 OFFCURVE",
"298 83 CURVE SMOOTH",
"249 83 OFFCURVE",
"207 89 OFFCURVE",
"177 96 CURVE",
"149 138 OFFCURVE",
"142 157 OFFCURVE",
"119 226 CURVE"
);
}
);
width = 612;
},
{
anchors = (
{
name = bottom;
position = "{296, 0}";
},
{
name = center;
position = "{290, 350}";
},
{
name = ogonek;
position = "{385, 10}";
},
{
name = top;
position = "{296, 700}";
},
{
name = topleft;
position = "{16, 700}";
},
{
name = topright;
position = "{575, 700}";
}
);
guideLines = (
{
angle = 270;
position = "{301, 645}";
}
);
layerId = "02616952-E7A2-434B-B5AA-0FE61E2963BC";
paths = (
{
closed = 1;
nodes = (
"350 -15 OFFCURVE",
"409 -9 OFFCURVE",
"454 0 CURVE",
"529 107 OFFCURVE",
"570 224 OFFCURVE",
"570 286 CURVE SMOOTH",
"570 396 OFFCURVE",
"519 555 OFFCURVE",
"445 683 CURVE",
"392 700 OFFCURVE",
"341 710 OFFCURVE",
"301 710 CURVE SMOOTH",
"241 710 OFFCURVE",
"189 699 OFFCURVE",
"158 683 CURVE",
"94 610 OFFCURVE",
"20 375 OFFCURVE",
"20 279 CURVE SMOOTH",
"20 209 OFFCURVE",
"80 50 OFFCURVE",
"140 0 CURVE",
"182 -9 OFFCURVE",
"243 -15 OFFCURVE",
"301 -15 CURVE SMOOTH"
);
},
{
closed = 1;
nodes = (
"281 110 OFFCURVE",
"260 112 OFFCURVE",
"241 115 CURVE",
"207 166 OFFCURVE",
"182 235 OFFCURVE",
"176 294 CURVE",
"189 401 OFFCURVE",
"220 511 OFFCURVE",
"256 570 CURVE",
"267 575 OFFCURVE",
"283 579 OFFCURVE",
"301 579 CURVE SMOOTH",
"313 579 OFFCURVE",
"329 574 OFFCURVE",
"340 571 CURVE",
"378 494 OFFCURVE",
"405 389 OFFCURVE",
"419 288 CURVE",
"414 240 OFFCURVE",
"386 171 OFFCURVE",
"353 115 CURVE",
"334 112 OFFCURVE",
"324 110 OFFCURVE",
"301 110 CURVE SMOOTH"
);
}
);
width = 590;
}
);
leftKerningGroup = O;
rightKerningGroup = O;
unicode = 004F;
},
{
color = 4;
glyphname = Oslash;
lastChange = "2025-09-23 11:08:22 +0000";
layers = (
{
anchors = (
{
name = bottom;
position = "{264, 0}";
},
{
name = top;
position = "{264, 700}";
}
);
layerId = "99397DCC-BAAE-47D6-813A-D8EE2FB228A7";
paths = (
{
closed = 1;
nodes = (
"134 47 OFFCURVE",
"239 238 OFFCURVE",
"290 321 CURVE SMOOTH",
"351 421 OFFCURVE",
"457 588 OFFCURVE",
"523 668 CURVE",
"425 727 LINE",
"389 643 OFFCURVE",
"280 460 OFFCURVE",
"222 365 CURVE SMOOTH",
"171 281 OFFCURVE",
"70 104 OFFCURVE",
"5 24 CURVE",
"99 -38 LINE"
);
},
{
closed = 1;
nodes = (
"300 -5 OFFCURVE",
"342 -2 OFFCURVE",
"378 5 CURVE",
"431 76 OFFCURVE",
"489 197 OFFCURVE",
"501 308 CURVE",
"492 432 OFFCURVE",
"438 582 OFFCURVE",
"387 683 CURVE",
"334 700 OFFCURVE",
"302 710 OFFCURVE",
"264 710 CURVE SMOOTH",
"206 710 OFFCURVE",
"183 703 OFFCURVE",
"145 683 CURVE",
"81 594 OFFCURVE",
"24 444 OFFCURVE",
"17 308 CURVE",
"29 194 OFFCURVE",
"85 73 OFFCURVE",
"142 5 CURVE",
"167 -1 OFFCURVE",
"212 -5 OFFCURVE",
"261 -5 CURVE SMOOTH"
);
},
{
closed = 1;
nodes = (
"240 72 OFFCURVE",
"214 74 OFFCURVE",
"190 82 CURVE",
"152 149 OFFCURVE",
"116 233 OFFCURVE",
"105 306 CURVE",
"121 432 OFFCURVE",
"168 559 OFFCURVE",
"204 624 CURVE",
"220 631 OFFCURVE",
"245 636 OFFCURVE",
"265 636 CURVE SMOOTH",
"278 636 OFFCURVE",
"297 633 OFFCURVE",
"316 627 CURVE",
"349 557 OFFCURVE",
"398 424 OFFCURVE",
"413 306 CURVE",
"403 217 OFFCURVE",
"361 126 OFFCURVE",
"327 75 CURVE",
"303 72 OFFCURVE",
"283 72 OFFCURVE",
"265 72 CURVE SMOOTH"
);
}
);
width = 528;
},
{
anchors = (
{
name = bottom;
position = "{300, 0}";
},
{
name = top;
position = "{300, 700}";
}
);
layerId = "02616952-E7A2-434B-B5AA-0FE61E2963BC";
paths = (
{
closed = 1;
nodes = (
"189 27 OFFCURVE",
"294 218 OFFCURVE",
"345 301 CURVE SMOOTH",
"406 401 OFFCURVE",
"512 578 OFFCURVE",
"578 658 CURVE",
"440 727 LINE",
"404 643 OFFCURVE",
"295 450 OFFCURVE",
"237 355 CURVE SMOOTH",
"186 271 OFFCURVE",
"85 94 OFFCURVE",
"20 14 CURVE",
"154 -58 LINE"
);
},
{
closed = 1;
nodes = (
"361 -6 OFFCURVE",
"413 -2 OFFCURVE",
"462 10 CURVE",
"537 117 OFFCURVE",
"574 224 OFFCURVE",
"574 286 CURVE SMOOTH",
"574 396 OFFCURVE",
"523 555 OFFCURVE",
"449 683 CURVE",
"396 700 OFFCURVE",
"354 710 OFFCURVE",
"314 710 CURVE SMOOTH",
"254 710 OFFCURVE",
"193 699 OFFCURVE",
"162 683 CURVE",
"98 610 OFFCURVE",
"24 375 OFFCURVE",
"24 279 CURVE SMOOTH",
"24 209 OFFCURVE",
"79 60 OFFCURVE",
"139 10 CURVE",
"163 5 OFFCURVE",
"233 -6 OFFCURVE",
"313 -6 CURVE SMOOTH"
);
},
{
closed = 1;
nodes = (
"290 121 OFFCURVE",
"261 124 OFFCURVE",
"233 128 CURVE",
"196 182 OFFCURVE",
"170 229 OFFCURVE",
"164 294 CURVE",
"178 413 OFFCURVE",
"213 516 OFFCURVE",
"253 581 CURVE",
"265 586 OFFCURVE",
"282 590 OFFCURVE",
"302 590 CURVE SMOOTH",
"315 590 OFFCURVE",
"329 588 OFFCURVE",
"340 586 CURVE",
"382 500 OFFCURVE",
"418 399 OFFCURVE",
"433 287 CURVE",
"427 234 OFFCURVE",
"406 187 OFFCURVE",
"370 127 CURVE",
"349 124 OFFCURVE",
"330 121 OFFCURVE",
"317 121 CURVE SMOOTH"
);
}
);
width = 598;
}
);
leftKerningGroup = Oslash;
rightKerningGroup = Oslash;
unicode = 00D8;
},
{
color = 4;
glyphname = OE;
lastChange = "2025-09-27 08:39:05 +0000";
layers = (
{
components = (
{
name = _part.cg;
transform = "{1, 0, 0, 1, -6, 0}";
},
{
name = _part.barra;
transform = "{1, 0, 0, 1, 264, 0}";
}
);
layerId = "99397DCC-BAAE-47D6-813A-D8EE2FB228A7";
paths = (
{
closed = 1;
nodes = (
"670 625 OFFCURVE",
"678 646 OFFCURVE",
"682 673 CURVE",
"668 700 LINE",
"332 700 LINE",
"380 618 LINE",
"660 608 LINE"
);
},
{
closed = 1;
nodes = (
"665 0 LINE",
"675 17 OFFCURVE",
"683 38 OFFCURVE",
"687 65 CURVE",
"673 92 LINE",
"380 87 LINE",
"380 0 LINE"
);
},
{
closed = 1;
nodes = (
"585 311 OFFCURVE",
"597 330 OFFCURVE",
"605 353 CURVE",
"595 393 LINE",
"380 383 LINE",
"380 304 LINE",
"567 294 LINE"
);
}
);
width = 717;
},
{
components = (
{
name = _part.cg;
transform = "{1, 0, 0, 1, -4, 0}";
},
{
name = _part.barra;
transform = "{1, 0, 0, 1, 266, 0}";
}
);
layerId = "02616952-E7A2-434B-B5AA-0FE61E2963BC";
paths = (
{
closed = 1;
nodes = (
"715 585 OFFCURVE",
"723 616 OFFCURVE",
"727 653 CURVE",
"713 700 LINE",
"395 700 LINE",
"393 578 LINE",
"705 558 LINE"
);
},
{
closed = 1;
nodes = (
"693 0 LINE",
"703 17 OFFCURVE",
"711 48 OFFCURVE",
"715 85 CURVE",
"701 142 LINE",
"398 122 LINE",
"398 0 LINE"
);
},
{
closed = 1;
nodes = (
"654 299 OFFCURVE",
"666 330 OFFCURVE",
"673 363 CURVE",
"663 413 LINE",
"398 403 LINE",
"398 284 LINE",
"635 274 LINE"
);
}
);
width = 742;
}
);
leftKerningGroup = O;
leftMetricsKey = O;
rightKerningGroup = E;
rightMetricsKey = E;
unicode = 0152;
},
{
color = 4;
glyphname = P;
lastChange = "2025-10-02 14:19:20 +0000";
layers = (
{
components = (
{
name = _part.barra;
transform = "{1, 0, 0, 1, -15, 0}";
}
);
layerId = "99397DCC-BAAE-47D6-813A-D8EE2FB228A7";
paths = (
{
closed = 1;
nodes = (
"176 203 OFFCURVE",
"269 219 OFFCURVE",
"328 240 CURVE",
"350 256 OFFCURVE",
"380 295 OFFCURVE",
"396 329 CURVE SMOOTH",
"418 374 OFFCURVE",
"436 443 OFFCURVE",
"436 487 CURVE SMOOTH",
"436 544 OFFCURVE",
"401 628 OFFCURVE",
"349 698 CURVE",
"307 707 OFFCURVE",
"256 711 OFFCURVE",
"204 711 CURVE SMOOTH",
"149 711 OFFCURVE",
"92 707 OFFCURVE",
"45 700 CURVE",
"61 597 LINE",
"168 621 OFFCURVE",
"266 635 OFFCURVE",
"303 622 CURVE",
"276 655 LINE",
"305 599 OFFCURVE",
"334 537 OFFCURVE",
"344 499 CURVE",
"337 437 OFFCURVE",
"321 373 OFFCURVE",
"305 338 CURVE",
"294 325 OFFCURVE",
"283 317 OFFCURVE",
"270 309 CURVE",
"220 301 OFFCURVE",
"152 298 OFFCURVE",
"116 301 CURVE",
"116 203 LINE"
);
}
);
width = 461;
},
{
associatedMasterId = "99397DCC-BAAE-47D6-813A-D8EE2FB228A7";
backgroundImage = {
crop = "{{0, 0}, {31.92, 49.68}}";
imagePath = "../../Desktop/_ONGOING FONTS/LETTERSCANS/P.jpg";
locked = "1";
transform = "{16.44407, 0, 0, 16.44407, 35, -52}";
};
layerId = "93273888-1B84-4F4E-A734-0E24A55581F7";
name = "Mar 6 19, 14:09";
paths = (
{
closed = 1;
nodes = (
"151 0 LINE",
"145 70 OFFCURVE",
"141 111 OFFCURVE",
"141 210 CURVE SMOOTH",
"141 378 OFFCURVE",
"150 546 OFFCURVE",
"155 714 CURVE",
"45 685 LINE",
"49 556 OFFCURVE",
"57 435 OFFCURVE",
"57 297 CURVE SMOOTH",
"57 188 OFFCURVE",
"51 99 OFFCURVE",
"48 0 CURVE"
);
},
{
closed = 1;
nodes = (
"262 221 LINE",
"351 261 OFFCURVE",
"429 317 OFFCURVE",
"489 381 CURVE",
"446 432 LINE",
"405 393 LINE",
"254 305 LINE",
"112 305 LINE",
"110 221 LINE"
);
},
{
closed = 1;
nodes = (
"241 622 LINE",
"326 622 OFFCURVE",
"407 577 OFFCURVE",
"407 558 CURVE SMOOTH",
"407 483 OFFCURVE",
"407 430 OFFCURVE",
"406 393 CURVE",
"489 381 LINE",
"490 568 LINE",
"490 639 OFFCURVE",
"331 719 OFFCURVE",
"263 719 CURVE"
);
},
{
closed = 1;
nodes = (
"344 686 LINE",
"333 696 OFFCURVE",
"278 719 OFFCURVE",
"261 719 CURVE SMOOTH",
"234 719 OFFCURVE",
"179 669 OFFCURVE",
"124 622 CURVE",
"114 586 OFFCURVE",
"108 545 OFFCURVE",
"90 501 CURVE",
"136 448 LINE",
"142 475 OFFCURVE",
"147 503 OFFCURVE",
"149 529 CURVE",
"170 550 OFFCURVE",
"181 567 OFFCURVE",
"211 593 CURVE SMOOTH",
"227 607 OFFCURVE",
"242 622 OFFCURVE",
"259 622 CURVE",
"276 622 LINE"
);
}
);
width = 529;
},
{
anchors = (
{
name = bottom;
position = "{263, 0}";
},
{
name = top;
position = "{263, 700}";
}
);
annotations = (
{
position = "{222.212, 726.32}";
type = Plus;
}
);
associatedMasterId = "99397DCC-BAAE-47D6-813A-D8EE2FB228A7";
backgroundImage = {
crop = "{{0, 0}, {31.92, 49.68}}";
imagePath = "../../Desktop/_ONGOING FONTS/LETTERSCANS/P.jpg";
locked = "1";
transform = "{16.44407, 0, 0, 16.44407, 35, -52}";
};
layerId = "20916B94-A2CD-4DAE-9802-95B7E40FB02B";
name = "Apr 19 19, 18:29";
paths = (
{
closed = 1;
nodes = (
"151 0 LINE",
"145 70 OFFCURVE",
"141 111 OFFCURVE",
"141 210 CURVE SMOOTH",
"141 378 OFFCURVE",
"150 546 OFFCURVE",
"155 714 CURVE",
"45 685 LINE",
"49 556 OFFCURVE",
"57 435 OFFCURVE",
"57 297 CURVE SMOOTH",
"57 188 OFFCURVE",
"51 99 OFFCURVE",
"48 0 CURVE"
);
},
{
closed = 1;
nodes = (
"262 221 LINE",
"351 261 OFFCURVE",
"419 279 OFFCURVE",
"490 353 CURVE",
"396 393 LINE",
"254 305 LINE",
"112 305 LINE",
"110 221 LINE"
);
},
{
closed = 1;
nodes = (
"241 622 LINE",
"326 622 OFFCURVE",
"397 577 OFFCURVE",
"397 558 CURVE SMOOTH",
"396 483 OFFCURVE",
"397 430 OFFCURVE",
"396 393 CURVE",
"490 353 LINE",
"490 568 LINE",
"490 639 OFFCURVE",
"331 719 OFFCURVE",
"263 719 CURVE"
);
},
{
closed = 1;
nodes = (
"344 686 LINE",
"333 696 OFFCURVE",
"278 719 OFFCURVE",
"261 719 CURVE SMOOTH",
"234 719 OFFCURVE",
"179 669 OFFCURVE",
"124 622 CURVE",
"114 586 OFFCURVE",
"108 545 OFFCURVE",
"90 501 CURVE",
"136 448 LINE",
"142 475 OFFCURVE",
"147 503 OFFCURVE",
"149 529 CURVE",
"170 550 OFFCURVE",
"182 566 OFFCURVE",
"211 593 CURVE SMOOTH",
"227 607 OFFCURVE",
"242 622 OFFCURVE",
"259 622 CURVE",
"276 622 LINE"
);
}
);
width = 525;
},
{
components = (
{
name = _part.barra;
transform = "{1, 0, 0, 1, -25, 0}";
}
);
layerId = "02616952-E7A2-434B-B5AA-0FE61E2963BC";
paths = (
{
closed = 1;
nodes = (
"224 157 OFFCURVE",
"321 179 OFFCURVE",
"378 199 CURVE",
"409 232 OFFCURVE",
"446 285 OFFCURVE",
"462 319 CURVE SMOOTH",
"479 353 OFFCURVE",
"492 432 OFFCURVE",
"492 500 CURVE SMOOTH",
"492 544 OFFCURVE",
"451 625 OFFCURVE",
"389 698 CURVE",
"347 707 OFFCURVE",
"284 711 OFFCURVE",
"220 711 CURVE SMOOTH",
"152 711 OFFCURVE",
"82 707 OFFCURVE",
"35 700 CURVE",
"65 557 LINE",
"200 587 OFFCURVE",
"319 597 OFFCURVE",
"363 582 CURVE",
"256 655 LINE",
"295 599 OFFCURVE",
"334 530 OFFCURVE",
"344 492 CURVE",
"339 412 OFFCURVE",
"332 383 OFFCURVE",
"316 338 CURVE",
"305 326 OFFCURVE",
"288 315 OFFCURVE",
"270 309 CURVE",
"224 302 OFFCURVE",
"151 297 OFFCURVE",
"106 301 CURVE",
"106 157 LINE"
);
}
);
width = 512;
},
{
associatedMasterId = "99397DCC-BAAE-47D6-813A-D8EE2FB228A7";
backgroundImage = {
crop = "{{0, 0}, {31.92, 54.48}}";
imagePath = "../../Desktop/Documents/PERSONAL TYPEFACES/CANARINA/_LETTERSCANS-NEWNEW/P-newnew.jpg";
locked = "1";
transform = "{16.23089, -0.49015, 0.49015, 16.23089, -77, -66}";
};
components = (
{
name = _part.barra;
transform = "{1, 0, 0, 1, 4, 0}";
}
);
layerId = "533B6245-492A-450E-9054-85624D4AC18B";
name = "May 16 20, 18:52";
paths = (
{
closed = 1;
nodes = (
"425 442 OFFCURVE",
"353 695 OFFCURVE",
"338 698 CURVE SMOOTH",
"251 717 OFFCURVE",
"132 715 OFFCURVE",
"40 702 CURVE",
"40 597 LINE",
"147 621 OFFCURVE",
"255 635 OFFCURVE",
"292 622 CURVE",
"265 655 LINE",
"294 599 OFFCURVE",
"333 454 OFFCURVE",
"343 416 CURVE",
"340 395 OFFCURVE",
"336 373 OFFCURVE",
"329 352 CURVE",
"239 263 LINE",
"112 278 LINE",
"113 192 LINE",
"166 184 OFFCURVE",
"202 179 OFFCURVE",
"274 179 CURVE",
"325 218 OFFCURVE",
"390 295 OFFCURVE",
"407 331 CURVE",
"416 360 OFFCURVE",
"422 388 OFFCURVE",
"425 417 CURVE"
);
}
);
width = 510;
},
{
associatedMasterId = "99397DCC-BAAE-47D6-813A-D8EE2FB228A7";
components = (
{
name = _part.barra;
transform = "{1, 0, 0, 1, 4, 0}";
}
);
layerId = "1D891BD2-58BE-4C53-BBCC-49E4D1EA32D7";
name = "May 16 20, 18:54";
paths = (
{
closed = 1;
nodes = (
"430 472 OFFCURVE",
"358 695 OFFCURVE",
"343 698 CURVE SMOOTH",
"256 717 OFFCURVE",
"132 715 OFFCURVE",
"40 702 CURVE",
"40 597 LINE",
"147 621 OFFCURVE",
"260 635 OFFCURVE",
"297 622 CURVE",
"270 655 LINE",
"299 599 OFFCURVE",
"338 484 OFFCURVE",
"348 446 CURVE",
"345 425 OFFCURVE",
"341 403 OFFCURVE",
"334 382 CURVE",
"311 332 OFFCURVE",
"279 293 OFFCURVE",
"256 263 CURVE",
"112 278 LINE",
"113 192 LINE",
"166 184 OFFCURVE",
"227 179 OFFCURVE",
"299 179 CURVE",
"350 218 OFFCURVE",
"395 305 OFFCURVE",
"412 361 CURVE SMOOTH",
"421 390 OFFCURVE",
"427 418 OFFCURVE",
"430 447 CURVE"
);
}
);
width = 455;
},
{
associatedMasterId = "99397DCC-BAAE-47D6-813A-D8EE2FB228A7";
backgroundImage = {
crop = "{{0, 0}, {78.72, 50.4}}";
imagePath = "../../Desktop/Documents/PERSONAL TYPEFACES/CANARINA/_LETTERSCANS-NEWNEW/R-newnew.jpg";
locked = "1";
transform = "{16.46929, 0, 0, 16.46929, -776, -70}";
};
components = (
{
name = _part.barra;
transform = "{1, 0, 0, 1, 4, 0}";
}
);
layerId = "219F2C3C-8CEB-4AA7-B53E-FCB3C54A4FCB";
name = "May 16 20, 18:59";
paths = (
{
closed = 1;
nodes = (
"186 210 OFFCURVE",
"278 226 OFFCURVE",
"335 252 CURVE",
"364 273 OFFCURVE",
"398 324 OFFCURVE",
"405 339 CURVE SMOOTH",
"416 361 OFFCURVE",
"435 482 OFFCURVE",
"435 507 CURVE SMOOTH",
"435 532 OFFCURVE",
"363 695 OFFCURVE",
"348 698 CURVE SMOOTH",
"261 717 OFFCURVE",
"132 715 OFFCURVE",
"40 702 CURVE",
"40 597 LINE",
"147 621 OFFCURVE",
"265 635 OFFCURVE",
"302 622 CURVE",
"275 655 LINE",
"304 599 OFFCURVE",
"333 557 OFFCURVE",
"343 519 CURVE",
"335 419 OFFCURVE",
"330 393 OFFCURVE",
"314 348 CURVE",
"303 335 OFFCURVE",
"292 327 OFFCURVE",
"279 319 CURVE",
"243 310 OFFCURVE",
"180 301 OFFCURVE",
"135 301 CURVE",
"135 203 LINE"
);
}
);
width = 455;
}
);
leftKerningGroup = H;
leftMetricsKey = H;
rightKerningGroup = P;
unicode = 0050;
},
{
color = 4;
glyphname = Thorn;
lastChange = "2025-09-23 11:08:22 +0000";
layers = (
{
components = (
{
name = _part.barra;
transform = "{1, 0, 0, 1, -15, 0}";
}
);
layerId = "99397DCC-BAAE-47D6-813A-D8EE2FB228A7";
paths = (
{
closed = 1;
nodes = (
"177 138 OFFCURVE",
"291 145 OFFCURVE",
"348 165 CURVE",
"377 186 OFFCURVE",
"409 239 OFFCURVE",
"416 254 CURVE SMOOTH",
"427 276 OFFCURVE",
"446 372 OFFCURVE",
"446 397 CURVE SMOOTH",
"446 422 OFFCURVE",
"407 535 OFFCURVE",
"359 578 CURVE",
"294 592 OFFCURVE",
"179 595 OFFCURVE",
"97 599 CURVE",
"97 502 LINE",
"182 506 OFFCURVE",
"324 512 OFFCURVE",
"353 502 CURVE",
"286 535 LINE",
"325 489 OFFCURVE",
"344 447 OFFCURVE",
"354 409 CURVE",
"348 339 OFFCURVE",
"337 293 OFFCURVE",
"325 263 CURVE",
"314 250 OFFCURVE",
"303 242 OFFCURVE",
"290 234 CURVE",
"244 227 OFFCURVE",
"161 232 OFFCURVE",
"116 236 CURVE",
"116 138 LINE"
);
}
);
width = 466;
},
{
associatedMasterId = "99397DCC-BAAE-47D6-813A-D8EE2FB228A7";
backgroundImage = {
crop = "{{0, 0}, {36.24, 58.56}}";
imagePath = "../../Desktop/_ONGOING FONTS/_LETTERSCANS-NEW/thorn-cap.jpg";
locked = "1";
transform = "{16.38025, 0, 0, 16.38025, -70, -165}";
};
components = (
{
name = _part.barra;
transform = "{1, 0, 0, 1, -15, 0}";
}
);
layerId = "5F8A0FED-58A2-4240-BFC2-02613D9EF995";
name = "Sep 29 19, 14:34";
paths = (
{
closed = 1;
nodes = (
"130 399 LINE",
"170 442 OFFCURVE",
"234 476 OFFCURVE",
"272 498 CURVE",
"316 487 OFFCURVE",
"328 466 OFFCURVE",
"376 418 CURVE",
"382 398 OFFCURVE",
"386 377 OFFCURVE",
"386 357 CURVE SMOOTH",
"386 332 OFFCURVE",
"382 318 OFFCURVE",
"376 293 CURVE",
"352 264 OFFCURVE",
"321 245 OFFCURVE",
"285 233 CURVE",
"246 228 OFFCURVE",
"152 250 OFFCURVE",
"112 255 CURVE",
"112 161 LINE",
"149 156 OFFCURVE",
"257 134 OFFCURVE",
"303 139 CURVE",
"369 161 OFFCURVE",
"400 176 OFFCURVE",
"469 246 CURVE",
"475 276 OFFCURVE",
"480 312 OFFCURVE",
"480 342 CURVE SMOOTH",
"480 377 OFFCURVE",
"475 433 OFFCURVE",
"464 468 CURVE",
"415 525 OFFCURVE",
"360 580 OFFCURVE",
"272 589 CURVE",
"198 573 OFFCURVE",
"120 509 OFFCURVE",
"75 462 CURVE"
);
}
);
width = 525;
},
{
components = (
{
name = _part.barra;
transform = "{1, 0, 0, 1, -25, 0}";
}
);
layerId = "02616952-E7A2-434B-B5AA-0FE61E2963BC";
paths = (
{
closed = 1;
nodes = (
"167 88 OFFCURVE",
"328 101 OFFCURVE",
"385 121 CURVE",
"424 152 OFFCURVE",
"456 199 OFFCURVE",
"463 214 CURVE SMOOTH",
"474 236 OFFCURVE",
"513 372 OFFCURVE",
"513 407 CURVE SMOOTH",
"513 442 OFFCURVE",
"472 533 OFFCURVE",
"426 588 CURVE",
"361 602 OFFCURVE",
"169 605 OFFCURVE",
"87 609 CURVE",
"87 472 LINE",
"172 476 OFFCURVE",
"324 482 OFFCURVE",
"353 472 CURVE",
"286 545 LINE",
"325 489 OFFCURVE",
"354 447 OFFCURVE",
"364 409 CURVE",
"358 339 OFFCURVE",
"343 283 OFFCURVE",
"331 253 CURVE",
"320 241 OFFCURVE",
"307 232 OFFCURVE",
"294 224 CURVE",
"248 217 OFFCURVE",
"151 232 OFFCURVE",
"106 236 CURVE",
"106 98 LINE"
);
}
);
width = 523;
}
);
leftKerningGroup = H;
leftMetricsKey = H;
rightKerningGroup = thorn;
unicode = 00DE;
},
{
color = 4;
glyphname = Q;
lastChange = "2025-09-27 08:39:05 +0000";
layers = (
{
anchors = (
{
name = bottom;
position = "{365, 0}";
},
{
name = top;
position = "{365, 700}";
}
);
associatedMasterId = "99397DCC-BAAE-47D6-813A-D8EE2FB228A7";
backgroundImage = {
crop = "{{0, 0}, {47.76, 53}}";
imagePath = "../../Desktop/_ONGOING FONTS/LETTERSCANS/Q.jpg";
locked = "1";
transform = "{16.64152, 0, 0, 16.64152, -77, -141}";
};
layerId = "BCD79891-DEEB-4560-8CCC-CB75280349DC";
name = "Apr 21 19, 22:05";
paths = (
{
closed = 1;
nodes = (
"296 152 OFFCURVE",
"464 -60 OFFCURVE",
"581 -83 CURVE",
"598 -83 OFFCURVE",
"637 -35 OFFCURVE",
"623 -28 CURVE SMOOTH",
"609 -21 OFFCURVE",
"546 3 OFFCURVE",
"489 62 CURVE SMOOTH",
"432 121 OFFCURVE",
"409 160 OFFCURVE",
"380 216 CURVE",
"369 215 OFFCURVE",
"349 217 OFFCURVE",
"338 212 CURVE SMOOTH",
"316 201 OFFCURVE",
"303 191 OFFCURVE",
"296 179 CURVE"
);
},
{
closed = 1;
nodes = (
"42 69 OFFCURVE",
"80 35 OFFCURVE",
"136 5 CURVE",
"206 -3 OFFCURVE",
"256 -5 OFFCURVE",
"309 -5 CURVE SMOOTH",
"369 -5 OFFCURVE",
"418 -3 OFFCURVE",
"486 4 CURVE",
"535 35 OFFCURVE",
"592 107 OFFCURVE",
"601 131 CURVE",
"593 232 OFFCURVE",
"571 315 OFFCURVE",
"545 407 CURVE SMOOTH",
"516 509 OFFCURVE",
"481 596 OFFCURVE",
"437 684 CURVE",
"401 704 OFFCURVE",
"380 710 OFFCURVE",
"331 710 CURVE SMOOTH",
"288 710 OFFCURVE",
"242 704 OFFCURVE",
"217 694 CURVE",
"150 641 OFFCURVE",
"30 285 OFFCURVE",
"20 117 CURVE"
);
},
{
closed = 1;
nodes = (
"128 230 OFFCURVE",
"185 444 OFFCURVE",
"275 616 CURVE",
"293 623 OFFCURVE",
"302 626 OFFCURVE",
"320 626 CURVE SMOOTH",
"332 626 OFFCURVE",
"348 623 OFFCURVE",
"360 616 CURVE",
"401 533 OFFCURVE",
"420 490 OFFCURVE",
"440 413 CURVE SMOOTH",
"456 353 OFFCURVE",
"496 256 OFFCURVE",
"497 161 CURVE",
"469 132 OFFCURVE",
"451 118 OFFCURVE",
"415 97 CURVE",
"378 87 OFFCURVE",
"337 85 OFFCURVE",
"300 85 CURVE SMOOTH",
"225 85 OFFCURVE",
"199 94 OFFCURVE",
"188 101 CURVE SMOOTH",
"166 115 OFFCURVE",
"149 132 OFFCURVE",
"128 161 CURVE"
);
}
);
width = 646;
},
{
anchors = (
{
name = bottom;
position = "{365, 0}";
},
{
name = top;
position = "{365, 700}";
}
);
annotations = (
{
position = "{646.591, 0.675}";
type = Arrow;
}
);
associatedMasterId = "99397DCC-BAAE-47D6-813A-D8EE2FB228A7";
backgroundImage = {
crop = "{{0, 0}, {47.76, 53}}";
imagePath = "../../Desktop/_ONGOING FONTS/LETTERSCANS/Q.jpg";
locked = "1";
transform = "{16.64152, 0, 0, 16.64152, -77, -141}";
};
components = (
{
name = O;
}
);
layerId = "970217A6-8C97-4D7F-B409-C6C4CC6E4B50";
name = "Jun 28 19, 13:36";
paths = (
{
closed = 1;
nodes = (
"585 -81 OFFCURVE",
"596 -68 OFFCURVE",
"606 -46 CURVE SMOOTH",
"611 -35 OFFCURVE",
"609 -15 OFFCURVE",
"610 -4 CURVE",
"554 25 OFFCURVE",
"515 48 OFFCURVE",
"456 105 CURVE SMOOTH",
"397 162 OFFCURVE",
"373 225 OFFCURVE",
"366 239 CURVE SMOOTH",
"359 253 OFFCURVE",
"311 214 OFFCURVE",
"311 197 CURVE",
"334 80 OFFCURVE",
"546 -88 OFFCURVE",
"573 -88 CURVE"
);
}
);
width = 631;
},
{
components = (
{
name = O;
}
);
layerId = "99397DCC-BAAE-47D6-813A-D8EE2FB228A7";
paths = (
{
closed = 1;
nodes = (
"478 -18 LINE",
"433 7 OFFCURVE",
"403 26 OFFCURVE",
"378 60 CURVE",
"354 92 OFFCURVE",
"348 125 OFFCURVE",
"335 196 CURVE",
"241 179 LINE",
"248 134 OFFCURVE",
"263 94 OFFCURVE",
"291 37 CURVE SMOOTH",
"317 -16 OFFCURVE",
"345 -52 OFFCURVE",
"395 -93 CURVE"
);
}
);
width = 532;
},
{
components = (
{
name = O;
}
);
layerId = "02616952-E7A2-434B-B5AA-0FE61E2963BC";
paths = (
{
closed = 1;
nodes = (
"559 2 LINE",
"514 17 OFFCURVE",
"464 36 OFFCURVE",
"439 70 CURVE",
"414 104 OFFCURVE",
"386 151 OFFCURVE",
"374 242 CURVE",
"259 221 LINE",
"264 152 OFFCURVE",
"278 115 OFFCURVE",
"312 47 CURVE SMOOTH",
"338 -6 OFFCURVE",
"366 -52 OFFCURVE",
"446 -103 CURVE"
);
}
);
width = 590;
}
);
leftKerningGroup = O;
leftMetricsKey = O;
rightKerningGroup = O;
rightMetricsKey = O;
unicode = 0051;
},
{
color = 4;
glyphname = R;
lastChange = "2025-09-23 11:08:22 +0000";
layers = (
{
anchors = (
{
name = bottom;
position = "{235, 0}";
},
{
name = top;
position = "{235, 700}";
}
);
components = (
{
name = _part.barra;
transform = "{1, 0, 0, 1, 4, 0}";
}
);
layerId = "99397DCC-BAAE-47D6-813A-D8EE2FB228A7";
paths = (
{
closed = 1;
nodes = (
"196 233 OFFCURVE",
"300 250 OFFCURVE",
"357 270 CURVE",
"386 291 OFFCURVE",
"418 344 OFFCURVE",
"425 359 CURVE SMOOTH",
"436 381 OFFCURVE",
"455 482 OFFCURVE",
"455 507 CURVE SMOOTH",
"455 557 OFFCURVE",
"420 634 OFFCURVE",
"368 698 CURVE",
"281 717 OFFCURVE",
"156 713 OFFCURVE",
"64 700 CURVE",
"80 597 LINE",
"187 621 OFFCURVE",
"284 631 OFFCURVE",
"322 622 CURVE",
"295 655 LINE",
"324 599 OFFCURVE",
"353 557 OFFCURVE",
"363 519 CURVE",
"357 459 OFFCURVE",
"350 413 OFFCURVE",
"334 368 CURVE",
"324 356 OFFCURVE",
"310 344 OFFCURVE",
"299 339 CURVE",
"253 332 OFFCURVE",
"180 327 OFFCURVE",
"135 331 CURVE",
"135 233 LINE"
);
},
{
closed = 1;
nodes = (
"485 61 LINE",
"398 107 OFFCURVE",
"317 197 OFFCURVE",
"291 309 CURVE",
"216 301 LINE",
"237 190 OFFCURVE",
"320 27 OFFCURVE",
"395 -20 CURVE"
);
}
);
width = 500;
},
{
associatedMasterId = "99397DCC-BAAE-47D6-813A-D8EE2FB228A7";
backgroundImage = {
crop = "{{0, 0}, {40.8, 51.72}}";
imagePath = "../../Desktop/_ONGOING FONTS/LETTERSCANS/R.jpg";
locked = "1";
transform = "{16.23942, 0, 0, 16.23942, 0, -80.173}";
};
layerId = "D24BF20F-0F67-4395-83C7-B4D88FCD4989";
name = "Feb 3 19, 21:42";
paths = (
{
closed = 1;
nodes = (
"198 0 LINE",
"188 210 LINE",
"202 714 LINE",
"92 685 LINE",
"104 297 LINE",
"95 0 LINE"
);
},
{
closed = 1;
nodes = (
"188 404 LINE",
"188 498 OFFCURVE",
"325 626 OFFCURVE",
"399 626 CURVE",
"443 626 OFFCURVE",
"474 513 OFFCURVE",
"474 465 CURVE",
"557 465 LINE",
"557 549 OFFCURVE",
"522 710 OFFCURVE",
"409 710 CURVE SMOOTH",
"296 710 OFFCURVE",
"185 567 OFFCURVE",
"138 514 CURVE"
);
},
{
closed = 1;
nodes = (
"140 246 LINE",
"215 259 OFFCURVE",
"255 273 OFFCURVE",
"325 296 CURVE SMOOTH",
"437 333 OFFCURVE",
"557 399 OFFCURVE",
"557 465 CURVE",
"474 465 LINE",
"443 422 OFFCURVE",
"375 387 OFFCURVE",
"305 365 CURVE SMOOTH",
"274 355 OFFCURVE",
"244 343 OFFCURVE",
"206 344 CURVE SMOOTH",
"187 344 OFFCURVE",
"165 354 OFFCURVE",
"140 354 CURVE"
);
},
{
closed = 1;
nodes = (
"294 202 OFFCURVE",
"369 45 OFFCURVE",
"409 0 CURVE SMOOTH",
"454 -51 OFFCURVE",
"512 -33 OFFCURVE",
"569 -33 CURVE",
"569 30 LINE",
"525 30 OFFCURVE",
"475 30 OFFCURVE",
"453 71 CURVE SMOOTH",
"313 332 LINE",
"234 304 LINE"
);
}
);
width = 600;
},
{
associatedMasterId = "99397DCC-BAAE-47D6-813A-D8EE2FB228A7";
backgroundImage = {
crop = "{{0, 0}, {40.8, 51.72}}";
imagePath = "../../Desktop/_ONGOING FONTS/LETTERSCANS/R.jpg";
locked = "1";
transform = "{16.23942, 0, 0, 16.23942, -52, -80}";
};
layerId = "0E37B2E5-EE2F-410C-938B-58BDD61B3147";
name = "Feb 28 19, 11:04";
paths = (
{
closed = 1;
nodes = (
"146 0 LINE",
"140 70 OFFCURVE",
"136 111 OFFCURVE",
"136 210 CURVE SMOOTH",
"136 378 OFFCURVE",
"145 546 OFFCURVE",
"150 714 CURVE",
"40 685 LINE",
"44 556 OFFCURVE",
"52 435 OFFCURVE",
"52 297 CURVE SMOOTH",
"52 188 OFFCURVE",
"46 99 OFFCURVE",
"43 0 CURVE"
);
},
{
closed = 1;
nodes = (
"126 454 LINE",
"126 548 OFFCURVE",
"263 626 OFFCURVE",
"337 626 CURVE",
"381 626 OFFCURVE",
"412 513 OFFCURVE",
"412 465 CURVE",
"505 465 LINE",
"505 549 OFFCURVE",
"470 710 OFFCURVE",
"357 710 CURVE SMOOTH",
"244 710 OFFCURVE",
"133 617 OFFCURVE",
"86 564 CURVE"
);
},
{
closed = 1;
nodes = (
"88 246 LINE",
"163 259 OFFCURVE",
"203 273 OFFCURVE",
"273 296 CURVE SMOOTH",
"385 333 OFFCURVE",
"505 399 OFFCURVE",
"505 465 CURVE",
"412 465 LINE",
"381 422 OFFCURVE",
"323 397 OFFCURVE",
"253 375 CURVE SMOOTH",
"222 365 OFFCURVE",
"192 353 OFFCURVE",
"164 354 CURVE SMOOTH",
"145 355 OFFCURVE",
"113 364 OFFCURVE",
"88 364 CURVE"
);
},
{
closed = 1;
nodes = (
"219 259 OFFCURVE",
"236 207 OFFCURVE",
"260 158 CURVE SMOOTH",
"289 99 OFFCURVE",
"325 47 OFFCURVE",
"347 23 CURVE SMOOTH",
"392 -28 OFFCURVE",
"470 -12 OFFCURVE",
"517 0 CURVE",
"517 73 LINE",
"405 52 OFFCURVE",
"400 82 OFFCURVE",
"332 198 CURVE SMOOTH",
"302 249 OFFCURVE",
"285 295 OFFCURVE",
"271 345 CURVE",
"192 317 LINE"
);
}
);
width = 557;
},
{
anchors = (
{
name = bottom;
position = "{295, 0}";
},
{
name = top;
position = "{295, 700}";
}
);
annotations = (
{
position = "{255.729, 748.017}";
type = Plus;
}
);
associatedMasterId = "99397DCC-BAAE-47D6-813A-D8EE2FB228A7";
backgroundImage = {
crop = "{{0, 0}, {38.88, 53.52}}";
imagePath = "../../Desktop/_ONGOING FONTS/LETTERSCANS/r-2.jpg";
locked = "1";
transform = "{16.34654, 0, 0, 16.34654, -30, -68}";
};
layerId = "44153A4D-3216-43C7-B65D-396307FF6D73";
name = "Apr 19 19, 18:31";
paths = (
{
closed = 1;
nodes = (
"151 0 LINE",
"145 70 OFFCURVE",
"141 111 OFFCURVE",
"141 210 CURVE SMOOTH",
"141 378 OFFCURVE",
"150 546 OFFCURVE",
"155 714 CURVE",
"45 685 LINE",
"49 556 OFFCURVE",
"57 435 OFFCURVE",
"57 297 CURVE SMOOTH",
"57 188 OFFCURVE",
"51 99 OFFCURVE",
"48 0 CURVE"
);
},
{
closed = 1;
nodes = (
"262 221 LINE",
"351 261 OFFCURVE",
"409 289 OFFCURVE",
"480 373 CURVE",
"396 393 LINE",
"254 305 LINE",
"112 305 LINE",
"110 221 LINE"
);
},
{
closed = 1;
nodes = (
"251 159 OFFCURVE",
"336 47 OFFCURVE",
"412 -19 CURVE",
"500 50 LINE",
"430 90 OFFCURVE",
"329 186 OFFCURVE",
"306 303 CURVE",
"233 277 LINE"
);
},
{
closed = 1;
nodes = (
"241 622 LINE",
"326 622 OFFCURVE",
"397 577 OFFCURVE",
"397 558 CURVE SMOOTH",
"396 483 OFFCURVE",
"397 430 OFFCURVE",
"396 393 CURVE",
"480 373 LINE",
"490 568 LINE",
"490 639 OFFCURVE",
"331 719 OFFCURVE",
"263 719 CURVE"
);
},
{
closed = 1;
nodes = (
"344 686 LINE",
"333 696 OFFCURVE",
"278 719 OFFCURVE",
"261 719 CURVE SMOOTH",
"234 719 OFFCURVE",
"179 669 OFFCURVE",
"124 622 CURVE",
"114 586 OFFCURVE",
"108 545 OFFCURVE",
"90 501 CURVE",
"136 448 LINE",
"142 475 OFFCURVE",
"147 503 OFFCURVE",
"149 529 CURVE",
"170 550 OFFCURVE",
"182 566 OFFCURVE",
"211 593 CURVE SMOOTH",
"227 607 OFFCURVE",
"242 622 OFFCURVE",
"259 622 CURVE",
"276 622 LINE"
);
}
);
width = 530;
},
{
anchors = (
{
name = bottom;
position = "{295, 0}";
},
{
name = top;
position = "{295, 700}";
}
);
annotations = (
{
position = "{493, 1}";
type = Arrow;
}
);
associatedMasterId = "99397DCC-BAAE-47D6-813A-D8EE2FB228A7";
components = (
{
name = _part.barra;
transform = "{1, 0, 0, 1, -15, 0}";
},
{
name = _part.bucle;
}
);
layerId = "6A797109-3ADD-4CD5-AF96-93780B4667F0";
name = "Sep 29 19, 12:18";
paths = (
{
closed = 1;
nodes = (
"248 180 OFFCURVE",
"329 59 OFFCURVE",
"398 -20 CURVE",
"486 60 LINE",
"418 117 OFFCURVE",
"317 209 OFFCURVE",
"262 311 CURVE",
"192 290 LINE"
);
}
);
width = 530;
},
{
anchors = (
{
name = bottom;
position = "{295, 0}";
},
{
name = top;
position = "{295, 700}";
}
);
associatedMasterId = "99397DCC-BAAE-47D6-813A-D8EE2FB228A7";
components = (
{
name = _part.barra;
transform = "{1, 0, 0, 1, -15, 0}";
},
{
name = _part.bucle;
}
);
layerId = "D1FDD82B-7544-4FA9-B925-9F0A582F5445";
name = "Sep 29 19, 12:30";
paths = (
{
closed = 1;
nodes = (
"216 227 OFFCURVE",
"254 147 OFFCURVE",
"267 128 CURVE SMOOTH",
"289 96 OFFCURVE",
"352 21 OFFCURVE",
"398 -20 CURVE",
"486 60 LINE",
"455 83 OFFCURVE",
"370 147 OFFCURVE",
"350 170 CURVE SMOOTH",
"327 197 OFFCURVE",
"285 258 OFFCURVE",
"262 311 CURVE",
"192 290 LINE"
);
}
);
width = 530;
},
{
anchors = (
{
name = bottom;
position = "{295, 0}";
},
{
name = top;
position = "{266, 700}";
}
);
associatedMasterId = "99397DCC-BAAE-47D6-813A-D8EE2FB228A7";
components = (
{
name = _part.barra;
transform = "{1, 0, 0, 1, -15, 0}";
},
{
name = _part.bucle;
}
);
layerId = "A4B72467-2E5F-48FB-A8D5-292309456E90";
name = "Jan 8 20, 21:09";
paths = (
{
closed = 1;
nodes = (
"216 227 OFFCURVE",
"254 147 OFFCURVE",
"267 128 CURVE SMOOTH",
"289 96 OFFCURVE",
"352 21 OFFCURVE",
"398 -20 CURVE",
"486 60 LINE",
"455 83 OFFCURVE",
"370 147 OFFCURVE",
"350 170 CURVE SMOOTH",
"327 197 OFFCURVE",
"285 258 OFFCURVE",
"262 311 CURVE",
"192 290 LINE"
);
}
);
width = 530;
},
{
anchors = (
{
name = bottom;
position = "{215, 0}";
},
{
name = top;
position = "{215, 700}";
}
);
components = (
{
name = _part.barra;
transform = "{1, 0, 0, 1, -16, 0}";
}
);
layerId = "02616952-E7A2-434B-B5AA-0FE61E2963BC";
paths = (
{
closed = 1;
nodes = (
"176 193 OFFCURVE",
"295 210 OFFCURVE",
"352 230 CURVE",
"401 261 OFFCURVE",
"447 318 OFFCURVE",
"467 359 CURVE SMOOTH",
"478 381 OFFCURVE",
"497 495 OFFCURVE",
"497 520 CURVE SMOOTH",
"497 552 OFFCURVE",
"455 623 OFFCURVE",
"393 698 CURVE",
"306 717 OFFCURVE",
"136 713 OFFCURVE",
"44 700 CURVE",
"64 557 LINE",
"180 583 OFFCURVE",
"301 593 OFFCURVE",
"367 582 CURVE",
"270 655 LINE",
"299 599 OFFCURVE",
"338 550 OFFCURVE",
"348 512 CURVE",
"342 452 OFFCURVE",
"335 413 OFFCURVE",
"319 368 CURVE",
"311 359 OFFCURVE",
"293 347 OFFCURVE",
"274 339 CURVE",
"228 332 OFFCURVE",
"160 327 OFFCURVE",
"115 331 CURVE",
"115 193 LINE"
);
},
{
closed = 1;
nodes = (
"510 85 LINE",
"423 131 OFFCURVE",
"342 221 OFFCURVE",
"316 333 CURVE",
"211 301 LINE",
"232 190 OFFCURVE",
"315 27 OFFCURVE",
"390 -20 CURVE"
);
}
);
width = 530;
}
);
leftKerningGroup = B;
rightKerningGroup = R;
unicode = 0052;
},
{
color = 4;
glyphname = S;
lastChange = "2025-10-02 14:30:38 +0000";
layers = (
{
associatedMasterId = "99397DCC-BAAE-47D6-813A-D8EE2FB228A7";
backgroundImage = {
crop = "{{0, 0}, {33.24, 50.4}}";
imagePath = "../../Desktop/_ONGOING FONTS/LETTERSCANS/S.jpg";
locked = "1";
transform = "{16.42316, 0, 0, 16.42316, 15, -43}";
};
layerId = "BBA5C1FC-7C09-4799-8FA5-8DD0AC99B71B";
name = "Feb 4 19, 00:03";
paths = (
{
closed = 1;
nodes = (
"80 479 OFFCURVE",
"118 410 OFFCURVE",
"270 353 CURVE SMOOTH",
"419 297 OFFCURVE",
"440 220 OFFCURVE",
"440 182 CURVE SMOOTH",
"440 169 LINE SMOOTH",
"440 141 OFFCURVE",
"372 53 OFFCURVE",
"356 44 CURVE SMOOTH",
"348 39 OFFCURVE",
"276 51 OFFCURVE",
"217 66 CURVE SMOOTH",
"163 81 OFFCURVE",
"121 100 OFFCURVE",
"117 113 CURVE SMOOTH",
"113 127 OFFCURVE",
"114 146 OFFCURVE",
"119 178 CURVE SMOOTH",
"126 221 OFFCURVE",
"141 254 OFFCURVE",
"133 254 CURVE SMOOTH",
"92 254 OFFCURVE",
"69 230 OFFCURVE",
"57 215 CURVE SMOOTH",
"45 200 OFFCURVE",
"27 92 OFFCURVE",
"27 68 CURVE SMOOTH",
"27 44 OFFCURVE",
"143 -19 OFFCURVE",
"271 -19 CURVE SMOOTH",
"359 -19 OFFCURVE",
"371 -15 OFFCURVE",
"391 -2 CURVE SMOOTH",
"411 11 OFFCURVE",
"524 151 OFFCURVE",
"524 198 CURVE SMOOTH",
"524 235 OFFCURVE",
"525 257 OFFCURVE",
"499 301 CURVE SMOOTH",
"474 343 OFFCURVE",
"398 399 OFFCURVE",
"307 430 CURVE SMOOTH",
"189 470 OFFCURVE",
"172 522 OFFCURVE",
"172 553 CURVE SMOOTH",
"172 620 OFFCURVE",
"295 694 OFFCURVE",
"332 694 CURVE SMOOTH",
"357 694 OFFCURVE",
"361 675 OFFCURVE",
"361 661 CURVE SMOOTH",
"361 647 OFFCURVE",
"344 536 OFFCURVE",
"349 524 CURVE SMOOTH",
"354 512 OFFCURVE",
"411 537 OFFCURVE",
"426 557 CURVE SMOOTH",
"441 577 OFFCURVE",
"441 675 OFFCURVE",
"441 707 CURVE SMOOTH",
"441 739 OFFCURVE",
"397 749 OFFCURVE",
"375 749 CURVE SMOOTH",
"303 749 OFFCURVE",
"80 662 OFFCURVE",
"80 528 CURVE"
);
}
);
width = 600;
},
{
associatedMasterId = "99397DCC-BAAE-47D6-813A-D8EE2FB228A7";
backgroundImage = {
crop = "{{0, 0}, {33.24, 50.4}}";
imagePath = "../../Desktop/_ONGOING FONTS/LETTERSCANS/S.jpg";
locked = "1";
transform = "{16.42316, 0, 0, 16.42316, 15, -43}";
};
layerId = "671E6DB1-344C-4721-A832-BBF839014AE2";
name = "Feb 4 19, 00:05";
paths = (
{
closed = 1;
nodes = (
"70 459 OFFCURVE",
"118 410 OFFCURVE",
"270 353 CURVE SMOOTH",
"419 297 OFFCURVE",
"440 220 OFFCURVE",
"440 182 CURVE SMOOTH",
"440 169 LINE SMOOTH",
"440 141 OFFCURVE",
"372 53 OFFCURVE",
"356 44 CURVE SMOOTH",
"348 39 OFFCURVE",
"275 46 OFFCURVE",
"217 66 CURVE SMOOTH",
"173 81 OFFCURVE",
"161 100 OFFCURVE",
"157 113 CURVE SMOOTH",
"153 127 OFFCURVE",
"154 146 OFFCURVE",
"159 178 CURVE SMOOTH",
"166 221 OFFCURVE",
"181 254 OFFCURVE",
"173 254 CURVE SMOOTH",
"132 254 OFFCURVE",
"109 230 OFFCURVE",
"97 215 CURVE SMOOTH",
"85 200 OFFCURVE",
"67 92 OFFCURVE",
"67 68 CURVE SMOOTH",
"67 20 OFFCURVE",
"288 -34 OFFCURVE",
"342 -34 CURVE SMOOTH",
"369 -34 OFFCURVE",
"378 -20 OFFCURVE",
"391 -12 CURVE SMOOTH",
"411 1 OFFCURVE",
"524 151 OFFCURVE",
"524 198 CURVE SMOOTH",
"524 235 OFFCURVE",
"525 257 OFFCURVE",
"499 301 CURVE SMOOTH",
"474 343 OFFCURVE",
"398 399 OFFCURVE",
"307 430 CURVE SMOOTH",
"189 470 OFFCURVE",
"172 522 OFFCURVE",
"172 553 CURVE SMOOTH",
"172 620 OFFCURVE",
"295 674 OFFCURVE",
"332 674 CURVE SMOOTH",
"357 674 OFFCURVE",
"361 655 OFFCURVE",
"361 641 CURVE SMOOTH",
"361 627 OFFCURVE",
"344 516 OFFCURVE",
"349 504 CURVE SMOOTH",
"354 492 OFFCURVE",
"411 517 OFFCURVE",
"426 537 CURVE SMOOTH",
"441 557 OFFCURVE",
"441 655 OFFCURVE",
"441 687 CURVE SMOOTH",
"441 719 OFFCURVE",
"397 729 OFFCURVE",
"375 729 CURVE SMOOTH",
"303 729 OFFCURVE",
"70 662 OFFCURVE",
"70 528 CURVE"
);
}
);
width = 600;
},
{
associatedMasterId = "99397DCC-BAAE-47D6-813A-D8EE2FB228A7";
backgroundImage = {
crop = "{{0, 0}, {33.24, 50.4}}";
imagePath = "../../Desktop/_ONGOING FONTS/LETTERSCANS/S.jpg";
locked = "1";
transform = "{16.42316, 0, 0, 16.42316, 15, -43}";
};
layerId = "6BA3E029-FE86-4D20-A902-C6677919DE4A";
name = "Feb 4 19, 00:06";
paths = (
{
closed = 1;
nodes = (
"70 459 OFFCURVE",
"118 410 OFFCURVE",
"270 353 CURVE SMOOTH",
"419 297 OFFCURVE",
"440 220 OFFCURVE",
"440 182 CURVE SMOOTH",
"440 169 LINE SMOOTH",
"440 141 OFFCURVE",
"372 64 OFFCURVE",
"356 54 CURVE SMOOTH",
"348 49 OFFCURVE",
"275 46 OFFCURVE",
"217 66 CURVE SMOOTH",
"173 81 OFFCURVE",
"147 98 OFFCURVE",
"147 113 CURVE SMOOTH",
"147 127 OFFCURVE",
"146 142 OFFCURVE",
"159 178 CURVE SMOOTH",
"174 219 OFFCURVE",
"181 254 OFFCURVE",
"173 254 CURVE SMOOTH",
"132 254 OFFCURVE",
"109 230 OFFCURVE",
"97 215 CURVE SMOOTH",
"85 200 OFFCURVE",
"67 92 OFFCURVE",
"67 68 CURVE SMOOTH",
"67 20 OFFCURVE",
"288 -24 OFFCURVE",
"342 -24 CURVE SMOOTH",
"369 -24 OFFCURVE",
"378 -10 OFFCURVE",
"391 -2 CURVE SMOOTH",
"411 11 OFFCURVE",
"524 151 OFFCURVE",
"524 198 CURVE SMOOTH",
"524 235 OFFCURVE",
"525 257 OFFCURVE",
"499 301 CURVE SMOOTH",
"474 343 OFFCURVE",
"398 399 OFFCURVE",
"307 430 CURVE SMOOTH",
"189 470 OFFCURVE",
"172 522 OFFCURVE",
"172 553 CURVE SMOOTH",
"172 620 OFFCURVE",
"295 654 OFFCURVE",
"332 654 CURVE SMOOTH",
"357 654 OFFCURVE",
"361 655 OFFCURVE",
"361 641 CURVE SMOOTH",
"361 627 OFFCURVE",
"344 516 OFFCURVE",
"349 504 CURVE SMOOTH",
"354 492 OFFCURVE",
"411 517 OFFCURVE",
"426 537 CURVE SMOOTH",
"441 557 OFFCURVE",
"441 655 OFFCURVE",
"441 687 CURVE SMOOTH",
"441 719 OFFCURVE",
"397 729 OFFCURVE",
"375 729 CURVE SMOOTH",
"303 729 OFFCURVE",
"70 662 OFFCURVE",
"70 528 CURVE"
);
}
);
width = 600;
},
{
associatedMasterId = "99397DCC-BAAE-47D6-813A-D8EE2FB228A7";
backgroundImage = {
crop = "{{0, 0}, {33.24, 50.4}}";
imagePath = "../../Desktop/_ONGOING FONTS/LETTERSCANS/S.jpg";
locked = "1";
transform = "{16.26671, -2.26143, 2.26143, 16.26671, -29, -19}";
};
layerId = "10B221F3-D575-415D-92A2-2A86BC7C0CD6";
name = "Feb 4 19, 23:29";
paths = (
{
closed = 1;
nodes = (
"100 491 OFFCURVE",
"141 436 OFFCURVE",
"283 358 CURVE SMOOTH",
"423 283 OFFCURVE",
"434 203 OFFCURVE",
"429 166 CURVE SMOOTH",
"427 153 LINE SMOOTH",
"423 125 OFFCURVE",
"350 68 OFFCURVE",
"333 60 CURVE SMOOTH",
"324 57 OFFCURVE",
"252 64 OFFCURVE",
"197 91 CURVE SMOOTH",
"155 112 OFFCURVE",
"119 135 OFFCURVE",
"126 152 CURVE SMOOTH",
"132 166 OFFCURVE",
"132 166 OFFCURVE",
"150 200 CURVE SMOOTH",
"170 239 OFFCURVE",
"182 272 OFFCURVE",
"174 273 CURVE SMOOTH",
"133 279 OFFCURVE",
"107 258 OFFCURVE",
"93 245 CURVE SMOOTH",
"79 232 OFFCURVE",
"47 127 OFFCURVE",
"44 104 CURVE SMOOTH",
"37 56 OFFCURVE",
"250 -18 OFFCURVE",
"303 -25 CURVE SMOOTH",
"330 -29 OFFCURVE",
"341 -16 OFFCURVE",
"355 -10 CURVE SMOOTH",
"377 0 OFFCURVE",
"508 124 OFFCURVE",
"514 170 CURVE SMOOTH",
"519 207 OFFCURVE",
"523 228 OFFCURVE",
"503 276 CURVE SMOOTH",
"484 321 OFFCURVE",
"417 386 OFFCURVE",
"331 430 CURVE SMOOTH",
"219 485 OFFCURVE",
"199 539 OFFCURVE",
"204 570 CURVE SMOOTH",
"213 636 OFFCURVE",
"349 653 OFFCURVE",
"386 648 CURVE SMOOTH",
"411 645 OFFCURVE",
"415 645 OFFCURVE",
"413 631 CURVE SMOOTH",
"411 617 OFFCURVE",
"379 510 OFFCURVE",
"382 497 CURVE SMOOTH",
"386 485 OFFCURVE",
"445 502 OFFCURVE",
"463 519 CURVE SMOOTH",
"481 537 OFFCURVE",
"494 634 OFFCURVE",
"498 666 CURVE SMOOTH",
"503 698 OFFCURVE",
"460 714 OFFCURVE",
"439 717 CURVE SMOOTH",
"367 726 OFFCURVE",
"127 692 OFFCURVE",
"109 559 CURVE"
);
},
{
closed = 1;
nodes = (
"256 9 LINE",
"331 2 LINE",
"498 149 LINE",
"498 183 LINE",
"431 183 LINE",
"429 170 OFFCURVE",
"427 171 OFFCURVE",
"346 81 CURVE SMOOTH",
"324 56 OFFCURVE",
"290 63 OFFCURVE",
"275 66 CURVE"
);
}
);
width = 600;
},
{
associatedMasterId = "99397DCC-BAAE-47D6-813A-D8EE2FB228A7";
backgroundImage = {
crop = "{{0, 0}, {33.24, 50.4}}";
imagePath = "../../Desktop/_ONGOING FONTS/LETTERSCANS/S.jpg";
locked = "1";
transform = "{16.40749, 0, 0, 16.40749, 0, -40}";
};
layerId = "EAEB0C66-0D97-4B68-BB7A-138A7E05A195";
name = "Feb 26 19, 17:50";
paths = (
{
closed = 1;
nodes = (
"65 352 OFFCURVE",
"427 361 OFFCURVE",
"427 169 CURVE SMOOTH",
"427 81 LINE",
"453 114 OFFCURVE",
"486 141 OFFCURVE",
"506 181 CURVE",
"506 490 OFFCURVE",
"163 402 OFFCURVE",
"163 559 CURVE",
"65 536 LINE"
);
},
{
closed = 1;
nodes = (
"73 241 OFFCURVE",
"21 215 OFFCURVE",
"21 201 CURVE SMOOTH",
"21 174 OFFCURVE",
"18 158 OFFCURVE",
"18 61 CURVE",
"120 -34 OFFCURVE",
"282 -11 OFFCURVE",
"327 -11 CURVE SMOOTH",
"372 -11 OFFCURVE",
"403 52 OFFCURVE",
"468 124 CURVE",
"437 159 LINE",
"341 40 LINE",
"238 47 OFFCURVE",
"100 108 OFFCURVE",
"100 122 CURVE SMOOTH",
"100 139 OFFCURVE",
"103 211 OFFCURVE",
"105 255 CURVE"
);
},
{
closed = 1;
nodes = (
"346 635 OFFCURVE",
"346 564 OFFCURVE",
"346 548 CURVE SMOOTH",
"346 531.996 OFFCURVE",
"346 520 OFFCURVE",
"365 526 CURVE SMOOTH",
"384 532 OFFCURVE",
"421 548 OFFCURVE",
"421 574 CURVE SMOOTH",
"421 600 OFFCURVE",
"421 665 OFFCURVE",
"421 692 CURVE SMOOTH",
"421 719 OFFCURVE",
"429 751 OFFCURVE",
"352 751 CURVE SMOOTH",
"275 751 OFFCURVE",
"70 641 OFFCURVE",
"70 550 CURVE",
"159 544 LINE",
"159 606 OFFCURVE",
"237 695 OFFCURVE",
"322 695 CURVE SMOOTH",
"336 695 OFFCURVE",
"346 687 OFFCURVE",
"346 678 CURVE"
);
}
);
width = 600;
},
{
associatedMasterId = "99397DCC-BAAE-47D6-813A-D8EE2FB228A7";
backgroundImage = {
crop = "{{0, 0}, {33.24, 50.4}}";
imagePath = "../../Desktop/_ONGOING FONTS/LETTERSCANS/S.jpg";
locked = "1";
transform = "{16.40749, 0, 0, 16.40749, 0, -40}";
};
layerId = "D1333E10-5733-4C5E-BFC4-D6D24B092A65";
name = "Feb 26 19, 17:56";
paths = (
{
closed = 1;
nodes = (
"65 417 OFFCURVE",
"167 385 OFFCURVE",
"263 343 CURVE SMOOTH",
"348 307 OFFCURVE",
"412 280 OFFCURVE",
"410 167 CURVE",
"410 115 LINE",
"427 61 LINE",
"453 94 OFFCURVE",
"476 121 OFFCURVE",
"497 161 CURVE",
"497 183 OFFCURVE",
"497 194 OFFCURVE",
"497 221 CURVE SMOOTH",
"497 340 OFFCURVE",
"397 383 OFFCURVE",
"300 425 CURVE SMOOTH",
"225 457 OFFCURVE",
"159 488 OFFCURVE",
"159 552 CURVE",
"65 536 LINE"
);
},
{
closed = 1;
nodes = (
"73 241 OFFCURVE",
"21 215 OFFCURVE",
"21 201 CURVE SMOOTH",
"21 174 OFFCURVE",
"18 158 OFFCURVE",
"18 61 CURVE",
"120 -34 OFFCURVE",
"263 -21 OFFCURVE",
"327 -11 CURVE SMOOTH",
"346 -8 OFFCURVE",
"379 8 OFFCURVE",
"427 61 CURVE",
"438 231 LINE",
"436 212 OFFCURVE",
"428 208 OFFCURVE",
"410 187 CURVE",
"340 89 LINE",
"327 74 OFFCURVE",
"306 71 OFFCURVE",
"294 72 CURVE SMOOTH",
"177 82 OFFCURVE",
"100 108 OFFCURVE",
"100 122 CURVE SMOOTH",
"100 139 OFFCURVE",
"103 211 OFFCURVE",
"105 255 CURVE"
);
},
{
closed = 1;
nodes = (
"346 595 OFFCURVE",
"346 564 OFFCURVE",
"346 548 CURVE SMOOTH",
"346 531.996 OFFCURVE",
"346 520 OFFCURVE",
"365 526 CURVE SMOOTH",
"384 532 OFFCURVE",
"421 548 OFFCURVE",
"421 574 CURVE SMOOTH",
"421 600 OFFCURVE",
"421 665 OFFCURVE",
"421 692 CURVE SMOOTH",
"421 719 OFFCURVE",
"429 751 OFFCURVE",
"352 751 CURVE SMOOTH",
"275 751 OFFCURVE",
"65 698 OFFCURVE",
"65 536 CURVE",
"159 552 LINE",
"159 614 OFFCURVE",
"237 665 OFFCURVE",
"322 665 CURVE SMOOTH",
"336 665 OFFCURVE",
"346 647 OFFCURVE",
"346 638 CURVE"
);
}
);
width = 600;
},
{
associatedMasterId = "99397DCC-BAAE-47D6-813A-D8EE2FB228A7";
backgroundImage = {
crop = "{{0, 0}, {33.24, 50.4}}";
imagePath = "../../Desktop/_ONGOING FONTS/LETTERSCANS/S.jpg";
locked = "1";
transform = "{16.40749, 0, 0, 16.40749, 0, -40}";
};
layerId = "C1095E9A-6229-4A24-B0CF-1CB2B0F10D54";
name = "Feb 26 19, 18:00";
paths = (
{
closed = 1;
nodes = (
"65 417 OFFCURVE",
"167 385 OFFCURVE",
"263 343 CURVE SMOOTH",
"348 307 OFFCURVE",
"412 280 OFFCURVE",
"410 167 CURVE",
"410 115 LINE",
"427 61 LINE",
"448 88 OFFCURVE",
"467 106 OFFCURVE",
"489 138 CURVE SMOOTH",
"503 158 OFFCURVE",
"507 169 OFFCURVE",
"507 192 CURVE",
"507 235 LINE SMOOTH",
"507 348 OFFCURVE",
"397 383 OFFCURVE",
"300 425 CURVE SMOOTH",
"225 457 OFFCURVE",
"159 488 OFFCURVE",
"159 552 CURVE",
"65 536 LINE"
);
},
{
closed = 1;
nodes = (
"73 241 OFFCURVE",
"21 215 OFFCURVE",
"20 201 CURVE",
"20 88 LINE SMOOTH",
"20 72 OFFCURVE",
"23 57 OFFCURVE",
"38 45 CURVE SMOOTH",
"92 2 OFFCURVE",
"157 1 OFFCURVE",
"217 -7 CURVE SMOOTH",
"317 -20 OFFCURVE",
"355 -19 OFFCURVE",
"427 61 CURVE",
"482 231 LINE",
"428 198 LINE",
"419 181 OFFCURVE",
"395 142 OFFCURVE",
"384 126 CURVE SMOOTH",
"369 105 OFFCURVE",
"360 93 OFFCURVE",
"340 79 CURVE SMOOTH",
"324 68 OFFCURVE",
"306 61 OFFCURVE",
"294 62 CURVE SMOOTH",
"177 72 OFFCURVE",
"100 98 OFFCURVE",
"100 112 CURVE SMOOTH",
"100 129 OFFCURVE",
"103 211 OFFCURVE",
"105 255 CURVE"
);
},
{
closed = 1;
nodes = (
"346 595 OFFCURVE",
"346 564 OFFCURVE",
"346 548 CURVE SMOOTH",
"346 531.996 OFFCURVE",
"346 520 OFFCURVE",
"365 526 CURVE SMOOTH",
"384 532 OFFCURVE",
"421 548 OFFCURVE",
"421 574 CURVE SMOOTH",
"421 600 OFFCURVE",
"421 665 OFFCURVE",
"421 692 CURVE SMOOTH",
"421 719 OFFCURVE",
"429 751 OFFCURVE",
"352 751 CURVE SMOOTH",
"275 751 OFFCURVE",
"65 698 OFFCURVE",
"65 536 CURVE",
"159 552 LINE",
"159 614 OFFCURVE",
"237 665 OFFCURVE",
"322 665 CURVE SMOOTH",
"328 665 OFFCURVE",
"338 665 OFFCURVE",
"346 663 CURVE",
"346 652 OFFCURVE",
"346 643 OFFCURVE",
"346 638 CURVE"
);
}
);
width = 527;
},
{
anchors = (
{
name = bottom;
position = "{289, 0}";
},
{
name = top;
position = "{289, 700}";
}
);
associatedMasterId = "99397DCC-BAAE-47D6-813A-D8EE2FB228A7";
backgroundImage = {
crop = "{{0, 0}, {136.56, 196.08}}";
imagePath = "../../Desktop/_ONGOING FONTS/SCANS-CORRECTIONS/s-maj.jpg";
locked = "1";
transform = "{3.99821, 0, 0, 3.99821, 7, -41}";
};
layerId = "D8135EDA-F95E-427B-98E3-154A72A35F4F";
name = "Apr 18 19, 17:26";
paths = (
{
closed = 1;
nodes = (
"90 387 OFFCURVE",
"192 355 OFFCURVE",
"288 313 CURVE SMOOTH",
"373 276 OFFCURVE",
"432 274 OFFCURVE",
"434 161 CURVE SMOOTH",
"435 95 LINE",
"472 31 LINE",
"498 58 OFFCURVE",
"522 92 OFFCURVE",
"532 122 CURVE",
"532 215 LINE SMOOTH",
"532 328 OFFCURVE",
"420 362 OFFCURVE",
"325 405 CURVE SMOOTH",
"261 434 OFFCURVE",
"215 470 OFFCURVE",
"184 532 CURVE",
"90 506 LINE"
);
},
{
closed = 1;
nodes = (
"67 196 LINE",
"57 165 OFFCURVE",
"38 124 OFFCURVE",
"38 102 CURVE SMOOTH",
"38 85 OFFCURVE",
"51 26 OFFCURVE",
"63 12 CURVE",
"135 -18 OFFCURVE",
"282 -34 OFFCURVE",
"325 -34 CURVE SMOOTH",
"386 -34 OFFCURVE",
"434 -19 OFFCURVE",
"472 31 CURVE",
"507 211 LINE",
"443 178 LINE",
"434 161 OFFCURVE",
"410 122 OFFCURVE",
"399 106 CURVE SMOOTH",
"381 81 OFFCURVE",
"377 67 OFFCURVE",
"366 60 CURVE",
"357 55 OFFCURVE",
"341.992 54 OFFCURVE",
"329 54 CURVE SMOOTH",
"233 54 OFFCURVE",
"132 92 OFFCURVE",
"132 106 CURVE",
"137 124 OFFCURVE",
"146 145 OFFCURVE",
"163 181 CURVE"
);
},
{
closed = 1;
nodes = (
"371 575 OFFCURVE",
"354 570 OFFCURVE",
"354 554 CURVE",
"446 554 LINE",
"446 580 OFFCURVE",
"446 645 OFFCURVE",
"446 672 CURVE",
"401 691 OFFCURVE",
"319 718 OFFCURVE",
"255 728 CURVE",
"165 688 OFFCURVE",
"90 622 OFFCURVE",
"90 506 CURVE",
"184 532 LINE",
"208 581 OFFCURVE",
"227 610 OFFCURVE",
"256 641 CURVE",
"278 653 OFFCURVE",
"310 645 OFFCURVE",
"347 645 CURVE SMOOTH",
"353 645 OFFCURVE",
"363 645 OFFCURVE",
"371 643 CURVE",
"371 632 OFFCURVE",
"371 623 OFFCURVE",
"371 618 CURVE"
);
}
);
width = 577;
},
{
anchors = (
{
name = bottom;
position = "{289, 0}";
},
{
name = top;
position = "{289, 700}";
}
);
associatedMasterId = "99397DCC-BAAE-47D6-813A-D8EE2FB228A7";
backgroundImage = {
crop = "{{0, 0}, {136.56, 196.08}}";
imagePath = "../../Desktop/_ONGOING FONTS/SCANS-CORRECTIONS/s-maj.jpg";
locked = "1";
transform = "{3.99821, 0, 0, 3.99821, 7, -41}";
};
layerId = "15B9FDD0-1C38-4C47-9CF6-AE955EC1037C";
name = "Apr 18 19, 17:31";
paths = (
{
closed = 1;
nodes = (
"98 85 OFFCURVE",
"111 26 OFFCURVE",
"123 12 CURVE",
"195 -18 OFFCURVE",
"282 -34 OFFCURVE",
"325 -34 CURVE SMOOTH",
"386 -34 OFFCURVE",
"433 -19 OFFCURVE",
"472 31 CURVE SMOOTH",
"498 64 OFFCURVE",
"522 94 OFFCURVE",
"532 124 CURVE",
"532 185 LINE SMOOTH",
"532 230 OFFCURVE",
"529 275 OFFCURVE",
"509 303 CURVE",
"438 348 OFFCURVE",
"388 376 OFFCURVE",
"325 405 CURVE SMOOTH",
"261 434 OFFCURVE",
"235 470 OFFCURVE",
"214 532 CURVE",
"228 581 OFFCURVE",
"247 610 OFFCURVE",
"266 641 CURVE",
"299 643 OFFCURVE",
"330 635 OFFCURVE",
"355 621 CURVE",
"354 584 OFFCURVE",
"354 571 OFFCURVE",
"354 554 CURVE",
"446 584 LINE",
"446 700 LINE",
"393 716 OFFCURVE",
"286 725 OFFCURVE",
"230 728 CURVE",
"161 677 OFFCURVE",
"131 591 OFFCURVE",
"120 496 CURVE",
"136 413 OFFCURVE",
"182 364 OFFCURVE",
"288 313 CURVE SMOOTH",
"342 287 OFFCURVE",
"378 267 OFFCURVE",
"421 239 CURVE",
"429 218 OFFCURVE",
"433 195 OFFCURVE",
"434 162 CURVE",
"423 143 OFFCURVE",
"407 118 OFFCURVE",
"399 106 CURVE SMOOTH",
"381 81 OFFCURVE",
"377 67 OFFCURVE",
"366 60 CURVE",
"357 55 OFFCURVE",
"342 54 OFFCURVE",
"329 54 CURVE SMOOTH",
"233 54 OFFCURVE",
"192 92 OFFCURVE",
"192 106 CURVE",
"197 124 OFFCURVE",
"206 145 OFFCURVE",
"223 181 CURVE",
"127 196 LINE",
"117 165 OFFCURVE",
"98 124 OFFCURVE",
"98 102 CURVE SMOOTH"
);
}
);
width = 577;
},
{
anchors = (
{
name = bottom;
position = "{215, 0}";
},
{
name = top;
position = "{215, 700}";
}
);
associatedMasterId = "99397DCC-BAAE-47D6-813A-D8EE2FB228A7";
backgroundImage = {
crop = "{{0, 0}, {136.56, 196.08}}";
imagePath = "../../Desktop/_ONGOING FONTS/SCANS-CORRECTIONS/s-maj.jpg";
locked = "1";
transform = "{3.99821, 0, 0, 3.99821, -67, -41}";
};
layerId = "1C899E3B-6367-40D0-AC71-26EE659CB3FA";
name = "Apr 18 19, 17:45";
paths = (
{
closed = 1;
nodes = (
"50 142 OFFCURVE",
"50 111 CURVE SMOOTH",
"50 80 OFFCURVE",
"56 51 OFFCURVE",
"76 22 CURVE",
"138 -1 OFFCURVE",
"176 -12 OFFCURVE",
"231 -12 CURVE SMOOTH",
"286 -12 OFFCURVE",
"322 -1 OFFCURVE",
"388 22 CURVE",
"417 54 OFFCURVE",
"456 114 OFFCURVE",
"466 144 CURVE",
"466 269 OFFCURVE",
"455 313 OFFCURVE",
"438 346 CURVE",
"367 373 OFFCURVE",
"267 430 OFFCURVE",
"201 470 CURVE",
"180 536 LINE",
"191 566 OFFCURVE",
"203 589 OFFCURVE",
"221 620 CURVE",
"255 622 OFFCURVE",
"286 614 OFFCURVE",
"311 600 CURVE",
"310 533 LINE",
"397 563 LINE",
"397 679 LINE",
"362 689 OFFCURVE",
"325 703 OFFCURVE",
"274 710 CURVE",
"236 705 OFFCURVE",
"195 698 OFFCURVE",
"166 679 CURVE",
"107 618 OFFCURVE",
"96 590 OFFCURVE",
"85 510 CURVE",
"119 395 LINE",
"217 327 OFFCURVE",
"270 303 OFFCURVE",
"353 269 CURVE",
"361 248 OFFCURVE",
"365 195 OFFCURVE",
"366 162 CURVE",
"355 143 OFFCURVE",
"339 119 OFFCURVE",
"322 103 CURVE",
"293 92 OFFCURVE",
"277 86 OFFCURVE",
"241 86 CURVE SMOOTH",
"215 86 OFFCURVE",
"189 92 OFFCURVE",
"149 103 CURVE",
"159 171 LINE",
"66 206 LINE",
"55 174 OFFCURVE"
);
}
);
width = 496;
},
{
anchors = (
{
name = bottom;
position = "{215, 0}";
},
{
name = top;
position = "{215, 700}";
}
);
associatedMasterId = "99397DCC-BAAE-47D6-813A-D8EE2FB228A7";
backgroundImage = {
crop = "{{0, 0}, {136.56, 196.08}}";
imagePath = "../../Desktop/_ONGOING FONTS/SCANS-CORRECTIONS/s-maj.jpg";
locked = "1";
transform = "{3.99821, 0, 0, 3.99821, -67, -41}";
};
layerId = "E90AF9E8-939A-44BE-8B31-DBAA1DB35BFE";
name = "Apr 18 19, 17:46";
paths = (
{
closed = 1;
nodes = (
"50 142 OFFCURVE",
"50 111 CURVE SMOOTH",
"50 80 OFFCURVE",
"56 51 OFFCURVE",
"76 22 CURVE",
"138 -1 OFFCURVE",
"176 -12 OFFCURVE",
"231 -12 CURVE SMOOTH",
"286 -12 OFFCURVE",
"322 -1 OFFCURVE",
"388 22 CURVE",
"417 54 OFFCURVE",
"456 114 OFFCURVE",
"466 144 CURVE",
"466 269 OFFCURVE",
"455 313 OFFCURVE",
"438 346 CURVE",
"367 373 OFFCURVE",
"267 430 OFFCURVE",
"201 470 CURVE",
"180 536 LINE",
"191 566 OFFCURVE",
"203 589 OFFCURVE",
"221 620 CURVE",
"255 622 OFFCURVE",
"286 614 OFFCURVE",
"311 600 CURVE",
"310 533 LINE",
"397 563 LINE",
"397 679 LINE",
"362 689 OFFCURVE",
"325 703 OFFCURVE",
"274 710 CURVE",
"236 705 OFFCURVE",
"195 698 OFFCURVE",
"166 679 CURVE",
"107 618 OFFCURVE",
"96 590 OFFCURVE",
"85 510 CURVE",
"119 395 LINE",
"217 327 OFFCURVE",
"270 303 OFFCURVE",
"353 269 CURVE",
"361 248 OFFCURVE",
"365 195 OFFCURVE",
"366 162 CURVE",
"355 143 OFFCURVE",
"339 119 OFFCURVE",
"322 103 CURVE",
"293 92 OFFCURVE",
"277 86 OFFCURVE",
"241 86 CURVE SMOOTH",
"215 86 OFFCURVE",
"189 92 OFFCURVE",
"149 103 CURVE",
"159 171 LINE",
"66 206 LINE",
"55 174 OFFCURVE"
);
}
);
width = 496;
},
{
anchors = (
{
name = bottom;
position = "{213, -10}";
},
{
name = top;
position = "{233, 700}";
}
);
layerId = "99397DCC-BAAE-47D6-813A-D8EE2FB228A7";
paths = (
{
closed = 1;
nodes = (
"257 -20 OFFCURVE",
"323 -13 OFFCURVE",
"363 0 CURVE",
"392 32 OFFCURVE",
"436 112 OFFCURVE",
"446 142 CURVE",
"446 217 OFFCURVE",
"432 298 OFFCURVE",
"415 341 CURVE",
"381 368 OFFCURVE",
"328 388 OFFCURVE",
"279 405 CURVE SMOOTH",
"229 421 OFFCURVE",
"186 436 OFFCURVE",
"156 462 CURVE",
"149 476 OFFCURVE",
"145 494 OFFCURVE",
"145 518 CURVE",
"155 551 OFFCURVE",
"172 592 OFFCURVE",
"196 620 CURVE",
"208 624 OFFCURVE",
"226 626 OFFCURVE",
"241 626 CURVE SMOOTH",
"266 626 OFFCURVE",
"290 622 OFFCURVE",
"306 613 CURVE",
"305 523 LINE",
"402 553 LINE",
"392 679 LINE",
"357 689 OFFCURVE",
"307 703 OFFCURVE",
"251 710 CURVE",
"193 705 OFFCURVE",
"145 698 OFFCURVE",
"116 679 CURVE",
"76 618 OFFCURVE",
"60 580 OFFCURVE",
"44 500 CURVE",
"48 451 OFFCURVE",
"56 421 OFFCURVE",
"79 382 CURVE",
"131 346 OFFCURVE",
"181 329 OFFCURVE",
"222 314 CURVE SMOOTH",
"257 301 OFFCURVE",
"303 290 OFFCURVE",
"332 269 CURVE",
"341 230 OFFCURVE",
"346 190 OFFCURVE",
"346 157 CURVE",
"335 134 OFFCURVE",
"314 100 OFFCURVE",
"297 84 CURVE",
"267 73 OFFCURVE",
"239 67 OFFCURVE",
"214 67 CURVE SMOOTH",
"183 67 OFFCURVE",
"150 73 OFFCURVE",
"130 84 CURVE",
"135 122 OFFCURVE",
"143 151 OFFCURVE",
"160 189 CURVE",
"61 224 LINE",
"45 175 OFFCURVE",
"35 130 OFFCURVE",
"35 99 CURVE SMOOTH",
"35 68 OFFCURVE",
"41 29 OFFCURVE",
"61 0 CURVE",
"120 -13 OFFCURVE",
"167 -20 OFFCURVE",
"214 -20 CURVE SMOOTH"
);
}
);
width = 481;
},
{
anchors = (
{
name = bottom;
position = "{639, 0}";
},
{
name = top;
position = "{639, 700}";
}
);
associatedMasterId = "99397DCC-BAAE-47D6-813A-D8EE2FB228A7";
backgroundImage = {
crop = "{{0, 0}, {136.56, 196.08}}";
imagePath = "../../Desktop/_ONGOING FONTS/SCANS-CORRECTIONS/s-maj.jpg";
locked = "1";
transform = "{3.99821, 0, 0, 3.99821, 357, -41}";
};
layerId = "1CE345EC-053D-4D1D-8DC9-99D8431317D2";
name = "Apr 18 19, 17:50";
paths = (
{
closed = 1;
nodes = (
"438 64 OFFCURVE",
"473 22 CURVE",
"598 -23 OFFCURVE",
"699 -23 OFFCURVE",
"832 22 CURVE",
"858 55 OFFCURVE",
"882 94 OFFCURVE",
"892 124 CURVE",
"892 185 LINE SMOOTH",
"892 230 OFFCURVE",
"889 275 OFFCURVE",
"869 303 CURVE",
"798 348 OFFCURVE",
"738 376 OFFCURVE",
"675 405 CURVE SMOOTH",
"638 422 OFFCURVE",
"612 440 OFFCURVE",
"592 462 CURVE",
"581 482 OFFCURVE",
"578 506 OFFCURVE",
"574 542 CURVE",
"583 579 OFFCURVE",
"597 610 OFFCURVE",
"616 641 CURVE",
"649 643 OFFCURVE",
"680 635 OFFCURVE",
"705 621 CURVE",
"704 584 OFFCURVE",
"704 571 OFFCURVE",
"704 554 CURVE",
"796 584 LINE",
"796 700 LINE",
"761 710 OFFCURVE",
"719 729 OFFCURVE",
"668 736 CURVE",
"630 731 OFFCURVE",
"584 719 OFFCURVE",
"555 700 CURVE",
"496 639 OFFCURVE",
"486 601 OFFCURVE",
"475 516 CURVE",
"481 485 OFFCURVE",
"491 427 OFFCURVE",
"507 402 CURVE",
"544 360 OFFCURVE",
"572 345 OFFCURVE",
"638 313 CURVE SMOOTH",
"692 287 OFFCURVE",
"738 267 OFFCURVE",
"781 239 CURVE",
"789 218 OFFCURVE",
"793 195 OFFCURVE",
"794 162 CURVE",
"783 143 OFFCURVE",
"768 111 OFFCURVE",
"750 89 CURVE",
"679 62 OFFCURVE",
"641 62 OFFCURVE",
"573 105 CURVE",
"573 171 LINE",
"477 206 LINE",
"458 146 OFFCURVE"
);
},
{
closed = 1;
nodes = (
"20 144 OFFCURVE",
"20 113 CURVE SMOOTH",
"20 82 OFFCURVE",
"26 53 OFFCURVE",
"46 24 CURVE",
"108 1 OFFCURVE",
"146 -10 OFFCURVE",
"201 -10 CURVE SMOOTH",
"256 -10 OFFCURVE",
"292 1 OFFCURVE",
"358 24 CURVE",
"387 56 OFFCURVE",
"426 116 OFFCURVE",
"436 146 CURVE",
"436 271 OFFCURVE",
"425 313 OFFCURVE",
"408 346 CURVE",
"373 374 OFFCURVE",
"329 390 OFFCURVE",
"286 406 CURVE SMOOTH",
"242 422 OFFCURVE",
"190 437 OFFCURVE",
"161 462 CURVE",
"157 484 OFFCURVE",
"154 506 OFFCURVE",
"150 528 CURVE",
"155 561 OFFCURVE",
"167 592 OFFCURVE",
"191 620 CURVE",
"225 622 OFFCURVE",
"256 614 OFFCURVE",
"281 600 CURVE",
"280 533 LINE",
"367 563 LINE",
"367 679 LINE",
"332 689 OFFCURVE",
"295 703 OFFCURVE",
"244 710 CURVE",
"206 705 OFFCURVE",
"155 698 OFFCURVE",
"126 679 CURVE",
"66 618 OFFCURVE",
"56 580 OFFCURVE",
"45 500 CURVE",
"52 441 OFFCURVE",
"66 411 OFFCURVE",
"89 382 CURVE",
"141 346 OFFCURVE",
"186 329 OFFCURVE",
"227 314 CURVE SMOOTH",
"262 301 OFFCURVE",
"296 290 OFFCURVE",
"325 269 CURVE",
"333 230 OFFCURVE",
"335 197 OFFCURVE",
"336 164 CURVE",
"325 145 OFFCURVE",
"309 121 OFFCURVE",
"292 105 CURVE",
"263 94 OFFCURVE",
"247 88 OFFCURVE",
"211 88 CURVE SMOOTH",
"185 88 OFFCURVE",
"149 94 OFFCURVE",
"119 105 CURVE",
"129 173 LINE",
"36 208 LINE",
"25 176 OFFCURVE"
);
}
);
width = 927;
},
{
anchors = (
{
name = bottom;
position = "{228, 0}";
},
{
name = top;
position = "{228, 700}";
}
);
associatedMasterId = "99397DCC-BAAE-47D6-813A-D8EE2FB228A7";
backgroundImage = {
crop = "{{0, 0}, {136.56, 196.08}}";
imagePath = "../../Desktop/_ONGOING FONTS/SCANS-CORRECTIONS/s-maj.jpg";
locked = "1";
transform = "{3.99821, 0, 0, 3.99821, 357, -41}";
};
layerId = "602C21F5-F1A8-4347-AC52-5AAB06740C51";
name = "Apr 18 19, 17:51";
paths = (
{
closed = 1;
nodes = (
"25 176 OFFCURVE",
"20 144 OFFCURVE",
"20 113 CURVE SMOOTH",
"20 82 OFFCURVE",
"26 53 OFFCURVE",
"46 24 CURVE",
"108 1 OFFCURVE",
"146 -10 OFFCURVE",
"201 -10 CURVE SMOOTH",
"256 -10 OFFCURVE",
"292 1 OFFCURVE",
"358 24 CURVE",
"387 56 OFFCURVE",
"426 116 OFFCURVE",
"436 146 CURVE",
"436 271 OFFCURVE",
"425 313 OFFCURVE",
"408 346 CURVE",
"373 374 OFFCURVE",
"329 390 OFFCURVE",
"286 406 CURVE SMOOTH",
"242 422 OFFCURVE",
"185 437 OFFCURVE",
"156 462 CURVE",
"150 484 OFFCURVE",
"147 506 OFFCURVE",
"145 528 CURVE",
"150 561 OFFCURVE",
"162 592 OFFCURVE",
"186 620 CURVE",
"220 622 OFFCURVE",
"256 614 OFFCURVE",
"281 600 CURVE",
"280 533 LINE",
"367 563 LINE",
"367 679 LINE",
"332 689 OFFCURVE",
"295 703 OFFCURVE",
"244 710 CURVE",
"206 705 OFFCURVE",
"155 698 OFFCURVE",
"126 679 CURVE",
"66 618 OFFCURVE",
"56 580 OFFCURVE",
"45 500 CURVE",
"52 441 OFFCURVE",
"66 411 OFFCURVE",
"89 382 CURVE",
"141 346 OFFCURVE",
"186 329 OFFCURVE",
"227 314 CURVE SMOOTH",
"262 301 OFFCURVE",
"296 290 OFFCURVE",
"325 269 CURVE",
"333 230 OFFCURVE",
"335 197 OFFCURVE",
"336 164 CURVE",
"325 145 OFFCURVE",
"309 121 OFFCURVE",
"292 105 CURVE",
"263 94 OFFCURVE",
"247 88 OFFCURVE",
"211 88 CURVE SMOOTH",
"185 88 OFFCURVE",
"149 94 OFFCURVE",
"119 105 CURVE",
"129 173 LINE",
"36 208 LINE"
);
}
);
width = 456;
},
{
anchors = (
{
name = bottom;
position = "{228, 0}";
},
{
name = top;
position = "{228, 700}";
}
);
associatedMasterId = "99397DCC-BAAE-47D6-813A-D8EE2FB228A7";
backgroundImage = {
crop = "{{0, 0}, {136.56, 196.08}}";
imagePath = "../../Desktop/_ONGOING FONTS/SCANS-CORRECTIONS/s-maj.jpg";
locked = "1";
transform = "{3.99821, 0, 0, 3.99821, 357, -41}";
};
layerId = "87863BBB-4879-453D-971D-BE0EE673D2E8";
name = "Apr 18 19, 19:19";
paths = (
{
closed = 1;
nodes = (
"35 174 OFFCURVE",
"30 142 OFFCURVE",
"30 111 CURVE SMOOTH",
"30 80 OFFCURVE",
"36 46 OFFCURVE",
"56 17 CURVE",
"128 -1 OFFCURVE",
"175 -10 OFFCURVE",
"218 -10 CURVE SMOOTH",
"260 -10 OFFCURVE",
"299 -1 OFFCURVE",
"356 17 CURVE",
"385 49 OFFCURVE",
"429 114 OFFCURVE",
"439 144 CURVE",
"439 219 OFFCURVE",
"423 298 OFFCURVE",
"406 341 CURVE",
"371 369 OFFCURVE",
"329 390 OFFCURVE",
"286 406 CURVE SMOOTH",
"242 422 OFFCURVE",
"185 437 OFFCURVE",
"156 462 CURVE",
"149 476 OFFCURVE",
"140 496 OFFCURVE",
"135 518 CURVE",
"145 551 OFFCURVE",
"162 592 OFFCURVE",
"186 620 CURVE",
"220 622 OFFCURVE",
"256 614 OFFCURVE",
"281 600 CURVE",
"280 533 LINE",
"367 563 LINE",
"367 679 LINE",
"332 689 OFFCURVE",
"295 703 OFFCURVE",
"244 710 CURVE",
"206 705 OFFCURVE",
"150 698 OFFCURVE",
"121 679 CURVE",
"76 618 OFFCURVE",
"56 580 OFFCURVE",
"40 500 CURVE",
"47 441 OFFCURVE",
"66 411 OFFCURVE",
"89 382 CURVE",
"141 346 OFFCURVE",
"186 329 OFFCURVE",
"227 314 CURVE SMOOTH",
"262 301 OFFCURVE",
"296 290 OFFCURVE",
"325 269 CURVE",
"333 230 OFFCURVE",
"340 195 OFFCURVE",
"341 162 CURVE",
"330 143 OFFCURVE",
"309 119 OFFCURVE",
"292 103 CURVE",
"263 92 OFFCURVE",
"247 86 OFFCURVE",
"211 86 CURVE SMOOTH",
"185 86 OFFCURVE",
"149 92 OFFCURVE",
"119 103 CURVE",
"129 171 LINE",
"46 206 LINE"
);
}
);
width = 456;
},
{
anchors = (
{
name = bottom;
position = "{228, 0}";
},
{
name = top;
position = "{228, 700}";
}
);
associatedMasterId = "99397DCC-BAAE-47D6-813A-D8EE2FB228A7";
backgroundImage = {
crop = "{{0, 0}, {136.56, 196.08}}";
imagePath = "../../Desktop/_ONGOING FONTS/SCANS-CORRECTIONS/s-maj.jpg";
locked = "1";
transform = "{3.99821, 0, 0, 3.99821, -43, -41}";
};
layerId = "B6B6131C-7005-4D25-AEBA-429492B09B97";
name = "May 11 19, 11:54";
paths = (
{
closed = 1;
nodes = (
"35 174 OFFCURVE",
"30 142 OFFCURVE",
"30 111 CURVE SMOOTH",
"30 80 OFFCURVE",
"36 41 OFFCURVE",
"56 12 CURVE",
"128 -4 OFFCURVE",
"175 -10 OFFCURVE",
"218 -10 CURVE SMOOTH",
"260 -10 OFFCURVE",
"294 -4 OFFCURVE",
"351 12 CURVE",
"380 44 OFFCURVE",
"424 114 OFFCURVE",
"434 144 CURVE",
"434 219 OFFCURVE",
"418 298 OFFCURVE",
"401 341 CURVE",
"366 369 OFFCURVE",
"329 390 OFFCURVE",
"286 406 CURVE SMOOTH",
"242 422 OFFCURVE",
"185 437 OFFCURVE",
"156 462 CURVE",
"149 476 OFFCURVE",
"140 496 OFFCURVE",
"135 518 CURVE",
"145 551 OFFCURVE",
"162 592 OFFCURVE",
"186 620 CURVE",
"220 622 OFFCURVE",
"256 614 OFFCURVE",
"281 600 CURVE",
"280 533 LINE",
"367 563 LINE",
"367 679 LINE",
"332 689 OFFCURVE",
"295 703 OFFCURVE",
"244 710 CURVE",
"206 705 OFFCURVE",
"150 698 OFFCURVE",
"121 679 CURVE",
"81 618 OFFCURVE",
"61 580 OFFCURVE",
"45 500 CURVE",
"52 441 OFFCURVE",
"71 411 OFFCURVE",
"94 382 CURVE",
"146 346 OFFCURVE",
"186 329 OFFCURVE",
"227 314 CURVE SMOOTH",
"262 301 OFFCURVE",
"296 290 OFFCURVE",
"325 269 CURVE",
"333 230 OFFCURVE",
"340 195 OFFCURVE",
"341 162 CURVE",
"330 143 OFFCURVE",
"309 119 OFFCURVE",
"292 103 CURVE",
"263 92 OFFCURVE",
"247 86 OFFCURVE",
"211 86 CURVE SMOOTH",
"185 86 OFFCURVE",
"149 92 OFFCURVE",
"119 103 CURVE",
"129 171 LINE",
"46 206 LINE"
);
}
);
width = 464;
},
{
anchors = (
{
name = bottom;
position = "{233, 0}";
},
{
name = top;
position = "{233, 700}";
}
);
associatedMasterId = "99397DCC-BAAE-47D6-813A-D8EE2FB228A7";
backgroundImage = {
crop = "{{0, 0}, {136.56, 196.08}}";
imagePath = "../../Desktop/_ONGOING FONTS/SCANS-CORRECTIONS/s-maj.jpg";
locked = "1";
transform = "{3.99821, 0, 0, 3.99821, -38, -41}";
};
layerId = "68D1BF6E-8C44-4765-BC62-DB8C5C18EA7F";
name = "Aug 2 19, 17:10";
paths = (
{
closed = 1;
nodes = (
"40 203 OFFCURVE",
"35 160 OFFCURVE",
"35 99 CURVE SMOOTH",
"35 68 OFFCURVE",
"41 29 OFFCURVE",
"61 0 CURVE",
"120 -13 OFFCURVE",
"167 -20 OFFCURVE",
"214 -20 CURVE SMOOTH",
"257 -20 OFFCURVE",
"323 -13 OFFCURVE",
"363 0 CURVE",
"392 32 OFFCURVE",
"436 112 OFFCURVE",
"446 142 CURVE",
"446 217 OFFCURVE",
"430 298 OFFCURVE",
"413 341 CURVE",
"378 369 OFFCURVE",
"334 390 OFFCURVE",
"281 406 CURVE SMOOTH",
"236 420 OFFCURVE",
"180 437 OFFCURVE",
"151 462 CURVE",
"144 476 OFFCURVE",
"140 494 OFFCURVE",
"140 518 CURVE",
"150 551 OFFCURVE",
"167 592 OFFCURVE",
"191 620 CURVE",
"225 624 OFFCURVE",
"261 617 OFFCURVE",
"286 603 CURVE",
"285 533 LINE",
"372 563 LINE",
"372 679 LINE",
"337 689 OFFCURVE",
"300 703 OFFCURVE",
"249 710 CURVE",
"211 705 OFFCURVE",
"145 698 OFFCURVE",
"116 679 CURVE",
"76 618 OFFCURVE",
"60 580 OFFCURVE",
"44 500 CURVE",
"48 451 OFFCURVE",
"56 421 OFFCURVE",
"79 382 CURVE",
"131 346 OFFCURVE",
"181 329 OFFCURVE",
"222 314 CURVE SMOOTH",
"257 301 OFFCURVE",
"301 290 OFFCURVE",
"330 269 CURVE",
"338 230 OFFCURVE",
"345 190 OFFCURVE",
"346 157 CURVE",
"335 134 OFFCURVE",
"314 100 OFFCURVE",
"297 84 CURVE",
"267 73 OFFCURVE",
"239 67 OFFCURVE",
"214 67 CURVE SMOOTH",
"183 67 OFFCURVE",
"150 73 OFFCURVE",
"130 84 CURVE",
"135 132 OFFCURVE",
"148 181 OFFCURVE",
"160 229 CURVE",
"61 264 LINE"
);
}
);
width = 481;
},
{
anchors = (
{
name = bottom;
position = "{230, -10}";
},
{
name = top;
position = "{246, 700}";
}
);
layerId = "02616952-E7A2-434B-B5AA-0FE61E2963BC";
paths = (
{
closed = 1;
nodes = (
"263 -20 OFFCURVE",
"339 -13 OFFCURVE",
"379 0 CURVE",
"408 32 OFFCURVE",
"462 112 OFFCURVE",
"472 142 CURVE",
"472 217 OFFCURVE",
"458 308 OFFCURVE",
"441 351 CURVE",
"402 378 OFFCURVE",
"314 403 OFFCURVE",
"265 420 CURVE SMOOTH",
"215 437 OFFCURVE",
"202 451 OFFCURVE",
"172 472 CURVE",
"166 495 OFFCURVE",
"165 514 OFFCURVE",
"165 528 CURVE",
"172 551 OFFCURVE",
"183 567 OFFCURVE",
"197 585 CURVE",
"209 589 OFFCURVE",
"222 591 OFFCURVE",
"237 591 CURVE SMOOTH",
"252 591 OFFCURVE",
"276 587 OFFCURVE",
"292 578 CURVE",
"291 508 LINE",
"428 538 LINE",
"418 679 LINE",
"383 689 OFFCURVE",
"333 703 OFFCURVE",
"247 710 CURVE",
"179 705 OFFCURVE",
"121 698 OFFCURVE",
"92 679 CURVE",
"52 618 OFFCURVE",
"36 580 OFFCURVE",
"20 500 CURVE",
"24 451 OFFCURVE",
"32 411 OFFCURVE",
"55 372 CURVE",
"107 336 OFFCURVE",
"192 299 OFFCURVE",
"223 284 CURVE SMOOTH",
"257 268 OFFCURVE",
"289 260 OFFCURVE",
"318 239 CURVE",
"327 220 OFFCURVE",
"332 200 OFFCURVE",
"332 187 CURVE",
"321 159 OFFCURVE",
"310 135 OFFCURVE",
"298 114 CURVE",
"268 103 OFFCURVE",
"235 97 OFFCURVE",
"210 97 CURVE SMOOTH",
"189 97 OFFCURVE",
"176 103 OFFCURVE",
"156 114 CURVE",
"161 152 OFFCURVE",
"169 181 OFFCURVE",
"186 219 CURVE",
"47 254 LINE",
"31 205 OFFCURVE",
"21 150 OFFCURVE",
"21 119 CURVE SMOOTH",
"21 88 OFFCURVE",
"27 29 OFFCURVE",
"47 0 CURVE",
"106 -13 OFFCURVE",
"153 -20 OFFCURVE",
"210 -20 CURVE SMOOTH"
);
}
);
width = 492;
},
{
anchors = (
{
name = bottom;
position = "{325, 0}";
},
{
name = top;
position = "{325, 700}";
}
);
associatedMasterId = "02616952-E7A2-434B-B5AA-0FE61E2963BC";
layerId = "755B011E-0525-4ED4-81E0-26B5AF2CE2E7";
name = "Feb 5 20, 18:12";
paths = (
{
closed = 1;
nodes = (
"45 205 OFFCURVE",
"35 130 OFFCURVE",
"35 99 CURVE SMOOTH",
"35 68 OFFCURVE",
"41 29 OFFCURVE",
"61 0 CURVE",
"120 -13 OFFCURVE",
"167 -20 OFFCURVE",
"234 -20 CURVE SMOOTH",
"297 -20 OFFCURVE",
"363 -13 OFFCURVE",
"403 0 CURVE",
"432 32 OFFCURVE",
"496 112 OFFCURVE",
"506 142 CURVE",
"506 217 OFFCURVE",
"492 308 OFFCURVE",
"475 351 CURVE",
"441 378 OFFCURVE",
"353 398 OFFCURVE",
"304 415 CURVE SMOOTH",
"254 432 OFFCURVE",
"221 446 OFFCURVE",
"191 472 CURVE",
"184 486 OFFCURVE",
"180 504 OFFCURVE",
"180 518 CURVE",
"190 551 OFFCURVE",
"207 572 OFFCURVE",
"231 600 CURVE",
"243 604 OFFCURVE",
"251 606 OFFCURVE",
"266 606 CURVE SMOOTH",
"291 606 OFFCURVE",
"315 602 OFFCURVE",
"331 593 CURVE",
"330 523 LINE",
"467 553 LINE",
"457 679 LINE",
"422 689 OFFCURVE",
"372 703 OFFCURVE",
"276 710 CURVE",
"198 705 OFFCURVE",
"140 698 OFFCURVE",
"111 679 CURVE",
"71 618 OFFCURVE",
"55 580 OFFCURVE",
"39 500 CURVE",
"43 451 OFFCURVE",
"51 421 OFFCURVE",
"74 382 CURVE",
"126 346 OFFCURVE",
"216 309 OFFCURVE",
"247 294 CURVE SMOOTH",
"281 278 OFFCURVE",
"323 270 OFFCURVE",
"352 249 CURVE",
"361 230 OFFCURVE",
"366 200 OFFCURVE",
"366 187 CURVE",
"355 164 OFFCURVE",
"334 130 OFFCURVE",
"322 114 CURVE",
"292 103 OFFCURVE",
"259 97 OFFCURVE",
"234 97 CURVE SMOOTH",
"213 97 OFFCURVE",
"190 103 OFFCURVE",
"170 114 CURVE",
"175 152 OFFCURVE",
"183 181 OFFCURVE",
"200 219 CURVE",
"61 254 LINE"
);
}
);
width = 541;
}
);
leftKerningGroup = S;
rightKerningGroup = S;
unicode = 0053;
},
{
color = 4;
glyphname = Germandbls;
lastChange = "2025-09-23 11:08:22 +0000";
layers = (
{
layerId = "99397DCC-BAAE-47D6-813A-D8EE2FB228A7";
paths = (
{
closed = 1;
nodes = (
"395 0 LINE",
"431 29 LINE",
"505 298 LINE",
"496 321 LINE",
"460 340 OFFCURVE",
"380 364 OFFCURVE",
"331 373 CURVE",
"349 326 LINE",
"372 385 OFFCURVE",
"414 443 OFFCURVE",
"457 522 CURVE",
"407 604 OFFCURVE",
"355 662 OFFCURVE",
"288 722 CURVE",
"179 706 OFFCURVE",
"118 682 OFFCURVE",
"40 627 CURVE",
"78 535 LINE",
"148 587 OFFCURVE",
"225 624 OFFCURVE",
"290 621 CURVE",
"250 630 LINE",
"270 623 OFFCURVE",
"330 550 OFFCURVE",
"347 518 CURVE",
"303 450 OFFCURVE",
"277 391 OFFCURVE",
"252 323 CURVE",
"266 307 LINE",
"322 296 OFFCURVE",
"371 281 OFFCURVE",
"448 243 CURVE",
"406 301 LINE",
"335 31 LINE",
"393 80 LINE",
"230 97 LINE",
"210 0 LINE"
);
},
{
closed = 1;
nodes = (
"147 0 LINE",
"143 135 OFFCURVE",
"140 230 OFFCURVE",
"140 324 CURVE SMOOTH",
"140 474 OFFCURVE",
"142 542 OFFCURVE",
"146 641 CURVE",
"40 627 LINE",
"46 509 OFFCURVE",
"49 472 OFFCURVE",
"49 330 CURVE SMOOTH",
"49 232 OFFCURVE",
"46 133 OFFCURVE",
"41 0 CURVE"
);
}
);
width = 525;
},
{
associatedMasterId = "99397DCC-BAAE-47D6-813A-D8EE2FB228A7";
backgroundImage = {
crop = "{{0, 0}, {39.36, 51.36}}";
imagePath = "../../Desktop/_ONGOING FONTS/_LETTERSCANS-NEW/esszet-cap01.jpg";
locked = "1";
transform = "{16.4453, 0, 0, 16.4453, -126, -74}";
};
layerId = "36E36F8C-7F10-41C2-AAC8-338A776DAEE2";
name = "Sep 30 19, 11:37";
paths = (
{
closed = 1;
nodes = (
"147 0 LINE",
"143 135 OFFCURVE",
"140 230 OFFCURVE",
"140 324 CURVE SMOOTH",
"140 454 OFFCURVE",
"142 502 OFFCURVE",
"146 601 CURVE",
"40 587 LINE",
"46 469 OFFCURVE",
"49 452 OFFCURVE",
"49 330 CURVE SMOOTH",
"49 232 OFFCURVE",
"46 133 OFFCURVE",
"41 0 CURVE"
);
},
{
closed = 1;
nodes = (
"118 505 LINE",
"199 560 OFFCURVE",
"234 574 OFFCURVE",
"315 590 CURVE",
"332 558 OFFCURVE",
"347 531 OFFCURVE",
"356 498 CURVE",
"321 430 OFFCURVE",
"287 351 OFFCURVE",
"262 283 CURVE",
"276 267 LINE",
"332 256 OFFCURVE",
"386 241 OFFCURVE",
"463 203 CURVE",
"421 261 LINE",
"350 31 LINE",
"408 80 LINE",
"220 97 LINE",
"200 0 LINE",
"413 3 LINE",
"448 29 LINE",
"522 258 LINE",
"513 281 LINE",
"477 300 OFFCURVE",
"390 324 OFFCURVE",
"341 333 CURVE",
"359 286 LINE",
"462 502 LINE",
"446 535 OFFCURVE",
"408 630 OFFCURVE",
"358 712 CURVE",
"284 699 OFFCURVE",
"97 617 OFFCURVE",
"40 587 CURVE"
);
}
);
width = 210;
},
{
associatedMasterId = "99397DCC-BAAE-47D6-813A-D8EE2FB228A7";
backgroundImage = {
crop = "{{0, 0}, {39.36, 51.36}}";
imagePath = "../../Desktop/_ONGOING FONTS/_LETTERSCANS-NEW/esszet-cap01.jpg";
locked = "1";
transform = "{16.4453, 0, 0, 16.4453, -126, -74}";
};
layerId = "94C1B002-E01A-471F-8093-BDFF9AB62F1F";
name = "Sep 30 19, 11:42";
paths = (
{
closed = 1;
nodes = (
"147 0 LINE",
"143 135 OFFCURVE",
"140 230 OFFCURVE",
"140 324 CURVE SMOOTH",
"140 454 OFFCURVE",
"142 502 OFFCURVE",
"146 601 CURVE",
"40 587 LINE",
"46 469 OFFCURVE",
"49 452 OFFCURVE",
"49 330 CURVE SMOOTH",
"49 232 OFFCURVE",
"46 133 OFFCURVE",
"41 0 CURVE"
);
},
{
closed = 1;
nodes = (
"88 505 LINE",
"149 550 OFFCURVE",
"216 584 OFFCURVE",
"265 600 CURVE",
"282 568 OFFCURVE",
"347 531 OFFCURVE",
"356 498 CURVE",
"321 430 OFFCURVE",
"287 351 OFFCURVE",
"262 283 CURVE",
"276 267 LINE",
"332 256 OFFCURVE",
"386 241 OFFCURVE",
"463 203 CURVE",
"421 261 LINE",
"350 31 LINE",
"408 80 LINE",
"220 97 LINE",
"200 0 LINE",
"413 3 LINE",
"448 29 LINE",
"522 258 LINE",
"513 281 LINE",
"477 300 OFFCURVE",
"390 324 OFFCURVE",
"341 333 CURVE",
"359 286 LINE",
"462 502 LINE",
"408 597 OFFCURVE",
"365 652 OFFCURVE",
"298 712 CURVE",
"189 676 OFFCURVE",
"138 652 OFFCURVE",
"40 587 CURVE"
);
}
);
width = 562;
},
{
associatedMasterId = "99397DCC-BAAE-47D6-813A-D8EE2FB228A7";
layerId = "526AF6C2-55C9-4152-817C-E9136987ACF9";
name = "Nov 27 19, 16:00";
paths = (
{
closed = 1;
nodes = (
"147 0 LINE",
"143 135 OFFCURVE",
"140 230 OFFCURVE",
"140 324 CURVE SMOOTH",
"140 474 OFFCURVE",
"142 522 OFFCURVE",
"146 621 CURVE",
"40 607 LINE",
"46 489 OFFCURVE",
"49 472 OFFCURVE",
"49 330 CURVE SMOOTH",
"49 232 OFFCURVE",
"46 133 OFFCURVE",
"41 0 CURVE"
);
},
{
closed = 1;
nodes = (
"68 515 LINE",
"129 560 OFFCURVE",
"226 614 OFFCURVE",
"285 620 CURVE",
"311 597 OFFCURVE",
"353 544 OFFCURVE",
"367 518 CURVE",
"323 450 OFFCURVE",
"297 391 OFFCURVE",
"272 323 CURVE",
"286 307 LINE",
"342 296 OFFCURVE",
"391 281 OFFCURVE",
"468 243 CURVE",
"426 301 LINE",
"355 31 LINE",
"413 80 LINE",
"230 97 LINE",
"210 0 LINE",
"416 3 LINE",
"451 29 LINE",
"525 298 LINE",
"516 321 LINE",
"480 340 OFFCURVE",
"400 364 OFFCURVE",
"351 373 CURVE",
"369 326 LINE",
"392 385 OFFCURVE",
"434 443 OFFCURVE",
"477 522 CURVE",
"427 604 OFFCURVE",
"375 662 OFFCURVE",
"308 722 CURVE",
"199 696 OFFCURVE",
"118 662 OFFCURVE",
"40 607 CURVE"
);
}
);
width = 545;
},
{
layerId = "02616952-E7A2-434B-B5AA-0FE61E2963BC";
paths = (
{
closed = 1;
nodes = (
"426 0 LINE",
"471 29 LINE",
"542 286 LINE",
"526 321 LINE",
"490 340 OFFCURVE",
"410 364 OFFCURVE",
"361 373 CURVE",
"388 326 LINE",
"411 385 OFFCURVE",
"453 443 OFFCURVE",
"496 522 CURVE",
"446 604 OFFCURVE",
"405 662 OFFCURVE",
"338 722 CURVE",
"219 716 OFFCURVE",
"98 682 OFFCURVE",
"20 627 CURVE",
"61 492 LINE",
"130 543 OFFCURVE",
"263 600 OFFCURVE",
"370 598 CURVE",
"230 630 LINE",
"250 623 OFFCURVE",
"310 550 OFFCURVE",
"327 518 CURVE",
"283 450 OFFCURVE",
"260 394 OFFCURVE",
"235 326 CURVE",
"266 277 LINE",
"322 266 OFFCURVE",
"371 251 OFFCURVE",
"448 213 CURVE",
"386 301 LINE",
"315 31 LINE",
"393 120 LINE",
"230 137 LINE",
"210 0 LINE"
);
},
{
closed = 1;
nodes = (
"177 0 LINE",
"173 135 OFFCURVE",
"170 230 OFFCURVE",
"170 324 CURVE SMOOTH",
"170 474 OFFCURVE",
"172 542 OFFCURVE",
"176 641 CURVE",
"20 627 LINE",
"26 509 OFFCURVE",
"29 472 OFFCURVE",
"29 330 CURVE SMOOTH",
"29 232 OFFCURVE",
"26 133 OFFCURVE",
"21 0 CURVE"
);
}
);
width = 557;
}
);
leftKerningGroup = H;
unicode = 1E9E;
},
{
color = 4;
glyphname = T;
lastChange = "2025-10-02 14:22:28 +0000";
layers = (
{
anchors = (
{
name = bottom;
position = "{270, 0}";
},
{
name = center;
position = "{270, 350}";
},
{
name = top;
position = "{270, 700}";
}
);
components = (
{
name = _part.barra;
transform = "{1, 0, 0, 1, 155, 0}";
}
);
layerId = "99397DCC-BAAE-47D6-813A-D8EE2FB228A7";
paths = (
{
closed = 1;
nodes = (
"270 618 LINE",
"493 608 LINE",
"503 625 OFFCURVE",
"511 646 OFFCURVE",
"515 673 CURVE",
"512 683 OFFCURVE",
"507 692 OFFCURVE",
"501 700 CURVE",
"47 700 LINE",
"37 683 OFFCURVE",
"29 662 OFFCURVE",
"25 635 CURVE",
"28 625 OFFCURVE",
"33 616 OFFCURVE",
"39 608 CURVE"
);
}
);
width = 540;
},
{
associatedMasterId = "99397DCC-BAAE-47D6-813A-D8EE2FB228A7";
backgroundImage = {
crop = "{{0, 0}, {44.64, 48.72}}";
imagePath = "../../Desktop/_ONGOING FONTS/LETTERSCANS/T.jpg";
locked = "1";
transform = "{16.43479, 0, 0, 16.43479, -47, -63}";
};
layerId = "2136E084-E0DA-405D-AC93-4CEC117814A8";
name = "Mar 6 19, 12:10";
paths = (
{
closed = 1;
nodes = (
"283 537 OFFCURVE",
"290 424 OFFCURVE",
"290 297 CURVE SMOOTH",
"290 188 OFFCURVE",
"284 99 OFFCURVE",
"281 0 CURVE",
"384 0 LINE",
"378 70 OFFCURVE",
"374 111 OFFCURVE",
"374 210 CURVE SMOOTH",
"374 358 OFFCURVE",
"381 507 OFFCURVE",
"386 655 CURVE",
"279 655 LINE"
);
},
{
closed = 1;
nodes = (
"351 634 LINE",
"614 611 LINE",
"663 677 LINE",
"650 698 LINE",
"373 700 LINE",
"347 685 LINE"
);
},
{
closed = 1;
nodes = (
"305 700 LINE",
"42 700 LINE",
"10 632 LINE",
"44 623 LINE",
"249 634 LINE",
"286 622 LINE",
"287 689 LINE"
);
},
{
closed = 1;
nodes = (
"267 644 LINE",
"405 644 LINE",
"405 700 LINE",
"267 700 LINE"
);
}
);
width = 673;
},
{
associatedMasterId = "99397DCC-BAAE-47D6-813A-D8EE2FB228A7";
backgroundImage = {
crop = "{{0, 0}, {44.64, 48.72}}";
imagePath = "../../Desktop/_ONGOING FONTS/LETTERSCANS/T.jpg";
locked = "1";
transform = "{16.43479, 0, 0, 16.43479, -99, -63}";
};
layerId = "82622AC1-FF56-4DD9-8F56-B100CD276041";
name = "Apr 18 19, 17:57";
paths = (
{
closed = 1;
nodes = (
"231 537 OFFCURVE",
"238 424 OFFCURVE",
"238 297 CURVE SMOOTH",
"238 188 OFFCURVE",
"232 99 OFFCURVE",
"228 0 CURVE",
"333 0 LINE",
"326 70 OFFCURVE",
"322 111 OFFCURVE",
"322 210 CURVE SMOOTH",
"322 358 OFFCURVE",
"329 507 OFFCURVE",
"334 655 CURVE",
"227 655 LINE"
);
},
{
closed = 1;
nodes = (
"228 644 LINE",
"333 644 LINE",
"334 700 LINE",
"227 700 LINE"
);
},
{
closed = 1;
nodes = (
"280 700 LINE",
"280 618 LINE",
"513 608 LINE",
"523 625 OFFCURVE",
"531 646 OFFCURVE",
"535 673 CURVE",
"532 683 OFFCURVE",
"527 692 OFFCURVE",
"521 700 CURVE"
);
},
{
closed = 1;
nodes = (
"280 618 LINE",
"280 700 LINE",
"47 700 LINE",
"37 683 OFFCURVE",
"29 662 OFFCURVE",
"25 635 CURVE",
"28 625 OFFCURVE",
"33 616 OFFCURVE",
"39 608 CURVE"
);
}
);
width = 560;
},
{
anchors = (
{
name = bottom;
position = "{255, 0}";
},
{
name = center;
position = "{255, 350}";
},
{
name = top;
position = "{255, 700}";
}
);
components = (
{
name = _part.barra;
transform = "{1, 0, 0, 1, 112, 0}";
}
);
layerId = "02616952-E7A2-434B-B5AA-0FE61E2963BC";
paths = (
{
closed = 1;
nodes = (
"255 568 LINE",
"478 558 LINE",
"488 585 OFFCURVE",
"497 623 OFFCURVE",
"500 653 CURVE",
"497 673 OFFCURVE",
"493 685 OFFCURVE",
"486 700 CURVE",
"32 700 LINE",
"22 677 OFFCURVE",
"14 652 OFFCURVE",
"10 615 CURVE",
"13 594 OFFCURVE",
"18 575 OFFCURVE",
"24 558 CURVE"
);
}
);
width = 510;
}
);
leftKerningGroup = T;
rightKerningGroup = T;
unicode = 0054;
},
{
color = 4;
glyphname = Tbar;
lastChange = "2025-09-23 11:08:22 +0000";
layers = (
{
components = (
{
name = T;
}
);
layerId = "99397DCC-BAAE-47D6-813A-D8EE2FB228A7";
paths = (
{
closed = 1;
nodes = (
"176 296 OFFCURVE",
"235 305 OFFCURVE",
"273 305 CURVE SMOOTH",
"307 305 OFFCURVE",
"362 296 OFFCURVE",
"405 294 CURVE",
"437 359 LINE",
"428 395 LINE",
"377 393 OFFCURVE",
"306 388 OFFCURVE",
"273 388 CURVE",
"235 388 OFFCURVE",
"190 394 OFFCURVE",
"145 398 CURVE",
"113 341 LINE",
"119 294 LINE"
);
}
);
width = 600;
},
{
components = (
{
name = T;
}
);
layerId = "02616952-E7A2-434B-B5AA-0FE61E2963BC";
paths = (
{
closed = 1;
nodes = (
"145 286 OFFCURVE",
"224 295 OFFCURVE",
"262 295 CURVE SMOOTH",
"296 295 OFFCURVE",
"371 286 OFFCURVE",
"414 284 CURVE",
"451 359 LINE",
"437 407 LINE",
"386 403 OFFCURVE",
"295 398 OFFCURVE",
"262 398 CURVE",
"224 398 OFFCURVE",
"159 404 OFFCURVE",
"114 407 CURVE",
"76 341 LINE",
"88 284 LINE"
);
}
);
width = 530;
}
);
leftKerningGroup = T;
rightKerningGroup = T;
unicode = 0166;
},
